<svg width="11" height="10" viewBox="0 0 11 10" fill="none" xmlns="http://www.w3.org/2000/svg">
<path d="M9.98828 0.608398C9.92064 0.912795 9.90549 1.41751 9.93652 2.0459C9.9669 2.6608 10.0386 3.35032 10.1211 4C10.2034 4.64828 10.2959 5.25116 10.3682 5.69238C10.4042 5.91265 10.4352 6.0925 10.457 6.2168C10.468 6.27894 10.4765 6.32777 10.4824 6.36035C10.4854 6.37659 10.4878 6.38927 10.4893 6.39746C10.49 6.40138 10.4909 6.40432 10.4912 6.40625V6.40918L9.50879 6.59082H9.50781C9.5077 6.59019 9.50803 6.58808 9.50781 6.58691C9.50739 6.5846 9.50663 6.58136 9.50586 6.57715C9.50423 6.56826 9.50209 6.55506 9.49902 6.53809C9.49288 6.50409 9.48384 6.45425 9.47266 6.39062C9.45024 6.26304 9.41862 6.07916 9.38184 5.85449C9.30827 5.40522 9.21321 4.78889 9.12891 4.125C9.04478 3.4624 8.9706 2.74523 8.93848 2.09473C8.93522 2.02876 8.93486 1.96289 8.93262 1.89746C8.37745 2.58474 7.59222 3.49529 6.7373 4.39453C5.60979 5.5805 4.31967 6.79101 3.25684 7.42871C1.34093 8.57835 1 9.74156 1 10H0C0 9.25845 0.659325 7.82159 2.74316 6.57129C3.68027 6.00894 4.89033 4.88564 6.0127 3.70508C6.97044 2.69765 7.8316 1.67783 8.36426 1H7.07422C7.05361 1.00617 7.02879 1.01385 7 1.02246C6.90835 1.04986 6.77693 1.0888 6.61914 1.13574C6.3037 1.22959 5.88104 1.35425 5.45312 1.47949C5.02565 1.60461 4.59092 1.7306 4.25195 1.8252C4.08301 1.87234 3.93471 1.91269 3.82227 1.94141C3.76663 1.95561 3.71569 1.9684 3.67383 1.97754C3.65549 1.98154 3.57528 2 3.5 2V1C3.44562 1 3.4114 1.01059 3.45996 1C3.48511 0.994513 3.5231 0.985706 3.57422 0.972656C3.67585 0.946707 3.81576 0.908813 3.98242 0.862305C4.3152 0.769436 4.74543 0.64532 5.17188 0.520508C5.598 0.395789 6.01929 0.270386 6.33398 0.176758C6.49115 0.129997 6.62162 0.0907609 6.71289 0.0634766C6.75854 0.0498312 6.79496 0.0395275 6.81934 0.0322266C6.83138 0.0286199 6.84045 0.0253056 6.84668 0.0234375C6.84961 0.0225589 6.85194 0.0219575 6.85352 0.0214844H6.85645L6.92676 0H10.123L9.98828 0.608398Z" fill="black"/>
</svg>
