<svg width="85" height="85" viewBox="0 0 85 85" fill="none" xmlns="http://www.w3.org/2000/svg">
<g clip-path="url(#clip0_275_722)">
<path d="M44.6098 33.1817C41.39 33.9597 39.4085 37.2001 40.1883 40.413C40.4543 41.5206 41.023 42.4817 41.7752 43.2323C43.2063 44.6602 45.3253 45.3376 47.4352 44.825C50.655 44.0469 52.6365 40.8066 51.8567 37.5937C51.077 34.3808 47.8296 32.4036 44.6098 33.1817ZM50.4257 41.6853C49.7102 42.857 48.5727 43.6808 47.2334 44.0103C44.463 44.6785 41.6743 42.976 41.0047 40.2208C40.335 37.4655 42.0413 34.6737 44.8116 34.0055C46.6188 33.5661 48.4442 34.1519 49.6735 35.3785C50.3248 36.0284 50.8018 36.8522 51.0311 37.8042C51.3522 39.1406 51.1412 40.5228 50.4165 41.6945" fill="#363636"/>
<path d="M55.5169 36.7515C54.9023 34.2343 53.3428 32.0924 51.1229 30.7468C48.9029 29.3921 46.2885 28.9893 43.7567 29.5935C41.2249 30.2068 39.0875 31.7629 37.739 33.978C37.1244 34.9849 36.7391 36.0742 36.519 37.1909L29.061 44.6328L28.5749 45.0904C28.4097 45.2461 28.4006 45.5115 28.5565 45.6854C28.7125 45.8502 28.9785 45.8593 29.1528 45.7037L29.6573 45.2277L36.363 38.5273C36.3171 39.461 36.363 40.3947 36.5832 41.3283C36.6657 41.667 36.785 41.9965 36.8951 42.3261L29.3087 49.6306L28.8409 50.07C28.6758 50.2256 28.6666 50.491 28.8225 50.665C28.9785 50.8297 29.2537 50.8389 29.4188 50.6833L29.8866 50.2347L37.2436 43.159C37.684 44.111 38.2711 44.9806 38.9958 45.7312L29.8775 54.3081L29.3729 54.7841C29.2078 54.9397 29.1986 55.2051 29.3546 55.3791C29.5105 55.5438 29.7766 55.553 29.9509 55.3974L30.327 55.0404L39.6104 46.317C40.0323 46.6923 40.4818 47.0402 40.9772 47.3422C41.3441 47.5619 41.7294 47.7175 42.1147 47.8914L34.7118 55.0221L34.299 55.4157C34.1339 55.5713 34.1247 55.8367 34.2807 56.0106C34.4366 56.1754 34.7026 56.1846 34.8769 56.029L35.3815 55.553L42.9678 48.2484C44.1145 48.6329 45.3253 48.8159 46.5362 48.7519L40.0232 55.2509L39.5186 55.7269C39.3535 55.8825 39.3443 56.1479 39.5003 56.3219C39.6562 56.4866 39.9314 56.4958 40.0966 56.3402L40.4543 56.0015L47.9214 48.5596C48.059 48.5322 48.2058 48.5322 48.3434 48.5047C50.8752 47.8914 53.0126 46.3353 54.3611 44.1202C55.7187 41.905 56.1223 39.2962 55.5169 36.7699M53.6455 43.6808C52.4072 45.7037 50.4532 47.1225 48.1416 47.6809C45.8299 48.2393 43.4448 47.864 41.4175 46.6282C39.3902 45.3925 37.9683 43.4428 37.4088 41.1361C36.8492 38.8294 37.2253 36.4495 38.4637 34.4265C39.7021 32.4036 41.656 30.9848 43.9677 30.4264C46.2794 29.8681 48.6644 30.2434 50.6917 31.4791C51.3064 31.8544 51.8659 32.2938 52.3613 32.7881C53.508 33.9322 54.3152 35.3602 54.7005 36.9712C55.2601 39.2779 54.8839 41.6579 53.6455 43.6808Z" fill="#363636"/>
<path d="M4.67444 57.3636C4.65586 57.3213 4.78271 57.2658 4.80129 57.308C5.03819 57.8468 5.22335 57.8665 5.82591 57.6027L11.5978 55.0757C13.1835 54.3814 14.4761 54.7981 15.0892 56.1926C15.3168 56.7102 15.2667 57.1982 14.8544 57.3787C14.6007 57.4898 14.2456 57.4563 14.0737 57.0655C13.7718 56.3788 14.7557 56.0362 14.6071 55.6982C14.477 55.4024 13.9938 55.4502 12.8627 55.9454L6.32965 58.8057C5.72709 59.0695 5.66062 59.2623 5.99042 60.0124C6.00435 60.0441 5.8775 60.0996 5.86356 60.0679C5.67312 59.6348 5.48651 59.1244 5.24962 58.5857C5.0313 58.0892 4.81843 57.691 4.67444 57.3636Z" fill="#363636"/>
<path d="M7.89931 49.6791C7.85176 49.6809 7.84932 49.5494 7.88255 49.5397C8.33083 49.4691 8.98961 49.3371 9.48815 49.1917C9.61001 49.1562 9.66405 49.1765 9.70298 49.3094L11.1366 54.2045C11.1495 54.2488 11.0166 54.2875 11.0036 54.2432C10.8058 53.5677 10.6515 53.4925 10.0089 53.6798L4.87952 55.1756C4.24804 55.3597 4.14753 55.5092 4.34538 56.1848C4.35835 56.2291 4.22541 56.2679 4.21243 56.2236L2.83724 51.5278C2.81129 51.4392 2.83804 51.4074 2.90451 51.388L4.37147 50.9362C4.40471 50.9265 4.4593 51.0308 4.42147 51.0659C3.6287 51.5615 3.3888 52.2205 3.658 53.1397L3.7553 53.4719C3.88503 53.9149 4.13175 54.0593 4.53058 53.943L6.79061 53.284L6.52141 52.3648C6.26518 51.4899 5.81093 51.1295 5.29023 51.2813C5.24592 51.2943 5.21024 51.1724 5.25455 51.1595C5.74201 51.0174 5.95575 50.9671 6.25487 50.8798C6.63154 50.77 6.95417 50.6399 7.37516 50.5171C7.40839 50.5074 7.44731 50.6403 7.41408 50.65C6.81583 50.8245 6.57538 51.3994 6.83486 52.2854L7.10082 53.1936L9.60458 52.4635C10.0366 52.3375 10.1906 52.1243 10.0869 51.7699L9.97983 51.4044C9.64252 50.2526 8.99045 49.7095 7.89931 49.6791Z" fill="#363636"/>
<path d="M1.89954 44.7752L3.41989 44.5638C3.45425 44.5595 3.49139 44.6712 3.44842 44.6998C2.58643 45.0623 2.24388 45.6745 2.36202 46.625L2.40472 46.9685C2.46166 47.4266 2.68198 47.6086 3.09427 47.5576L5.56804 47.2515L5.46555 46.4269C5.35453 45.5337 4.95259 45.1067 4.41432 45.1733C4.37996 45.1775 4.36288 45.0401 4.39724 45.0359C4.91261 44.9721 5.13163 44.9566 5.44085 44.9183C5.81879 44.8716 6.17097 44.8047 6.59472 44.7523C6.64053 44.7466 6.65761 44.884 6.6118 44.8897C6.00481 44.9648 5.6752 45.494 5.78765 46.3987L5.88871 47.2118L8.33957 46.9085C9.02673 46.8234 9.15284 46.6218 9.02331 45.5796C9.01904 45.5453 9.15648 45.5283 9.16075 45.5626C9.2248 46.078 9.27306 46.6534 9.37412 47.4665C9.44245 48.0162 9.53225 48.5516 9.58207 48.9524C9.58776 48.9982 9.45033 49.0152 9.44464 48.9694C9.34927 48.2021 9.20763 48.0917 8.54338 48.1739L3.24081 48.8302C2.58801 48.911 2.46482 49.0425 2.55164 49.7411C2.55734 49.7869 2.4199 49.8039 2.41421 49.7581L1.8107 44.9025C1.79931 44.8109 1.83082 44.7837 1.89954 44.7752Z" fill="#363636"/>
<path d="M2.12747 38.4717L3.66224 38.498C3.69684 38.4991 3.71618 38.6152 3.6693 38.6368C2.76143 38.8616 2.32791 39.4133 2.29692 40.3707L2.28572 40.7167C2.27079 41.178 2.46015 41.392 2.87537 41.4054L5.36672 41.4857L5.3936 40.6552C5.42272 39.7556 5.09201 39.2715 4.54991 39.254C4.51531 39.2529 4.51979 39.1145 4.55439 39.1156C5.07342 39.1324 5.29219 39.151 5.60361 39.161C5.98423 39.1733 6.34253 39.1617 6.76929 39.1755C6.81543 39.177 6.81095 39.3154 6.76481 39.3139C6.15351 39.2942 5.74567 39.766 5.71618 40.6771L5.68967 41.4961L8.15795 41.5756C8.84999 41.5979 9.0059 41.4182 9.03988 40.3686C9.041 40.334 9.17941 40.3385 9.17829 40.3731C9.16149 40.8921 9.11975 41.4681 9.09324 42.287C9.07532 42.8406 9.08084 43.3834 9.06778 43.7871C9.06628 43.8333 8.92787 43.8288 8.92937 43.7827C8.95438 43.0099 8.83162 42.8789 8.16264 42.8574L2.8224 42.6853C2.16496 42.6641 2.02281 42.7749 2.00004 43.4785C1.99855 43.5246 1.86014 43.5202 1.86163 43.4741L2.01993 38.5837C2.02292 38.4914 2.05827 38.4694 2.12747 38.4717Z" fill="#363636"/>
<path d="M10.6593 30.9872C10.6666 30.9534 10.802 30.9827 10.7946 31.0165L10.3575 33.0236C10.2839 33.3619 8.75808 34.0229 6.27013 34.8178C6.26176 34.9104 6.24457 34.9894 6.22493 35.0796C6.17828 35.2938 6.12916 35.5193 6.0786 35.6973L8.69507 36.2646C9.34919 36.4065 9.49535 36.3319 9.64759 35.6328C9.65496 35.599 9.7903 35.6283 9.78293 35.6621C9.69698 36.0568 9.5713 36.5255 9.44606 37.1005C9.3282 37.6418 9.24271 38.1428 9.15676 38.5374C9.14694 38.5825 9.01161 38.5532 9.02143 38.5081C9.17122 37.8203 9.07417 37.6693 8.42005 37.5275L3.19838 36.3953C2.55554 36.2559 2.39565 36.3393 2.24586 37.0271C2.23849 37.0609 2.10316 37.0316 2.11052 36.9978C2.19647 36.6031 2.33589 36.1256 2.45376 35.5843C2.55198 35.1333 2.60709 34.5549 2.71513 34.0587C3.01716 32.6718 3.71911 31.9974 4.62135 32.1931C5.33186 32.3471 5.89166 32.9763 6.13269 33.7134C9.26511 32.5624 10.4628 31.8892 10.6593 30.9872ZM5.75154 35.6264C5.82957 35.4307 5.89978 35.1626 5.93907 34.9821C6.11096 34.1928 5.87276 33.8224 4.76752 33.5827C3.43673 33.2942 3.04528 33.6816 2.91513 34.2792C2.80218 34.7979 2.97717 35.0248 3.49595 35.1373L5.75154 35.6264Z" fill="#363636"/>
<path d="M11.1219 26.2977C11.0838 26.2691 11.1651 26.1656 11.197 26.1791C11.5894 26.4067 12.1839 26.7194 12.6626 26.9208C12.7796 26.97 12.8087 27.0198 12.7548 27.1474L10.7696 31.8459C10.7517 31.8884 10.624 31.8347 10.642 31.7922C10.916 31.1437 10.8439 30.9882 10.2269 30.7287L5.30194 28.6568C4.69563 28.4017 4.52307 28.4544 4.24911 29.1028C4.23114 29.1453 4.1035 29.0916 4.12146 29.0491L6.02576 24.5419C6.06169 24.4569 6.10259 24.449 6.16641 24.4759L7.59012 25.0498C7.62203 25.0632 7.59839 25.1785 7.54686 25.1818C6.61836 25.0666 6.01536 25.4264 5.64258 26.3087L5.50784 26.6276C5.32819 27.0528 5.42818 27.3203 5.81111 27.4813L7.98107 28.3942L8.35385 27.5119C8.70866 26.6721 8.58433 26.1065 8.08439 25.8962C8.04184 25.8783 8.09124 25.7614 8.13379 25.7793C8.60182 25.9762 8.79944 26.0718 9.08664 26.1926C9.4483 26.3448 9.78088 26.4471 10.1851 26.6172C10.217 26.6306 10.1631 26.7582 10.1312 26.7448C9.55679 26.5031 9.0065 26.7974 8.6472 27.6478L8.27891 28.5195L10.6829 29.5308C11.0977 29.7054 11.3521 29.6371 11.4958 29.2969L11.644 28.9461C12.1111 27.8406 11.949 27.0087 11.1219 26.2977Z" fill="#363636"/>
<path d="M10.4693 17.235C10.488 17.2059 10.6045 17.2808 10.5858 17.3098C10.3293 17.7074 10.4476 18.7161 10.9207 19.6646L11.9595 21.7583L14.1247 23.1491C14.6879 23.5108 14.851 23.4921 15.2389 22.8909C15.2639 22.8521 15.3804 22.9269 15.3554 22.9657C15.1364 23.3051 14.8543 23.6999 14.5415 24.1848C14.2412 24.6503 13.9791 25.0991 13.7602 25.4385C13.7414 25.4676 13.6249 25.3928 13.6436 25.3637C14.0252 24.7722 13.9935 24.5872 13.4304 24.2255L11.469 22.9656L8.35163 22.9657C7.22389 22.9683 6.83857 23.1185 6.7072 23.3222C6.68218 23.3609 6.56567 23.2861 6.59069 23.2473C6.7158 23.0534 6.88256 22.8587 7.00767 22.6648C7.358 22.1217 7.79805 21.3757 8.02326 21.0266C8.04202 20.9975 8.15854 21.0724 8.13977 21.1015C7.8958 21.4797 8.153 21.7409 8.65268 21.7327L11.607 21.7513L10.6581 19.88C10.2149 18.9918 9.64115 18.7741 9.2533 19.3754C9.22827 19.4142 9.11176 19.3393 9.13678 19.3005C9.39952 18.8932 9.61632 18.621 10.0104 18.0101C10.2169 17.6901 10.2816 17.5259 10.4693 17.235Z" fill="#363636"/>
<path d="M24.51 13.761C24.5363 13.7385 24.6266 13.8435 24.6003 13.866C24.2933 14.1285 23.8836 14.4486 23.4627 14.8086C23.0242 15.1836 22.6709 15.5161 22.3639 15.7787C22.3288 15.8087 22.2386 15.7036 22.2737 15.6736C22.8174 15.2086 22.8487 15.0148 22.3775 14.5371L19.118 11.1142L20.9432 16.8875C20.9632 16.9463 20.858 17.0363 20.8028 17.0075L14.9673 14.6945L17.6116 17.9147C18.1367 18.5437 18.7394 18.6964 19.2217 18.2838C19.2568 18.2538 19.347 18.3589 19.312 18.3889C19.0576 18.6064 18.7795 18.8139 18.4462 19.0989C18.0691 19.4215 17.786 19.694 17.5316 19.9115C17.4966 19.9415 17.4063 19.8365 17.4414 19.8064C17.915 19.4014 17.8911 18.7537 17.366 18.1247L14.3319 14.433L14.3157 14.4318C13.7192 14.1978 13.3082 14.2153 12.9837 14.4928C12.9486 14.5228 12.8584 14.4178 12.8935 14.3878C13.1391 14.1777 13.4523 13.9402 13.6364 13.7827C13.9346 13.5277 14.1564 13.3077 14.2879 13.1952C14.4458 13.0601 14.5648 13.1102 15.0823 13.3053L20.0696 15.2506L18.4575 10.0087C18.3848 9.78241 18.401 9.67738 18.5326 9.56487C18.6466 9.46736 18.7844 9.37986 18.9598 9.22985C19.3369 8.90732 19.5499 8.6948 19.813 8.46978C19.8481 8.43978 19.9383 8.54483 19.9032 8.57483C19.3595 9.03987 19.3019 9.46873 19.7268 9.91019L23.351 13.7045C23.8222 14.1822 23.9751 14.2185 24.51 13.761Z" fill="#363636"/>
<path d="M31.1855 10.689C31.2471 10.6575 31.3104 10.7807 31.2488 10.8122C30.8378 11.0225 30.3544 11.218 29.9435 11.4283C29.471 11.6701 29.2044 11.8583 28.7832 12.0739C28.7216 12.1054 28.6583 11.9822 28.7199 11.9507C29.2849 11.6616 29.2672 11.4503 28.5853 10.9566L26.4355 9.39925L24.6069 10.335L24.7057 12.3197C24.7579 13.33 25.4531 13.6224 26.2236 13.2281C26.2852 13.1966 26.3485 13.3198 26.2869 13.3513C25.8759 13.5616 25.5775 13.6625 25.0535 13.9306C24.5193 14.2039 24.3042 14.3659 23.8419 14.6025C23.7905 14.6288 23.7272 14.5056 23.7786 14.4793C24.3333 14.1954 24.4477 13.7869 24.3756 12.359L24.0887 6.32234C24.0779 6.27603 24.2267 6.18691 24.2736 6.22771L29.4371 9.96329C30.4211 10.6913 30.8464 10.8625 31.1855 10.689ZM24.5928 9.97926L26.144 9.18546L24.4887 7.98433L24.5928 9.97926Z" fill="#363636"/>
<path d="M38.041 9.06032C38.0744 9.05122 38.1109 9.1848 38.0775 9.19389L36.0955 9.73345C35.7615 9.82439 34.4701 8.77663 32.6153 6.9374C32.5293 6.97278 32.4514 6.994 32.3623 7.01825C32.1507 7.07584 31.928 7.13647 31.7468 7.17383L32.4529 9.75633C32.6294 10.402 32.7631 10.4971 33.4535 10.3092C33.4869 10.3001 33.5234 10.4337 33.49 10.4428C33.1003 10.5489 32.6265 10.6539 32.0587 10.8085C31.5242 10.954 31.0403 11.1096 30.6506 11.2157C30.6061 11.2279 30.5696 11.0943 30.6141 11.0821C31.2933 10.8972 31.3823 10.7415 31.2058 10.0958L29.7967 4.94197C29.6232 4.30748 29.4754 4.20421 28.7961 4.38912C28.7627 4.39821 28.7262 4.26463 28.7596 4.25554C29.1493 4.14945 29.6373 4.0525 30.1717 3.907C30.6171 3.78575 31.1556 3.5674 31.6455 3.43402C33.0151 3.06118 33.9376 3.37217 34.1811 4.26269C34.3728 4.96397 34.0736 5.75107 33.5312 6.30535C35.9997 8.55158 37.1502 9.30281 38.041 9.06032ZM31.6586 6.85102C31.8681 6.82985 32.1384 6.76824 32.3166 6.71974C33.096 6.50755 33.3145 6.12516 33.0162 5.03428C32.6571 3.72076 32.1326 3.5526 31.5424 3.71325C31.0302 3.85269 30.9099 4.11269 31.0499 4.62473L31.6586 6.85102Z" fill="#363636"/>
<path d="M39.5446 8.31526C39.6186 8.98048 39.7359 9.09522 40.447 9.0165C40.4929 9.01142 40.5082 9.14905 40.4623 9.15413C40.0608 9.19857 39.5766 9.22895 38.9916 9.2937C38.441 9.35465 37.9274 9.43472 37.526 9.47916C37.4916 9.48297 37.4763 9.34533 37.5107 9.34152C38.2103 9.26408 38.334 9.12268 38.26 8.45746L37.6697 3.14715C37.597 2.4934 37.444 2.371 36.7444 2.44845C36.71 2.45226 36.6947 2.31463 36.7291 2.31082C37.1305 2.26638 37.6505 2.24365 38.2011 2.18271C38.786 2.11796 39.2754 2.02896 39.6654 1.98579C39.7113 1.98071 39.7266 2.11834 39.6807 2.12342C38.981 2.20087 38.8842 2.37414 38.9568 3.02789L39.5446 8.31526Z" fill="#363636"/>
<path d="M48.5583 9.26662C48.6275 9.2699 48.6209 9.40822 48.5517 9.40494C48.0906 9.38308 47.5741 9.31239 47.113 9.29053C46.5828 9.26539 46.2578 9.2962 45.7852 9.27379C45.716 9.27051 45.7226 9.13219 45.7918 9.13547C46.4258 9.16553 46.5158 8.97339 46.1711 8.20611L45.0848 5.78625L43.033 5.68898L42.1284 7.45992C41.6695 8.3624 42.1262 8.9617 42.9907 9.00268C43.0599 9.00596 43.0533 9.14428 42.9841 9.14101C42.5231 9.11915 42.214 9.05828 41.6261 9.03042C41.0267 9.002 40.7594 9.03554 40.2407 9.01095C40.1831 9.00822 40.1896 8.86989 40.2473 8.87263C40.8697 8.90213 41.1727 8.60457 41.8226 7.32989L44.5858 1.95012C44.5995 1.90456 44.773 1.90123 44.7933 1.95996L47.405 7.76783C47.8947 8.88857 48.1779 9.24859 48.5583 9.26662ZM43.1982 5.37333L44.9388 5.45585L44.1033 3.59088L43.1982 5.37333Z" fill="#363636"/>
<path d="M57.3334 4.51324C57.3668 4.52223 57.3307 4.65592 57.2973 4.64692C56.7067 4.48801 56.2035 4.89039 55.9897 5.68136L54.4485 11.3853C54.4364 11.4298 54.3331 11.414 54.3168 11.3857L50.698 4.03054L49.5269 8.36417C49.3132 9.15514 49.5262 9.73827 50.1057 9.89418C50.1391 9.90317 50.103 10.0369 50.0696 10.0279C49.7464 9.94091 49.407 9.82569 48.9946 9.71475C48.5489 9.59482 48.1083 9.50017 47.7517 9.40423C47.7071 9.39224 47.7432 9.25855 47.7878 9.27054C48.4341 9.44444 48.9789 9.0652 49.1926 8.27422L50.466 3.56182C50.112 2.88101 49.8422 2.64109 49.4856 2.54515C49.4521 2.53616 49.4883 2.40247 49.5217 2.41147C49.8114 2.48942 50.1397 2.60165 50.4072 2.67361C50.9421 2.81752 51.405 2.91817 51.639 2.98113C51.8284 3.0321 51.7974 3.19107 52.0396 3.71035L54.6942 9.19278L55.6666 5.59441C55.8803 4.80344 55.6703 4.20918 55.0908 4.05327C55.0574 4.04427 55.0935 3.91059 55.127 3.91958C55.4501 4.00653 55.7866 4.1329 56.1989 4.24383C56.6 4.35177 57.0103 4.42629 57.3334 4.51324Z" fill="#363636"/>
<path d="M58.1913 13.1975C56.23 12.1666 55.7506 9.98507 56.6988 8.18896C57.8679 5.97444 60.3852 5.90269 62.0399 6.77254C64.0522 7.83033 64.4273 10.0613 63.5599 11.7043C62.5578 13.6025 60.1321 14.2177 58.1913 13.1975ZM58.663 13.1196C59.7969 13.7156 61.1883 13.1563 62.1473 11.3398C63.1332 9.47229 62.967 7.61187 61.4859 6.8333C60.2397 6.17823 59.0273 6.81858 58.1545 8.47181C57.0986 10.472 57.3249 12.4162 58.663 13.1196Z" fill="#363636"/>
<path d="M69.921 18.5827C69.1536 17.7212 69.1934 16.4048 70.0698 15.6275C70.9065 14.8855 72.2611 14.9653 73.0285 15.8268C73.784 16.6751 73.6926 18.0136 72.856 18.7556C71.9795 19.5329 70.6765 19.431 69.921 18.5827Z" fill="#363636"/>
<path d="M80.4265 27.7371C80.4451 27.7794 80.3182 27.8349 80.2997 27.7927C80.0628 27.2539 79.8776 27.2342 79.275 27.498L73.5032 30.025C71.9175 30.7193 70.6249 30.3026 70.0117 28.9081C69.7841 28.3905 69.8343 27.9025 70.2466 27.722C70.5003 27.6109 70.8554 27.6444 71.0272 28.0352C71.3292 28.7219 70.3452 29.0645 70.4939 29.4025C70.6239 29.6983 71.1072 29.6505 72.2383 29.1553L78.7713 26.295C79.3739 26.0312 79.4403 25.8383 79.1105 25.0883C79.0966 25.0566 79.2235 25.0011 79.2374 25.0328C79.4278 25.4659 79.6144 25.9763 79.8513 26.515C80.0696 27.0115 80.2825 27.4096 80.4265 27.7371Z" fill="#363636"/>
<path d="M77.2119 35.4263C77.2595 35.4245 77.2617 35.556 77.2285 35.5657C76.7801 35.6356 76.1211 35.7665 75.6223 35.9111C75.5004 35.9465 75.4464 35.9261 75.4077 35.7931L73.9818 30.8958C73.9689 30.8515 74.1019 30.8129 74.1148 30.8572C74.3116 31.5331 74.4658 31.6086 75.1086 31.4222L80.2404 29.9345C80.8721 29.7514 80.9729 29.602 80.7761 28.9261C80.7632 28.8818 80.8962 28.8433 80.9091 28.8876L82.2769 33.5855C82.3027 33.6741 82.2759 33.7059 82.2094 33.7252L80.7417 34.1747C80.7085 34.1843 80.6541 34.08 80.6919 34.045C81.4855 33.5506 81.7264 32.892 81.4587 31.9723L81.3619 31.6399C81.2329 31.1967 80.9864 31.0519 80.5874 31.1676L78.3263 31.8231L78.5941 32.7427C78.8489 33.618 79.3026 33.9791 79.8235 33.8281C79.8679 33.8153 79.9033 33.9371 79.859 33.95C79.3713 34.0914 79.1575 34.1413 78.8583 34.2281C78.4814 34.3373 78.1586 34.467 77.7374 34.5891C77.7042 34.5987 77.6654 34.4658 77.6987 34.4561C78.2972 34.2826 78.5386 33.708 78.2805 32.8216L78.016 31.9131L75.5111 32.6392C75.0788 32.7645 74.9244 32.9775 75.0277 33.3321L75.1341 33.6977C75.4696 34.85 76.1208 35.3941 77.2119 35.4263Z" fill="#363636"/>
<path d="M83.1033 40.2716L81.5827 40.4809C81.5483 40.4851 81.5113 40.3734 81.5543 40.3449C82.4168 39.9836 82.7602 39.3719 82.6434 38.4212L82.6012 38.0776C82.5449 37.6194 82.3248 37.4371 81.9125 37.4875L79.4383 37.7902L79.5396 38.6149C79.6494 39.5083 80.0507 39.9359 80.5891 39.87C80.6234 39.8658 80.6403 40.0033 80.606 40.0075C80.0905 40.0705 79.8715 40.0857 79.5622 40.1235C79.1842 40.1698 78.8319 40.2361 78.4081 40.288C78.3623 40.2936 78.3454 40.1562 78.3912 40.1505C78.9983 40.0763 79.3286 39.5476 79.2175 38.6427L79.1175 37.8295L76.6663 38.1294C75.979 38.2135 75.8526 38.4149 75.9807 39.4572C75.9849 39.4916 75.8474 39.5084 75.8432 39.4741C75.7799 38.9586 75.7324 38.3831 75.6325 37.5699C75.5649 37.0201 75.4759 36.4846 75.4266 36.0837C75.421 36.0379 75.5584 36.0211 75.5641 36.0669C75.6584 36.8343 75.7999 36.9449 76.4642 36.8636L81.7677 36.2148C82.4206 36.1349 82.544 36.0035 82.4581 35.3048C82.4525 35.259 82.59 35.2422 82.5956 35.288L83.1923 40.1445C83.2036 40.2361 83.172 40.2632 83.1033 40.2716Z" fill="#363636"/>
<path d="M82.9002 46.5569L81.3655 46.5281C81.3309 46.5269 81.3118 46.4108 81.3587 46.3893C82.2669 46.166 82.7013 45.6149 82.7338 44.6576L82.7455 44.3116C82.7612 43.8503 82.5722 43.636 82.157 43.622L79.6657 43.5378L79.6376 44.3682C79.607 45.2678 79.937 45.7524 80.479 45.7707C80.5136 45.7718 80.5089 45.9102 80.4743 45.9091C79.9553 45.8915 79.7366 45.8726 79.4252 45.8621C79.0446 45.8492 78.6863 45.8602 78.2595 45.8458C78.2134 45.8442 78.2181 45.7058 78.2642 45.7074C78.8755 45.728 79.2841 45.2569 79.315 44.3457L79.3428 43.5269L76.8747 43.4435C76.1826 43.4201 76.0265 43.5995 75.9908 44.6491C75.9896 44.6837 75.8512 44.679 75.8524 44.6444C75.87 44.1254 75.9127 43.5495 75.9405 42.7306C75.9593 42.177 75.9546 41.6342 75.9683 41.2305C75.9699 41.1844 76.1083 41.1891 76.1067 41.2352C76.0805 42.0079 76.203 42.1391 76.872 42.1617L82.2119 42.3422C82.8694 42.3644 83.0117 42.2537 83.0356 41.5502C83.0371 41.5041 83.1755 41.5088 83.174 41.5549L83.008 46.445C83.0048 46.5373 82.9694 46.5592 82.9002 46.5569Z" fill="#363636"/>
<path d="M74.3297 53.9917C74.3223 54.0255 74.187 53.996 74.1944 53.9621L74.6343 51.9557C74.7085 51.6175 76.2352 50.9586 78.7242 50.1672C78.7327 50.0746 78.75 49.9957 78.7698 49.9055C78.8167 49.6913 78.8662 49.4659 78.917 49.288L76.3013 48.717C75.6474 48.5742 75.5011 48.6486 75.3479 49.3475C75.3405 49.3813 75.2052 49.3518 75.2126 49.318C75.2991 48.9234 75.4255 48.4549 75.5515 47.88C75.6701 47.339 75.7563 46.8381 75.8428 46.4435C75.8527 46.3984 75.988 46.428 75.9781 46.4731C75.8273 47.1607 75.9242 47.3117 76.5781 47.4545L81.7982 48.594C82.4408 48.7343 82.6008 48.6511 82.7516 47.9635C82.759 47.9297 82.8943 47.9592 82.8869 47.993C82.8004 48.3876 82.6603 48.8649 82.5417 49.406C82.4428 49.8569 82.3869 50.4352 82.2782 50.9312C81.9742 52.3177 81.2713 52.9911 80.3693 52.7942C79.659 52.6391 79.1001 52.0092 78.8601 51.2718C75.7261 52.4184 74.5274 53.0899 74.3297 53.9917ZM79.244 49.3594C79.1656 49.5549 79.0951 49.8229 79.0555 50.0033C78.8825 50.7924 79.1202 51.1632 80.2251 51.4044C81.5555 51.6948 81.9475 51.3079 82.0785 50.7104C82.1922 50.1919 82.0175 49.9648 81.4989 49.8516L79.244 49.3594Z" fill="#363636"/>
<path d="M73.8741 58.8115C73.9122 58.8401 73.8308 58.9435 73.7989 58.9301C73.4066 58.7021 72.8124 58.389 72.3338 58.1873C72.2169 58.138 72.1878 58.0882 72.2418 57.9607L74.2302 53.2636C74.2482 53.2211 74.3758 53.2748 74.3578 53.3173C74.0834 53.9656 74.1554 54.1212 74.7722 54.3811L79.6957 56.4564C80.3018 56.7119 80.4744 56.6594 80.7488 56.0112C80.7668 55.9687 80.8944 56.0225 80.8765 56.065L78.969 60.5708C78.933 60.6558 78.8921 60.6637 78.8283 60.6368L77.405 60.0619C77.3731 60.0484 77.3968 59.9332 77.4483 59.9299C78.3768 60.0457 78.98 59.6863 79.3534 58.8043L79.4884 58.4855C79.6683 58.0604 79.5685 57.7929 79.1857 57.6316L77.0164 56.7172L76.643 57.5992C76.2876 58.4387 76.4115 59.0044 76.9113 59.2151C76.9539 59.233 76.9044 59.3499 76.8618 59.332C76.3939 59.1348 76.1964 59.039 75.9093 58.918C75.5477 58.7656 75.2152 58.663 74.8111 58.4927C74.7792 58.4792 74.8332 58.3517 74.8651 58.3651C75.4393 58.6072 75.9898 58.3132 76.3497 57.4631L76.7186 56.5917L74.3154 55.5787C73.9006 55.4039 73.6462 55.472 73.5023 55.812L73.3538 56.1627C72.886 57.2679 73.0475 58.0999 73.8741 58.8115Z" fill="#363636"/>
<path d="M74.4988 67.8041C74.48 67.8332 74.3636 67.7582 74.3824 67.7291C74.6394 67.3319 74.5225 66.323 74.0508 65.3739L73.0148 63.2787L70.8515 61.8849C70.2889 61.5224 70.1258 61.5409 69.7371 62.1416C69.712 62.1803 69.5956 62.1053 69.6207 62.0666C69.8401 61.7275 70.1228 61.333 70.4363 60.8486C70.7372 60.3836 70.9999 59.9351 71.2193 59.596C71.2381 59.5669 71.3545 59.6419 71.3357 59.671C70.9533 60.262 70.9848 60.447 71.5474 60.8095L73.507 62.0721L76.6244 62.0764C77.7521 62.0754 78.1377 61.9257 78.2693 61.7222C78.2944 61.6835 78.4108 61.7585 78.3857 61.7972C78.2603 61.991 78.0933 62.1854 77.9679 62.3791C77.6169 62.9217 77.1758 63.6671 76.9501 64.0159C76.9313 64.0449 76.8148 63.9699 76.8337 63.9409C77.0782 63.563 76.8213 63.3015 76.3216 63.309L73.3674 63.2862L74.3136 65.1589C74.7556 66.0477 75.329 66.2661 75.7177 65.6654C75.7428 65.6267 75.8592 65.7017 75.8341 65.7404C75.5708 66.1474 75.3536 66.4193 74.9587 67.0296C74.7518 67.3494 74.6868 67.5134 74.4988 67.8041Z" fill="#363636"/>
<path d="M60.4806 71.2181C60.4542 71.2405 60.3641 71.1353 60.3905 71.1129C60.6979 70.8508 61.108 70.5315 61.5296 70.1721C61.9687 69.7978 62.3225 69.4658 62.6298 69.2037C62.665 69.1738 62.755 69.279 62.7199 69.3089C62.1754 69.7731 62.1438 69.9669 62.6143 70.4453L65.8684 73.8733L64.0523 68.0972C64.0324 68.0384 64.1377 67.9485 64.1928 67.9774L70.0248 70.2995L67.3855 67.0752C66.8614 66.4453 66.259 66.2917 65.776 66.7035C65.7408 66.7335 65.6508 66.6283 65.6859 66.5983C65.9406 66.3812 66.219 66.1741 66.5527 65.8896C66.9303 65.5677 67.2139 65.2956 67.4686 65.0785C67.5037 65.0486 67.5938 65.1537 67.5587 65.1837C67.0844 65.588 67.1073 66.2357 67.6314 66.8656L70.6597 70.562L70.676 70.5633C71.2721 70.7981 71.6831 70.7814 72.008 70.5043C72.0431 70.4744 72.1332 70.5796 72.0981 70.6095C71.8522 70.8192 71.5386 71.0562 71.3542 71.2134C71.0556 71.468 70.8335 71.6876 70.7018 71.7999C70.5437 71.9347 70.4247 71.8845 69.9075 71.6885L64.9233 69.7354L66.5272 74.9798C66.5996 75.2062 66.5831 75.3113 66.4514 75.4236C66.3372 75.5209 66.1993 75.6082 66.0236 75.7579C65.646 76.0798 65.4327 76.292 65.1693 76.5166C65.1341 76.5466 65.0441 76.4414 65.0792 76.4114C65.6237 75.9473 65.6819 75.5185 65.2578 75.0764L61.6395 71.2764C61.1691 70.7979 61.0162 70.7614 60.4806 71.2181Z" fill="#363636"/>
<path d="M53.8121 74.3332C53.7504 74.3647 53.6872 74.2415 53.7489 74.21C54.1599 74 54.6435 73.8048 55.0545 73.5948C55.5273 73.3533 55.7939 73.1653 56.2153 72.95C56.2769 72.9185 56.3402 73.0417 56.2785 73.0732C55.7133 73.362 55.7309 73.5733 56.4124 74.0674L58.5611 75.6263L60.3904 74.6918L60.293 72.7071C60.2415 71.6967 59.5465 71.4038 58.7757 71.7975C58.7141 71.829 58.6509 71.7058 58.7125 71.6743C59.1236 71.4643 59.4221 71.3637 59.9463 71.0959C60.4806 70.8229 60.6959 70.6611 61.1584 70.4249C61.2098 70.3986 61.273 70.5218 61.2216 70.5481C60.6667 70.8316 60.552 71.24 60.6231 72.668L60.9058 78.7048C60.9166 78.7511 60.7677 78.8402 60.7208 78.7993L55.5599 75.0601C54.5764 74.3315 54.1512 74.1599 53.8121 74.3332ZM60.4043 75.0476L58.8525 75.8403L60.5069 77.0426L60.4043 75.0476Z" fill="#363636"/>
<path d="M46.9466 75.9533C46.9132 75.9623 46.8769 75.8286 46.9103 75.8196L48.8933 75.2835C49.2275 75.1931 50.517 76.2432 52.3685 78.0856C52.4546 78.0504 52.5326 78.0293 52.6217 78.0052C52.8334 77.948 53.0562 77.8878 53.2375 77.8507L52.5359 75.267C52.3605 74.621 52.227 74.5256 51.5363 74.7124C51.5029 74.7214 51.4666 74.5878 51.5 74.5787C51.8899 74.4733 52.3639 74.3691 52.932 74.2155C53.4667 74.0709 53.9508 73.9161 54.3407 73.8107C54.3853 73.7987 54.4216 73.9323 54.377 73.9444C53.6975 74.1281 53.6082 74.2837 53.7836 74.9296L55.1837 80.086C55.3561 80.7208 55.5037 80.8243 56.1833 80.6406C56.2167 80.6315 56.253 80.7652 56.2196 80.7742C55.8297 80.8796 55.3416 80.9757 54.8069 81.1203C54.3613 81.2408 53.8224 81.4582 53.3322 81.5907C51.962 81.9611 51.0401 81.6485 50.7982 80.7576C50.6077 80.056 50.9083 79.2694 51.4516 78.7161C48.987 76.4655 47.8378 75.7123 46.9466 75.9533ZM53.3252 78.1737C53.1156 78.1945 52.8452 78.2556 52.6669 78.3038C51.8871 78.5146 51.668 78.8966 51.9644 79.988C52.3212 81.3022 52.8454 81.4713 53.4358 81.3116C53.9483 81.1731 54.0691 80.9133 53.93 80.401L53.3252 78.1737Z" fill="#363636"/>
<path d="M45.5096 76.6638C45.4364 75.9985 45.3192 75.8836 44.608 75.9616C44.5621 75.9666 44.547 75.829 44.5929 75.8239C44.9944 75.7799 45.4787 75.75 46.0637 75.6859C46.6143 75.6255 47.128 75.546 47.5295 75.502C47.5639 75.4982 47.5791 75.6359 47.5447 75.6396C46.8449 75.7164 46.7211 75.8576 46.7944 76.5229L47.3792 81.8338C47.4512 82.4877 47.604 82.6102 48.3037 82.5335C48.3381 82.5297 48.3533 82.6674 48.3189 82.6712C47.9174 82.7152 47.3974 82.7374 46.8468 82.7977C46.2617 82.8619 45.7723 82.9504 45.3822 82.9931C45.3364 82.9981 45.3212 82.8605 45.3671 82.8555C46.0668 82.7788 46.1639 82.6056 46.0919 81.9518L45.5096 76.6638Z" fill="#363636"/>
<path d="M36.4062 75.7204C36.337 75.717 36.3438 75.5787 36.413 75.5821C36.874 75.6047 37.3905 75.6762 37.8515 75.6988C38.3817 75.7248 38.7067 75.6945 39.1793 75.7176C39.2484 75.721 39.2416 75.8593 39.1725 75.8559C38.5385 75.8249 38.4482 76.0169 38.7917 76.7847L39.8742 79.2062L41.9259 79.3067L42.8333 77.5372C43.2936 76.6355 42.8378 76.0354 41.9733 75.9931C41.9042 75.9897 41.911 75.8514 41.9801 75.8548C42.4412 75.8774 42.7501 75.9387 43.338 75.9675C43.9373 75.9969 44.2047 75.9637 44.7234 75.9891C44.781 75.992 44.7742 76.1303 44.7166 76.1275C44.0942 76.097 43.7907 76.3941 43.1388 77.6677L40.3672 83.0431C40.3534 83.0887 40.1799 83.0917 40.1597 83.033L37.5571 77.221C37.0692 76.0995 36.7866 75.7391 36.4062 75.7204ZM41.7602 79.6221L40.0197 79.5369L40.8522 81.4032L41.7602 79.6221Z" fill="#363636"/>
<path d="M27.7002 80.4891C27.6668 80.4801 27.703 80.3464 27.7364 80.3554C28.3269 80.5147 28.8304 80.1127 29.0447 79.3219L30.59 73.619C30.602 73.5745 30.7053 73.5904 30.7216 73.6187L34.3353 80.9764L35.5094 76.6436C35.7237 75.8528 35.5111 75.2695 34.9317 75.1132C34.8983 75.1042 34.9345 74.9705 34.9679 74.9795C35.291 75.0667 35.6304 75.1821 36.0426 75.2934C36.4883 75.4136 36.9288 75.5086 37.2854 75.6048C37.3299 75.6168 37.2937 75.7504 37.2491 75.7384C36.6029 75.5641 36.0579 75.9429 35.8436 76.7338L34.567 81.4453C34.9204 82.1263 35.1901 82.3664 35.5467 82.4626C35.5801 82.4716 35.5439 82.6053 35.5105 82.5963C35.2208 82.5181 34.8926 82.4057 34.6252 82.3335C34.0904 82.1892 33.6275 82.0883 33.3936 82.0251C33.2041 81.974 33.2353 81.8151 32.9934 81.2956L30.3426 75.8114L29.3678 79.4091C29.1535 80.1999 29.3631 80.7943 29.9424 80.9506C29.9759 80.9596 29.9397 81.0933 29.9062 81.0843C29.5831 80.9971 29.2468 80.8705 28.8345 80.7593C28.4335 80.651 28.0233 80.5762 27.7002 80.4891Z" fill="#363636"/>
<path d="M26.8677 71.7513C28.8273 72.7853 29.3034 74.9676 28.3523 76.7622C27.1797 78.9749 24.6623 79.0427 23.0089 78.1702C20.9983 77.1093 20.6267 74.8777 21.4967 73.2361C22.5018 71.3395 24.9285 70.728 26.8677 71.7513ZM26.3958 71.8285C25.2629 71.2307 23.8706 71.7878 22.9088 73.6028C21.9199 75.4688 22.0832 77.3294 23.5631 78.1103C24.8082 78.7674 26.0216 78.1289 26.897 76.477C27.9561 74.4785 27.7328 72.534 26.3958 71.8285Z" fill="#363636"/>
<path d="M14.4496 65.7636C15.1932 66.6458 15.1176 67.9606 14.2203 68.7138C13.3638 69.4327 12.0119 69.3161 11.2683 68.434C10.5361 67.5654 10.6639 66.2299 11.5204 65.511C12.4177 64.7578 13.7174 64.8951 14.4496 65.7636Z" fill="#363636"/>
</g>
<defs>
<clipPath id="clip0_275_722">
<rect width="85" height="85" fill="white"/>
</clipPath>
</defs>
</svg>
