<svg width="92" height="92" viewBox="0 0 92 92" fill="none" xmlns="http://www.w3.org/2000/svg">
<path d="M47.8069 30.9337C48.5344 30.844 49.1569 30.9298 49.4739 30.9376C49.9018 30.9481 50.3799 31.0778 50.6458 31.1329C50.9148 31.1886 51.1752 31.2432 51.4993 31.295C51.9137 31.3612 52.456 31.5279 52.7737 31.629C53.0685 31.7228 53.3843 31.8115 53.8909 31.9903C54.281 32.128 54.6823 32.3428 54.9866 32.5479C55.2235 32.7076 55.6037 32.9668 55.9524 33.171C56.4232 33.4466 56.7437 33.7772 56.9504 33.9542C57.4314 34.3659 57.884 35.0256 58.0901 35.3243C58.1853 35.4623 58.2629 35.6068 58.3294 35.7345C58.4004 35.8709 58.4541 35.979 58.5169 36.0899C58.6684 36.3579 58.8532 36.7238 58.9797 37.0567C59.1061 37.3889 59.2022 37.7766 59.2776 38.1612C59.333 38.4437 59.3886 38.6662 59.5071 38.9034C59.6911 39.272 59.7393 39.6457 59.7688 40.003C59.7958 40.3294 59.8438 40.6033 59.8889 40.9669C59.9296 41.2949 59.9895 42.0512 59.9602 42.5977C59.949 42.8073 59.8741 43.04 59.8118 43.2218C59.7395 43.4322 59.6688 43.6139 59.6067 43.8165C59.5067 44.1425 59.478 44.4658 59.4319 44.8272C59.3886 45.1663 59.3321 45.4711 59.2219 45.8819C59.1233 46.2498 58.9637 46.6179 58.7737 47.0343C58.622 47.3668 58.3388 47.8734 58.0872 48.2354C57.9134 48.4854 57.7144 48.735 57.5588 48.9317C57.3561 49.1881 57.0713 49.5298 56.4895 49.7999C56.1421 49.961 55.8691 50.1381 55.6292 50.3018C55.3507 50.4919 55.1125 50.6711 54.843 50.8985C54.6229 51.0843 54.3652 51.1509 54.1897 51.1866C54.1052 51.2038 54.0055 51.2191 53.9465 51.2296C53.8756 51.2422 53.8305 51.2526 53.7991 51.2628C53.7258 51.2865 53.6446 51.3271 53.5198 51.3975C53.404 51.4629 53.2435 51.5582 53.0618 51.6495L53.0335 51.6641L53.0022 51.6749C52.6786 51.7877 52.3934 51.8714 52.1106 51.962L52.0911 51.9688L52.0706 51.9727C51.965 51.9973 51.8633 52.0034 51.721 52.0079C51.6791 52.0553 51.6343 52.1045 51.5881 52.1505C51.4724 52.2659 51.322 52.4005 51.1516 52.5284C50.8088 52.7856 50.5522 52.9802 50.2883 53.2012C49.6119 53.768 49.2489 54.3203 48.9046 54.712C48.7552 54.8818 48.5654 55.0264 48.3801 55.1563C48.2851 55.223 48.1814 55.2921 48.0774 55.3624C47.9719 55.4337 47.8621 55.5079 47.7473 55.5889C47.5005 55.7633 47.2243 55.9785 46.9876 56.1788C46.7397 56.3885 46.5701 56.5527 46.509 56.6319C46.3 56.9033 45.9729 57.4899 45.7307 57.9669C45.3419 58.733 44.8238 59.1345 44.4768 59.4239C44.3216 59.5534 44.1725 59.7047 44.01 59.8692C43.8671 60.0139 43.704 60.1771 43.5383 60.3106C43.3761 60.4815 43.223 60.6534 43.1106 60.7618L43.1067 60.7657C43.047 60.8219 42.9885 60.8739 42.9338 60.9229C42.7283 61.1073 42.4122 61.0904 42.2278 60.8848C42.0437 60.6793 42.0604 60.3631 42.2659 60.1788C42.3221 60.1284 42.3716 60.0838 42.4212 60.0372C42.52 59.9413 42.6254 59.8196 42.8352 59.5997L42.8616 59.5723L42.8909 59.5499C43.0068 59.4599 43.1346 59.3327 43.2991 59.1661C43.454 59.0093 43.6371 58.8214 43.8362 58.6553C44.1928 58.3579 44.5548 58.0747 44.8391 57.5147C45.0797 57.0408 45.444 56.376 45.7171 56.0216C45.8503 55.8488 46.0948 55.6235 46.3411 55.4151C46.5989 55.197 46.8984 54.9646 47.1702 54.7725C47.2938 54.6852 47.4107 54.606 47.5169 54.5343C47.6246 54.4614 47.7189 54.3974 47.8049 54.337C47.9817 54.213 48.0882 54.1262 48.1536 54.0518C48.4006 53.7709 48.8942 53.0651 49.6467 52.4346C49.8518 52.2629 50.0515 52.1074 50.2737 51.9386C49.8713 51.9331 49.449 51.9287 49.0481 51.922C48.3118 51.9095 48.0165 51.8436 47.718 51.795C47.2374 51.7169 46.7406 51.7541 46.4475 51.8057C46.3104 51.8299 46.2256 51.8446 46.1575 51.8643C46.1395 51.8696 46.127 51.874 46.1194 51.877C46.0364 51.9661 45.9275 52.1075 45.7893 52.294C45.6519 52.4795 45.4905 52.7017 45.3303 52.8946C45.1167 53.1519 44.8575 53.3907 44.634 53.5919C44.3962 53.8059 44.2115 53.9665 44.0872 54.1046C43.5647 54.6854 43.2055 55.0071 42.9544 55.2452C42.4726 55.7019 42.0772 56.0885 41.6223 56.5069C41.3562 56.7517 41.0856 57.0041 40.7805 57.1973C40.4949 57.3782 40.0551 57.6136 39.7219 57.7843C39.5285 57.8834 39.361 58.0298 39.1008 58.2403C38.8962 58.4059 38.655 58.5965 38.4202 58.7813C38.2123 58.945 38.009 59.1044 37.8362 59.2432C37.7754 59.3436 37.7234 59.4339 37.678 59.5167C37.6269 59.6099 37.5699 59.7159 37.5178 59.7989L37.509 59.8136L37.4993 59.8272C37.4308 59.9214 37.3451 60.0069 37.1965 60.1661C37.0082 60.3673 36.6922 60.3784 36.4905 60.1905C36.2887 60.0022 36.278 59.6854 36.4661 59.4835C36.5552 59.388 36.6044 59.3368 36.6419 59.296C36.6646 59.2712 36.6751 59.2566 36.6819 59.2481C36.7109 59.1998 36.7458 59.136 36.801 59.0352C36.8598 58.9281 36.9334 58.7963 37.0276 58.6456L37.0725 58.5743L37.137 58.5225C37.3301 58.3662 37.5663 58.18 37.801 57.9952C38.0372 57.8092 38.2735 57.6235 38.4719 57.463C38.6834 57.2918 38.9545 57.0541 39.2659 56.8946C39.5957 56.7257 40.0008 56.5065 40.2454 56.3516C40.4594 56.2161 40.661 56.0323 40.9456 55.7706C41.3939 55.3582 41.7687 54.9899 42.2659 54.5186C42.5281 54.27 42.8544 53.9809 43.344 53.4366C43.514 53.2476 43.7561 53.0368 43.9651 52.8487C44.1887 52.6475 44.3984 52.4515 44.5608 52.2559C44.6987 52.0898 44.8393 51.8959 44.9856 51.6983C45.0446 51.6186 45.1065 51.5347 45.1692 51.4542C45.1111 51.4228 45.0515 51.393 44.9954 51.3585C44.7256 51.1927 44.4026 50.9983 44.1126 50.8145C43.8467 50.6461 43.5312 50.4729 42.9934 50.2032L42.9797 50.1964L42.9671 50.1886C42.7472 50.0609 42.587 49.952 42.4485 49.8428L42.4417 49.838L42.4358 49.8331C42.3722 49.7796 42.3063 49.7177 42.2268 49.6427C42.1426 49.7735 42.0521 49.8882 41.9895 49.9669C41.6781 50.3587 41.2688 50.8102 40.7405 51.4044C40.4918 51.684 40.1114 52.1087 39.6975 52.5137C39.5593 52.649 39.4106 52.7811 39.262 52.9141C39.1112 53.0491 38.9555 53.1894 38.7883 53.3497C38.6713 53.4618 38.4193 53.6957 38.137 53.9591C37.8519 54.225 37.531 54.5258 37.2688 54.7764C36.7222 55.2988 36.3788 55.6041 35.551 56.3585C34.9138 56.9392 33.9245 57.5573 33.5559 57.8126C33.4423 57.8913 33.3307 58.0127 33.2073 58.1739C33.1104 58.3004 32.9462 58.5383 32.8284 58.6788L32.8079 58.7022L32.7854 58.7237C32.6502 58.8492 32.5068 58.9857 32.3674 59.1182C32.2319 59.2472 32.0981 59.3738 31.9837 59.4805C31.9431 59.5206 31.9147 59.5525 31.886 59.5919C31.7235 59.8148 31.4109 59.8645 31.1878 59.7022C30.9647 59.5398 30.9153 59.2272 31.0774 59.004C31.1489 58.9058 31.2183 58.8308 31.2854 58.7647L31.2952 58.755H31.2962C31.4072 58.6515 31.5381 58.5267 31.678 58.3936C31.8068 58.2711 31.9426 58.1415 32.0735 58.0196C32.1782 57.8924 32.2507 57.7778 32.4133 57.5655C32.5559 57.3794 32.7434 57.1589 32.9866 56.9903C33.4276 56.6849 34.3057 56.14 34.8772 55.6192C35.7121 54.8583 36.0419 54.5646 36.5774 54.0528C36.8445 53.7975 37.1704 53.4934 37.4553 53.2276C37.7425 52.9598 37.9854 52.734 38.096 52.628C38.2772 52.4543 38.4457 52.3034 38.596 52.169C38.7482 52.0328 38.8791 51.9156 38.9983 51.7989C39.3854 51.4201 39.7458 51.0178 39.9934 50.7393C40.5351 50.1301 40.9172 49.7085 41.2063 49.3448C41.3103 49.2139 41.3884 49.1126 41.4348 49.0196C41.4479 48.9934 41.452 48.9742 41.4553 48.963C41.4424 48.9372 41.424 48.9003 41.3909 48.8487C41.3695 48.8154 41.3459 48.7803 41.3186 48.7393C41.2921 48.6996 41.2628 48.6545 41.2327 48.6075C41.0564 48.3322 40.8977 48.1054 40.6653 47.7647C40.4633 47.4686 40.2571 47.1982 40.0647 46.7989C39.9725 46.6076 39.9011 46.4315 39.8391 46.2843C39.8033 46.1991 39.7692 46.1211 39.7337 46.046C39.681 46.1591 39.6264 46.268 39.5686 46.3682C39.4595 46.5574 39.2973 46.7363 39.1087 46.9561C38.9049 47.1936 38.6117 47.54 38.179 48.1134C37.6682 48.79 37.2997 49.1586 36.9631 49.5186C36.7523 49.7441 36.4668 49.9485 36.2258 50.1114C35.9582 50.2924 35.7593 50.4139 35.6204 50.5206C35.4213 50.6734 35.2453 50.8303 35.0188 51.0177C34.8025 51.1965 34.5601 51.3857 34.2776 51.5557C34.0569 51.6886 33.8723 51.8869 33.6506 52.1563C33.4766 52.3679 33.2491 52.5392 33.0706 52.668C32.8675 52.8146 32.7353 52.9028 32.6419 52.9903C32.5323 53.0932 32.4556 53.2078 32.3753 53.3546C32.3057 53.4817 32.1978 53.7078 32.0735 53.8946L32.0569 53.919L32.0383 53.9415C31.8039 54.2167 31.5794 54.4149 31.3928 54.5616C31.3398 54.6056 31.2469 54.6869 31.1546 54.7589C30.9369 54.9284 30.6222 54.8893 30.4524 54.672C30.2827 54.4542 30.3216 54.1395 30.5393 53.9698C30.6329 53.8969 30.663 53.8665 30.7669 53.7813L30.7747 53.7755C30.9153 53.6649 31.0798 53.5184 31.2542 53.3175C31.3387 53.1864 31.3899 53.0732 31.4983 52.8751C31.6021 52.6855 31.7381 52.4676 31.9573 52.2618C32.1128 52.1159 32.3336 51.9672 32.4856 51.8575C32.6625 51.7298 32.7942 51.6236 32.8782 51.5216C33.1064 51.2441 33.3829 50.9274 33.762 50.6993C33.9818 50.567 34.1801 50.4142 34.3821 50.2471C34.574 50.0885 34.7952 49.894 35.012 49.7276C35.1813 49.5977 35.4549 49.4262 35.6663 49.2833C35.9044 49.1223 36.1058 48.9708 36.2327 48.835C36.5809 48.4626 36.9089 48.1364 37.3811 47.5108C37.8295 46.9168 38.1362 46.5537 38.3499 46.3048C38.5783 46.0386 38.6531 45.9537 38.7024 45.8682C38.8668 45.5831 38.9518 45.3583 38.9602 45.1856C38.9818 44.7411 38.9839 44.1248 38.9192 43.6212C38.8928 43.4155 38.8734 43.2239 38.8557 43.0548C38.8377 42.8828 38.8216 42.7364 38.802 42.6055C38.7489 42.2511 38.6942 41.6416 38.7327 41.1602C38.4746 41.4854 38.1905 41.7838 37.9133 42.0313C37.1468 42.7159 36.7628 43.056 36.5413 43.3507C36.16 43.8578 35.5676 44.4574 35.2004 44.7286C34.9235 44.9331 34.3932 45.3572 34.009 45.6876C33.9324 45.7535 33.8487 45.8528 33.7444 45.9903C33.6532 46.1104 33.5275 46.2876 33.4133 46.4268C33.1992 46.688 32.9187 46.8875 32.6926 47.0362C32.4327 47.2072 32.2767 47.2949 32.1682 47.3868C32.0807 47.4609 31.9871 47.5546 31.8587 47.6807C31.7424 47.7949 31.6037 47.926 31.4495 48.0528C31.2121 48.2673 31.101 48.3923 31.0227 48.4874L31.0169 48.4952L30.8587 48.6534C30.7955 48.7101 30.715 48.777 30.6038 48.8634C30.3859 49.0324 30.072 48.9921 29.9026 48.7745C29.7332 48.5564 29.7724 48.2427 29.9905 48.0733C30.1869 47.9207 30.2355 47.8689 30.2649 47.836C30.3772 47.7011 30.522 47.5444 30.7796 47.3116L30.7893 47.3028L30.8001 47.294C30.9231 47.1943 31.0384 47.0838 31.1575 46.9669C31.2695 46.8569 31.3983 46.7277 31.5217 46.6231C31.6916 46.4794 31.9633 46.3183 32.1428 46.2003C32.3561 46.06 32.5277 45.9298 32.6399 45.793C32.7404 45.6705 32.8235 45.5492 32.9475 45.3858C33.0585 45.2396 33.1961 45.0687 33.3577 44.9298C33.7564 44.5869 34.306 44.147 34.6067 43.9249C34.8794 43.7234 35.4046 43.198 35.7415 42.7501C36.0388 42.3545 36.5258 41.9296 37.2473 41.2852C37.7234 40.86 38.2013 40.286 38.4671 39.7354C38.7055 39.2413 38.8435 38.9111 38.9817 38.5596C39.3102 37.7243 39.6769 36.8735 39.9524 36.2774C40.3742 35.3646 40.5654 34.9508 40.8284 34.6124C41.0781 34.2911 41.3807 33.848 41.9055 33.4825C42.4976 33.0702 42.8036 32.8648 42.9026 32.793C42.934 32.7703 42.967 32.7518 43.0012 32.7374C43.1336 32.6442 43.3609 32.4909 43.593 32.3751C43.9761 32.184 44.3871 32.0596 44.7463 31.9161C45.0946 31.777 45.4045 31.6819 45.6223 31.6046C45.9093 31.5026 46.214 31.3653 46.551 31.2266C46.9775 31.0512 47.4165 30.9819 47.8069 30.9337ZM49.4495 31.9366C48.986 31.9253 48.5618 31.8487 47.929 31.9268C47.5548 31.973 47.2273 32.0296 46.9309 32.1514C46.6335 32.2738 46.2738 32.4332 45.9563 32.546C45.6855 32.6421 45.4448 32.7141 45.1174 32.8448C44.6318 33.0387 44.3829 33.0982 44.0393 33.2696C43.8211 33.3785 43.5868 33.5456 43.5022 33.6075C43.4718 33.6297 43.4386 33.6458 43.4055 33.6602C43.2483 33.7691 42.9371 33.9823 42.4768 34.3028C42.1061 34.561 41.907 34.8544 41.6184 35.2257C41.4429 35.4514 41.3043 35.7352 40.8596 36.6973C40.5926 37.2752 40.234 38.1079 39.9124 38.9259C39.8128 39.179 39.7106 39.4238 39.5764 39.7208C39.7022 39.8085 39.7877 39.9512 39.7922 40.1163C39.7975 40.3096 39.7879 40.8108 39.7424 41.1241C39.6915 41.4759 39.7355 42.0848 39.7913 42.4571C39.8147 42.6135 39.8321 42.7818 39.8499 42.9512C39.8679 43.1239 39.8867 43.3025 39.9114 43.4942C39.9573 43.8514 39.9707 44.2436 39.971 44.6016C40.1014 44.7483 40.3464 45.0776 40.5188 45.3858C40.6199 45.5665 40.6944 45.7382 40.761 45.8966C40.8292 46.0587 40.887 46.2033 40.9651 46.3653C41.1155 46.6775 41.2598 46.863 41.4905 47.2012C41.7148 47.5301 41.8878 47.7769 42.0745 48.0684C42.0992 48.1071 42.125 48.1446 42.1516 48.1846C42.1774 48.2234 42.205 48.2661 42.2317 48.3077C42.2837 48.3886 42.345 48.4897 42.3909 48.5997C42.4117 48.6497 42.4266 48.6994 42.4378 48.7481C42.5893 48.721 42.7513 48.7629 42.8713 48.877C42.9671 48.9681 43.0251 49.0213 43.0725 49.0616C43.1642 49.1335 43.2811 49.2139 43.4641 49.3204C44 49.5896 44.3445 49.7776 44.6477 49.9698C44.9304 50.1489 45.2372 50.3333 45.5198 50.5069C45.7513 50.649 46.0346 50.7625 46.2092 50.8311C46.2317 50.8272 46.2534 50.824 46.2737 50.8204C46.6485 50.7544 47.2623 50.7073 47.8792 50.8077C48.1751 50.8559 48.408 50.9109 49.0657 50.922C50.0326 50.9382 51.1046 50.9509 51.7561 50.961C51.8016 50.9617 51.8452 50.9705 51.887 50.9825C52.1505 50.899 52.3734 50.8324 52.6399 50.7403C52.7801 50.6685 52.8951 50.6017 53.0286 50.5264C53.1613 50.4516 53.3164 50.3683 53.4915 50.3116C53.5908 50.2795 53.6911 50.2594 53.7708 50.2452C53.8624 50.2289 53.9205 50.2205 53.9915 50.2061C54.1264 50.1787 54.1764 50.1525 54.1975 50.1348C54.4957 49.8831 54.7623 49.6837 55.0657 49.4766C55.3204 49.3028 55.6465 49.0885 56.0686 48.8927C56.4427 48.719 56.6111 48.5185 56.7747 48.3116C56.9358 48.1077 57.1133 47.8845 57.2659 47.6651C57.4821 47.354 57.7357 46.8994 57.8635 46.6192C58.0546 46.2005 58.1815 45.9013 58.2561 45.6231C58.3541 45.2577 58.4018 44.9968 58.4397 44.7003C58.4797 44.3869 58.519 43.953 58.6506 43.5235C58.7186 43.302 58.8079 43.0643 58.8655 42.8966C58.9327 42.7006 58.9584 42.5953 58.9612 42.545C58.9861 42.081 58.9338 41.3887 58.8967 41.0899C58.8588 40.7846 58.8016 40.4353 58.7727 40.085C58.745 39.7494 58.7064 39.5377 58.6126 39.3497C58.4335 38.991 58.3569 38.6637 58.2962 38.3536C58.2258 37.9946 58.1428 37.669 58.0452 37.4122C57.9427 37.1426 57.7827 36.8243 57.6458 36.5821C57.5718 36.4512 57.5003 36.3072 57.4426 36.1964C57.3804 36.0767 57.3254 35.9775 57.2669 35.8927C57.0433 35.5687 56.6637 35.0253 56.3001 34.7139C56.009 34.4648 55.8155 34.2497 55.4475 34.0343C55.0654 33.8105 54.6558 33.5306 54.428 33.377C54.1823 33.2114 53.8559 33.0389 53.5579 32.9337C53.0699 32.7615 52.797 32.6862 52.47 32.5821C52.1421 32.4777 51.6697 32.3348 51.3411 32.2823C50.9914 32.2265 50.7098 32.1677 50.4426 32.1124C50.0759 32.0364 49.7575 31.9442 49.4495 31.9366ZM49.095 34.9805C49.9118 34.9832 50.2803 35.0221 51.1253 35.1964C51.5013 35.2739 52.1108 35.348 52.6799 35.6104C52.9572 35.7383 53.3372 35.8894 53.637 36.1124C53.6814 36.1455 53.736 36.1803 53.8147 36.2315C53.8881 36.2793 53.9787 36.3378 54.0696 36.4053C54.2517 36.5407 54.4639 36.73 54.6165 37.003C54.7223 37.1925 54.8381 37.3694 54.9583 37.5509C55.0742 37.7259 55.2002 37.9158 55.302 38.1036C55.4703 38.4142 55.6101 38.7778 55.7112 39.168C55.8022 39.5194 55.8474 39.8431 55.8782 40.1759C55.9026 40.4398 55.9899 41.169 55.8782 41.7325C55.8423 41.9135 55.82 42.0783 55.7971 42.255C55.7746 42.429 55.7513 42.6196 55.7131 42.8282C55.628 43.2932 55.5247 43.7348 55.4133 44.0577C55.2516 44.5264 55.0911 44.9306 55.0676 44.9952C55.035 45.085 54.9781 45.1585 54.9085 45.2139C54.8838 45.3203 54.8268 45.4202 54.7346 45.4932C54.5821 45.6139 54.5479 45.6469 54.4797 45.7032L54.47 45.711C54.3791 45.7821 54.3039 45.8471 54.2366 45.918C54.1941 45.9698 54.1517 46.0252 54.1038 46.086C54.0529 46.1505 53.9964 46.2217 53.9378 46.2911C53.823 46.4269 53.677 46.5829 53.4973 46.7032C53.1812 46.9147 52.8261 47.0526 52.5247 47.1378C52.1064 47.256 51.648 47.3565 51.3157 47.4063C51.2362 47.4183 51.1602 47.4513 50.968 47.5421C50.7871 47.6275 50.5473 47.7398 50.2151 47.8262C49.7948 47.9356 49.2732 47.9849 48.718 47.9053C48.1414 47.8227 47.2982 47.6041 46.8801 47.5108C46.2066 47.3604 45.5346 47.026 45.0833 46.6739C44.7568 46.4192 44.3411 46.0389 44.1126 45.6563C44.0284 45.5154 43.9265 45.368 43.7922 45.1612C43.6646 44.9646 43.5219 44.7355 43.3889 44.4747C43.2075 44.1188 43.1138 43.7974 43.012 43.5089C42.8732 43.1158 42.7728 42.7839 42.7004 42.5284C42.6052 42.192 42.4331 41.482 42.6135 40.8214C42.6953 40.5222 42.8064 40.2342 42.8889 40.0069C42.9789 39.7592 43.0306 39.5948 43.0432 39.4757C43.0748 39.1774 43.1029 38.9073 43.1477 38.6788C43.1931 38.4471 43.2622 38.2189 43.3928 38.0128C43.6077 37.6739 43.9859 37.2726 44.4329 36.9571C44.9006 36.6269 45.6914 36.0202 46.4827 35.7618C46.7136 35.6864 46.9302 35.6406 47.0872 35.6036C47.2569 35.5636 47.3571 35.5337 47.4338 35.4942C47.4982 35.461 47.5555 35.4249 47.6565 35.3653C47.7493 35.3106 47.8632 35.2456 47.9993 35.1866C48.2806 35.0646 48.6254 34.9791 49.095 34.9805ZM49.0921 35.9805C48.7561 35.9795 48.5477 36.0391 48.3967 36.1046C48.3169 36.1392 48.244 36.1796 48.1643 36.2266C48.0928 36.2689 47.9907 36.3324 47.8928 36.3829C47.6961 36.4843 47.4883 36.5368 47.3167 36.5772C47.132 36.6207 46.9726 36.6535 46.7932 36.712C46.1832 36.9112 45.5455 37.3954 45.01 37.7735C44.6569 38.0228 44.3743 38.3323 44.2376 38.5479C44.2009 38.6058 44.1632 38.6978 44.1292 38.8712C44.0945 39.048 44.0703 39.2708 44.0374 39.5811C44.0099 39.8399 43.9139 40.115 43.8294 40.3477C43.7374 40.6009 43.6463 40.8364 43.5784 41.085C43.4764 41.4585 43.5708 41.9327 43.6624 42.2559C43.7305 42.4965 43.8243 42.8074 43.9544 43.1759C44.0772 43.5237 44.1377 43.7423 44.2796 44.0206C44.3897 44.2365 44.5114 44.4319 44.6311 44.6163C44.7442 44.7905 44.8743 44.9818 44.971 45.1436C45.1019 45.3628 45.3976 45.651 45.6985 45.8858C46.0346 46.1479 46.572 46.4166 47.0989 46.5343C47.5834 46.6424 48.3335 46.8397 48.8596 46.9151C49.2737 46.9745 49.6613 46.937 49.9631 46.8585C50.2011 46.7965 50.3719 46.7177 50.5413 46.6378C50.6992 46.5632 50.9144 46.456 51.1672 46.418C51.4508 46.3755 51.8678 46.2848 52.2532 46.1759C52.4887 46.1093 52.7386 46.0081 52.9417 45.8721C53.0048 45.8298 53.0789 45.7582 53.1741 45.6456C53.2204 45.5908 53.2675 45.5318 53.3186 45.4669C53.3681 45.4041 53.4228 45.3333 53.4788 45.2657L53.4885 45.254L53.4993 45.2432C53.6152 45.1193 53.7347 45.0161 53.8538 44.9229C53.8947 44.8885 53.9668 44.8252 54.1135 44.7091C54.1178 44.6911 54.1208 44.6722 54.1272 44.6544C54.1719 44.531 54.3041 44.2065 54.468 43.7315C54.5553 43.4785 54.6472 43.0935 54.7288 42.6475C54.7612 42.47 54.7816 42.3078 54.8049 42.127C54.828 41.9487 54.8547 41.7548 54.8977 41.5382C54.9744 41.1513 54.9134 40.596 54.8831 40.2677C54.8554 39.9691 54.8158 39.7023 54.7424 39.419C54.6584 39.0946 54.5469 38.8086 54.4231 38.5802C54.3466 38.4391 54.2472 38.2892 54.1243 38.1036C54.0058 37.9246 53.8701 37.7181 53.7434 37.4913C53.6876 37.3915 53.5989 37.3017 53.4729 37.2081C53.4098 37.1612 53.3437 37.1175 53.2698 37.0694C53.2011 37.0247 53.1157 36.9702 53.0403 36.9141C52.8501 36.7726 52.6203 36.6829 52.262 36.5177C51.8306 36.3187 51.4105 36.2764 50.9231 36.1759C50.1402 36.0144 49.8386 35.983 49.0921 35.9805Z" fill="black"/>
<path d="M12.333 59.9621C12.5296 59.9764 12.708 60.0104 12.8145 60.0344C13.0345 60.0841 13.2685 60.1765 13.5293 60.3059C13.843 60.4616 13.9985 60.7558 14.0674 60.926C14.1606 61.1566 14.1303 61.3636 14.0898 61.5031C14.0714 61.5666 14.0482 61.6246 14.0361 61.6555C14.0233 61.6882 14.0201 61.6987 14.0195 61.7004C13.9689 61.8959 13.8293 62.0571 13.7578 62.1379C13.6703 62.2368 13.5594 62.3473 13.4805 62.4279L13.4736 62.4338L13.4678 62.4397C13.4305 62.4751 13.3734 62.5242 13.3652 62.5315C13.3569 62.539 13.3514 62.5443 13.3477 62.5481C13.3442 62.5516 13.341 62.5558 13.3379 62.5598C13.1652 62.775 12.8501 62.8095 12.6348 62.6369C12.4194 62.4642 12.3849 62.1492 12.5576 61.9338C12.6078 61.8713 12.6563 61.8242 12.6973 61.7873C12.7472 61.7424 12.749 61.743 12.7783 61.7151C12.8723 61.6193 12.9464 61.5463 13.0088 61.4758C13.0395 61.4411 13.0583 61.417 13.0674 61.4035C13.0822 61.3561 13.0956 61.3139 13.1045 61.2912C13.1099 61.2774 13.1129 61.2658 13.1162 61.257C13.1081 61.2419 13.1029 61.2268 13.0947 61.216C13.079 61.1954 13.0736 61.1967 13.085 61.2024C12.8624 61.092 12.708 61.0356 12.5947 61.01C12.5165 60.9923 12.3904 60.9686 12.2607 60.9592C12.1207 60.9491 12.0278 60.9605 11.9863 60.9748C11.8039 61.039 11.6685 61.0945 11.5449 61.1457C11.424 61.1959 11.2972 61.2488 11.1562 61.2922C10.8302 61.3925 10.6802 61.3983 10.1416 61.591C9.84159 61.6984 9.64941 61.7606 9.53711 61.8225C9.27838 61.9653 8.98225 62.0896 8.41602 62.2707C8.00483 62.4023 7.29874 62.6165 6.89453 62.7492C6.25156 62.9605 6.12578 62.9855 5.92676 63.0695C5.79701 63.1244 5.65606 63.1974 5.47754 63.2893C5.30452 63.3783 5.10366 63.4812 4.87891 63.5803C4.80436 63.6132 4.74095 63.6433 4.6875 63.6682C4.72106 63.7675 4.74926 63.8568 4.76758 63.926C4.82268 64.1344 4.85539 64.2559 4.89844 64.384L4.90039 64.3908L4.90332 64.3977C4.91952 64.4509 4.935 64.5094 4.94824 64.5647C4.96298 64.6261 4.97404 64.6833 4.99902 64.8205C5.04835 65.092 4.86805 65.3529 4.59668 65.4026C4.32524 65.4518 4.06528 65.2715 4.01562 65.0002C3.99154 64.8679 3.98374 64.8321 3.97559 64.7981C3.96737 64.7638 3.9582 64.7308 3.9502 64.7033L3.875 64.4563C3.85128 64.372 3.82746 64.2828 3.80078 64.1819C3.74566 63.9735 3.57517 63.5158 3.46289 63.3225C3.2792 63.0068 3.14142 62.7852 3.09473 62.7151C2.94162 62.4853 3.00367 62.1748 3.2334 62.0217C3.46314 61.8688 3.77368 61.9307 3.92676 62.1604C3.98596 62.2492 4.11837 62.4648 4.28613 62.7512C4.34134 62.7256 4.40564 62.6957 4.47461 62.6653C4.66873 62.5796 4.84558 62.4892 5.01953 62.3996C5.18792 62.3129 5.3662 62.2213 5.53809 62.1487C5.78607 62.0439 6.02044 61.9845 6.58203 61.8C6.98135 61.6688 7.73458 61.4391 8.11133 61.3186C8.64795 61.1469 8.8754 61.045 9.05371 60.9465C9.25894 60.8334 9.57634 60.7314 9.80469 60.6496C10.3311 60.4613 10.7035 60.3859 10.8623 60.3371C10.9503 60.31 11.0337 60.2761 11.1621 60.2229C11.288 60.1706 11.4445 60.1053 11.6543 60.0315C11.8902 59.9486 12.1474 59.9487 12.333 59.9621Z" fill="black"/>
<path d="M7.20264 53.8039C7.32933 53.5985 7.58112 53.5174 7.79932 53.5968L7.89111 53.6408L8.00146 53.7218C8.04028 53.7534 8.08033 53.7887 8.11865 53.8234C8.20591 53.9025 8.31725 54.0104 8.44971 54.1476C8.74435 54.4529 8.99142 54.9551 9.19678 55.3654C9.62871 56.2285 9.64719 56.6752 9.70752 56.9279L9.76221 57.1623C9.77524 57.229 9.78622 57.3154 9.79346 57.3605C9.81033 57.4659 9.79194 57.5682 9.74854 57.6574C9.73462 57.7087 9.71438 57.7592 9.68311 57.8058C9.56692 57.9787 9.36165 58.0554 9.16943 58.0168C9.15706 58.0165 9.13769 58.0161 9.10986 58.0168C9.01886 58.0191 8.86986 58.0286 8.646 58.049C8.38956 58.0723 8.02303 58.1396 7.74951 58.1935C7.39341 58.2637 6.98102 58.431 6.42236 58.6613C6.15689 58.7707 6.0033 58.8394 5.84521 58.9054C5.69968 58.9662 5.5698 59.0161 5.42529 59.0529C5.34858 59.0724 5.1023 59.1406 4.71729 59.2658C4.13305 59.4558 3.77432 59.5964 3.41846 59.7785C3.30442 59.8368 3.20944 59.8755 3.17334 59.8918C3.17251 59.8921 3.11263 59.9214 3.04346 59.9377C2.95505 59.9583 2.83312 59.9647 2.70361 59.9123C2.58612 59.8646 2.50928 59.7868 2.46338 59.7306C2.41722 59.6741 2.38171 59.6139 2.35498 59.5617C2.2561 59.3683 2.13744 59.0164 2.02881 58.631C1.91686 58.2339 1.80918 57.7728 1.74854 57.4738L1.74561 57.4601L1.74365 57.4474C1.65433 56.8434 1.60841 56.5642 1.56201 56.3439C1.55288 56.3093 1.54339 56.2812 1.521 56.2043C1.44395 55.9392 1.59673 55.6613 1.86182 55.5841C2.12689 55.5071 2.40479 55.6599 2.48193 55.925L2.53467 56.1134L2.5376 56.1222L2.53955 56.132C2.59318 56.3856 2.64187 56.691 2.72998 57.2863C2.78671 57.5643 2.8877 57.994 2.99072 58.3595C3.04005 58.5345 3.08801 58.6853 3.12939 58.8068C3.49723 58.6306 3.87866 58.4866 4.40771 58.3146C4.77614 58.1948 5.03172 58.1221 5.1499 58.091C5.14614 57.8849 5.11527 57.5175 5.0083 57.2082C4.85265 56.7583 4.77818 56.5068 4.7085 56.2531L4.60596 55.9494L4.60205 55.9396C4.58459 55.8875 4.56962 55.8326 4.55518 55.7609C4.50071 55.4902 4.67609 55.2265 4.94678 55.172C5.21744 55.1176 5.48115 55.293 5.53564 55.5636C5.53883 55.5794 5.54139 55.5901 5.54346 55.5978C5.54466 55.6023 5.54588 55.6067 5.54736 55.6115L5.66162 55.9513L5.66455 55.9611L5.66748 55.9699C5.73268 56.2082 5.80099 56.4399 5.95361 56.881C6.04978 57.159 6.09933 57.4532 6.12549 57.7023C6.6234 57.4971 7.10767 57.3004 7.55615 57.2121C7.82625 57.1589 8.24034 57.0816 8.55518 57.0529C8.61022 57.0479 8.66197 57.0441 8.71045 57.0402C8.65061 56.7381 8.62563 56.4569 8.30322 55.8127C8.06985 55.3464 7.8944 55.0115 7.73096 54.8419C7.61114 54.7178 7.51561 54.6262 7.44775 54.5646C7.41399 54.534 7.38798 54.5114 7.37061 54.4972C7.36082 54.4893 7.35503 54.4853 7.354 54.4845L7.36572 54.4923C7.13111 54.3473 7.05794 54.0387 7.20264 53.8039ZM9.10889 58.0002C9.12605 58.0057 9.14066 58.0087 9.15088 58.0109C9.12816 58.0054 9.10558 57.9992 9.0835 57.9904C9.09414 57.9945 9.1028 57.9982 9.10889 58.0002Z" fill="black"/>
<path d="M0.422363 48.2558C0.694161 48.2073 0.95387 48.3883 1.00244 48.6601C1.11243 49.2767 1.18476 49.726 1.24561 50.1386C1.28922 50.4344 1.32461 50.9542 1.35498 51.5273L1.37549 51.7578C1.41595 51.7527 1.45962 51.7456 1.50635 51.7402C1.85842 51.6993 2.44507 51.6831 2.75146 51.6679C3.06393 51.6524 3.13905 51.6497 3.57666 51.5761C3.63417 51.5665 3.69521 51.555 3.75928 51.5439L3.64502 50.7744C3.60903 50.5467 3.55985 50.3534 3.51221 50.1748C3.46845 50.0107 3.41303 49.8155 3.39209 49.6396L3.39014 49.623L3.38916 49.6054C3.37837 49.3883 3.36939 49.2124 3.354 49.0625L3.3335 48.8173C3.31795 48.5418 3.52865 48.3058 3.8042 48.29C4.07953 48.2746 4.31568 48.4853 4.33154 48.7607L4.34912 48.957V48.958C4.36708 49.1322 4.37626 49.3278 4.38623 49.5283C4.39727 49.6141 4.42684 49.7223 4.479 49.9179C4.52861 50.104 4.58893 50.3375 4.6333 50.6181C4.683 50.9327 4.71928 51.1869 4.74463 51.371C4.95151 51.3344 5.1501 51.2992 5.31982 51.2705C5.6607 51.2127 5.87717 51.1853 6.03271 51.1679C6.20353 51.1489 6.25403 51.1468 6.32861 51.1347C6.60052 51.0908 6.74525 51.0513 6.98584 51.0039L7.00928 50.999L7.03271 50.997C7.12833 50.9876 7.19581 50.9809 7.25146 50.9736L7.26221 50.9726C7.31202 50.9672 7.32681 50.967 7.38037 50.9589C7.65321 50.9184 7.90779 51.106 7.94873 51.3789C7.98945 51.6517 7.80063 51.9062 7.52783 51.9472C7.44911 51.959 7.39055 51.9647 7.37158 51.9668L7.37061 51.9658C7.30688 51.9739 7.23606 51.981 7.1626 51.9882C6.98579 52.0237 6.76795 52.0768 6.48779 52.122C6.38225 52.139 6.26213 52.1478 6.14307 52.1611C6.0077 52.1762 5.81043 52.202 5.48682 52.2568C5.06183 52.3288 4.17245 52.49 3.7417 52.5625C3.26216 52.6431 3.14837 52.6497 2.80127 52.6669C2.44756 52.6845 1.93085 52.6976 1.62256 52.7334C1.55976 52.7407 1.50424 52.7495 1.45557 52.7558C1.43234 52.9706 1.27365 53.1538 1.05029 53.1943C0.778731 53.2434 0.518604 53.0634 0.469238 52.7919C0.460224 52.7422 0.446603 52.6733 0.437012 52.5625L0.436035 52.5507C0.413947 52.1978 0.398743 52.0576 0.358887 51.6171L0.35791 51.6074L0.356934 51.5986C0.325852 51.0089 0.292335 50.5294 0.256348 50.2851C0.197085 49.8833 0.126454 49.4434 0.0180664 48.8359C-0.0303773 48.5641 0.150599 48.3044 0.422363 48.2558Z" fill="black"/>
<path d="M0.635254 41.4631C0.907488 41.508 1.09202 41.7649 1.04736 42.0373C1.03736 42.0983 1.034 42.1259 1.03174 42.1467C1.02634 42.209 1.02498 42.2568 1.01904 42.3547L1.01807 42.3703L1.01611 42.3859C0.994348 42.5635 0.979069 42.8673 1.06494 43.5763C1.10608 43.9161 1.11859 44.1965 1.12061 44.4152C1.28618 44.4028 1.51909 44.3907 1.89697 44.381H1.91553C2.27433 44.3852 2.83681 44.3981 3.36572 44.4123C3.36762 44.3348 3.37268 44.2574 3.38135 44.1857C3.39965 44.0345 3.42756 43.8279 3.44775 43.6144C3.45131 43.3136 3.45265 43.0383 3.48584 42.8508L3.48779 42.8371H3.48877C3.49813 42.7917 3.50918 42.7417 3.521 42.6896C3.53335 42.6351 3.54835 42.5681 3.56689 42.4797C3.62375 42.2097 3.88867 42.0365 4.15869 42.0929C4.4286 42.1498 4.60178 42.4148 4.54541 42.6847C4.52536 42.7803 4.5096 42.8529 4.49658 42.9103C4.48492 42.9618 4.47652 42.996 4.47021 43.0256L4.45459 43.2375C4.45118 43.3379 4.44898 43.4726 4.44678 43.6535V43.674L4.44482 43.6935C4.42284 43.93 4.39 44.1698 4.37354 44.3058C4.36871 44.3458 4.36562 44.3947 4.36475 44.4474C4.87711 44.472 5.11889 44.4967 5.41064 44.5226C5.57242 44.537 5.75192 44.5511 5.93213 44.5646C6.11084 44.5781 6.29191 44.5917 6.44873 44.6056C6.70908 44.6288 6.91666 44.6518 7.06689 44.672C7.14144 44.6821 7.20602 44.6919 7.25732 44.7013C7.28258 44.706 7.30942 44.7109 7.33447 44.717C7.34937 44.7206 7.40043 44.7334 7.45361 44.758C7.70373 44.874 7.81225 45.1707 7.69678 45.4211C7.58086 45.6716 7.28423 45.7809 7.03369 45.6652C7.06047 45.6776 7.08112 45.6841 7.08643 45.6857C7.08778 45.6861 7.08921 45.6864 7.09033 45.6867C7.08676 45.686 7.08206 45.6857 7.07666 45.6847C7.04672 45.6792 6.99918 45.6722 6.93311 45.6633C6.80179 45.6456 6.60984 45.6239 6.35986 45.6017C6.21133 45.5885 6.03862 45.5753 5.85791 45.5617C5.67876 45.5482 5.49176 45.5338 5.32178 45.5187C4.98633 45.4889 4.74754 45.4604 4.1167 45.4347C3.48283 45.409 2.46719 45.3876 1.9165 45.381C1.25967 45.3979 1.08739 45.4193 0.937012 45.4386H0.934082C0.858151 45.4481 0.811027 45.4536 0.691895 45.4748C0.420154 45.5232 0.160405 45.3421 0.111816 45.0705C0.102452 45.0177 0.102943 44.9656 0.109863 44.9152C0.104071 44.8717 0.102646 44.827 0.108887 44.7814C0.117972 44.7156 0.151721 44.3487 0.0727539 43.6965C-0.015625 42.9667 -0.0109457 42.5773 0.0209961 42.2941C0.0246739 42.2334 0.0289345 42.1382 0.0356445 42.0607L0.0366211 42.0529C0.0416739 42.0034 0.047874 41.9555 0.0610352 41.8752C0.105785 41.6028 0.362814 41.4184 0.635254 41.4631Z" fill="black"/>
<path d="M8.35962 33.9846C8.56547 33.801 8.88076 33.819 9.0647 34.0247C9.24863 34.2306 9.23148 34.5467 9.02563 34.7307C8.97453 34.7764 8.95143 34.7999 8.91235 34.8382C8.87368 34.876 8.8238 34.9228 8.77759 34.9632L8.76294 34.9768L8.74634 34.9886C8.652 35.0584 8.54494 35.129 8.45142 35.1907C8.35271 35.2558 8.26052 35.3174 8.17505 35.3811C7.90423 35.5831 7.69657 35.6934 7.42407 35.8733C6.99341 36.1576 6.51047 36.4948 6.18091 36.6614C5.94342 36.7815 5.72528 36.875 5.37622 36.928C5.08494 36.9722 4.84561 37.0123 4.67017 37.0442C4.66197 37.3704 4.67304 37.819 4.68091 38.0872C4.79979 38.1164 4.89693 38.1393 5.02368 38.1682C5.16522 38.2005 5.3362 38.2402 5.59888 38.3059C6.07412 38.425 6.98467 38.6499 7.45923 38.7835C7.71177 38.8546 7.8567 38.8981 7.94263 38.9261C8.01141 38.9485 8.09122 38.9748 8.16431 39.0237C8.3936 39.1774 8.45457 39.4887 8.30103 39.718C8.14721 39.947 7.83689 40.0083 7.60767 39.8548C7.66608 39.8939 7.71568 39.9042 7.63306 39.8772C7.56733 39.8558 7.43829 39.8169 7.18774 39.7464C6.73136 39.6179 5.8426 39.3976 5.35571 39.2757C5.10151 39.212 4.93761 39.174 4.80103 39.1429C4.6646 39.1117 4.5474 39.086 4.39575 39.0481C3.68209 38.8699 3.5202 38.83 3.34497 38.7962C3.1943 38.7671 3.03165 38.7507 2.86353 38.7366C2.70958 38.7237 2.52433 38.711 2.37915 38.6878L2.3479 38.6829L2.3186 38.6751C1.87815 38.5473 1.44424 38.4208 1.34692 38.3929L1.20435 38.3626C0.974427 38.3177 0.812725 38.1217 0.801025 37.8977C0.707728 37.8323 0.6342 37.7371 0.602783 37.6184C0.569488 37.4923 0.545483 37.4019 0.5354 37.2747L0.534424 37.2639V37.2532C0.525714 36.9962 0.586617 36.6219 0.726807 36.1458L0.735596 36.1155L0.749268 36.0852C0.836713 35.8872 0.892057 35.746 0.939697 35.6272C0.984955 35.5144 1.0326 35.3955 1.09985 35.2825C1.15957 35.1823 1.24244 35.0489 1.34399 34.9241C1.44403 34.8012 1.58636 34.6566 1.77856 34.5628C1.94304 34.4826 2.38972 34.2803 2.88013 34.3665C3.07072 34.4 3.28328 34.4393 3.47095 34.4964C3.64425 34.5491 3.8812 34.6402 4.05103 34.8274C4.18786 34.9783 4.39876 35.2228 4.50317 35.5081C4.55849 35.6593 4.60707 35.8201 4.63892 36.0345C4.81345 36.0045 5.01364 35.9721 5.22681 35.9397C5.4358 35.908 5.54934 35.861 5.72974 35.7698C5.99085 35.6378 6.38772 35.3589 6.87329 35.0384C7.24721 34.7915 7.32517 34.7675 7.57739 34.5794C7.68881 34.4963 7.80302 34.4201 7.90063 34.3557C7.99568 34.2931 8.07172 34.2423 8.13599 34.1956C8.15788 34.1757 8.1846 34.1503 8.21216 34.1233C8.24663 34.0896 8.28803 34.0487 8.35962 33.9846ZM2.45825 35.3704C2.36434 35.3949 2.27922 35.4319 2.21704 35.4622C2.20697 35.4673 2.17276 35.4895 2.11938 35.555C2.06688 35.6195 2.01532 35.7001 1.95923 35.7942C1.93751 35.8308 1.91531 35.88 1.86743 35.9993C1.82476 36.1057 1.76639 36.2508 1.68091 36.4466C1.56132 36.8569 1.53244 37.1021 1.53345 37.2073C1.53454 37.2177 1.53567 37.227 1.53833 37.2395C1.54342 37.2633 1.55176 37.2961 1.56958 37.3636C1.57452 37.3823 1.57565 37.4014 1.57837 37.4202L1.60083 37.4251L1.6106 37.428C1.68391 37.4489 2.1151 37.5755 2.55591 37.7034C2.64997 37.717 2.77206 37.7259 2.94653 37.7405C3.1194 37.755 3.32783 37.7749 3.53442 37.8147C3.58024 37.8236 3.62508 37.8342 3.67505 37.845C3.66833 37.5544 3.66257 37.19 3.6731 36.9212C3.69969 36.2447 3.62613 36.0224 3.56372 35.8518C3.53338 35.769 3.44926 35.6531 3.31567 35.5052C3.32655 35.5163 3.30214 35.4906 3.17993 35.4534C3.05727 35.4161 2.90004 35.3849 2.7063 35.3509C2.63823 35.339 2.55387 35.3455 2.45825 35.3704Z" fill="black"/>
<path d="M4.30835 26.2353C4.45144 25.9992 4.75972 25.9234 4.99585 26.0663C5.23154 26.2095 5.30666 26.5169 5.16382 26.7529C5.14644 26.7815 5.13646 26.7977 5.12866 26.8124C5.12677 26.8174 5.12489 26.8261 5.12085 26.8378C5.11287 26.861 5.10237 26.893 5.0896 26.9364C5.06373 27.0245 5.0305 27.1485 4.98706 27.3193L4.98608 27.3202C4.92457 27.5612 4.87887 27.7863 4.83765 27.9902C4.79828 28.1849 4.75962 28.3819 4.71655 28.5351C4.62837 28.8483 4.4593 29.1956 4.30054 29.4872L4.48511 29.5614L4.4939 29.5654L4.50171 29.5683C4.66224 29.6357 4.88488 29.728 5.60425 30.0185C5.74924 30.077 5.91941 30.1452 6.10425 30.2197C6.20145 29.981 6.30942 29.7025 6.39136 29.4579C6.50879 29.1074 6.6138 28.8172 6.69409 28.6015C6.78004 28.3706 6.82558 28.2564 6.83862 28.2157L6.84351 28.2001L6.84937 28.1845C6.92053 28.0038 6.97473 27.8835 7.03198 27.789C7.04278 27.771 7.06891 27.7264 7.10034 27.6747C7.24394 27.4392 7.55111 27.3644 7.78687 27.5077C8.02238 27.6513 8.09709 27.9585 7.95386 28.1943C7.92144 28.2475 7.91292 28.2634 7.8894 28.3027L7.8562 28.3691C7.83926 28.406 7.81456 28.463 7.78003 28.5507C7.75171 28.632 7.6946 28.7808 7.63159 28.9501C7.55385 29.159 7.45253 29.4382 7.3396 29.7753C7.25203 30.0367 7.13803 30.3326 7.03296 30.5907C7.31906 30.7045 7.605 30.8187 7.86597 30.9198C8.46559 31.1522 8.97484 31.3343 9.28491 31.453C9.31232 31.3376 9.35 31.1769 9.39722 30.9794C9.45917 30.7203 9.53838 30.4121 9.62671 30.1738C9.78753 29.7401 9.84142 29.5939 9.9519 29.2812C10.0213 29.0848 10.1013 28.8311 10.1638 28.6171C10.195 28.5105 10.2214 28.4164 10.239 28.3476C10.2479 28.3131 10.2533 28.2878 10.2566 28.2724C10.264 28.2375 10.2537 28.2723 10.2537 28.3251C10.2538 28.0491 10.4786 27.8251 10.7546 27.8251C11.0305 27.8255 11.2537 28.0493 11.2537 28.3251C11.2536 28.3951 11.2384 28.465 11.2351 28.4804C11.2278 28.5147 11.2173 28.5547 11.2068 28.5956C11.1854 28.6789 11.1568 28.7845 11.1238 28.8974C11.0579 29.1228 10.9726 29.3952 10.8953 29.6142C10.782 29.9348 10.7251 30.0875 10.5642 30.5214C10.499 30.6975 10.4319 30.9535 10.3699 31.2128C10.3133 31.4495 10.2551 31.7165 10.2195 31.8447L10.2166 31.8525L10.2146 31.8613C10.1872 31.9477 10.1474 32.0668 10.1179 32.1581C10.1041 32.2013 10.0947 32.2317 10.0847 32.2636C10.0843 32.2651 10.0823 32.266 10.0818 32.2675C10.026 32.4827 9.83292 32.6423 9.60034 32.6425C9.48885 32.6425 9.3866 32.6046 9.30347 32.5429C9.26803 32.5256 9.19399 32.4923 9.05347 32.4345C8.77036 32.318 8.29147 32.1573 7.50464 31.8525C7.17103 31.7232 6.7973 31.5743 6.4353 31.4296C6.33148 31.4508 6.22057 31.4413 6.11792 31.3915C6.03834 31.3527 5.97462 31.2945 5.92749 31.2265C5.66518 31.1209 5.42458 31.0237 5.23022 30.9452C4.5325 30.6635 4.2968 30.5657 4.13062 30.496C3.79857 30.3701 3.65258 30.3073 3.56421 30.2704C3.46763 30.2725 3.36919 30.2477 3.28198 30.1913C3.12976 30.0926 3.04948 29.9248 3.05444 29.7558C3.05325 29.7112 3.05672 29.6654 3.06812 29.62C3.09125 29.5284 3.13911 29.4496 3.2019 29.3876C3.3768 29.1054 3.65281 28.6228 3.75366 28.2646C3.784 28.1567 3.81386 28.0062 3.85718 27.7919C3.8987 27.5866 3.94901 27.3397 4.01733 27.0722C4.10078 26.7441 4.16388 26.5161 4.22437 26.3857L4.22827 26.3779L4.23218 26.371C4.26077 26.3143 4.28934 26.2666 4.30835 26.2353Z" fill="black"/>
<path d="M9.08838 18.3621C9.35017 18.2748 9.6337 18.4167 9.72119 18.6785L9.77686 18.8543L9.77881 18.864C9.78291 18.8801 9.79547 18.9189 9.8667 19.1209L10.2339 20.1668L10.2368 20.1756L10.2388 20.1834C10.4029 20.7144 10.6617 21.5497 10.7827 22.073C10.8541 22.3819 10.9006 22.6043 10.9302 22.7674L10.9478 22.7801C10.9846 22.8033 11.0332 22.8331 11.0991 22.8728C11.2107 22.9401 11.3657 23.0349 11.5034 23.158C11.6088 23.2521 11.9196 23.5095 12.4175 23.782C12.7511 23.9646 12.9945 24.1012 13.1675 24.2049C13.325 24.2993 13.4704 24.3932 13.5659 24.489C13.7605 24.6846 13.7604 25.0012 13.5649 25.1961C13.3695 25.3905 13.0528 25.3901 12.8579 25.1951C12.8546 25.1929 12.8083 25.1559 12.6538 25.0633C12.4989 24.9704 12.2699 24.8412 11.937 24.659C11.3616 24.344 10.9889 24.0394 10.8364 23.9031C10.7763 23.8494 10.6955 23.7974 10.5825 23.7293C10.538 23.7024 10.4813 23.6656 10.4204 23.6258C10.3728 23.6205 10.3273 23.6102 10.2847 23.5926C10.1535 23.6072 9.97808 23.634 9.7583 23.6687C9.47759 23.7131 9.32606 23.722 8.84619 23.7215C8.42746 23.721 7.64583 23.7194 7.17529 23.7205C6.70563 23.7215 6.57308 23.7247 6.48486 23.7273C6.39467 23.7301 6.3488 23.7327 6.30029 23.7351C6.02497 23.7484 5.79078 23.5358 5.77686 23.2605C5.76321 22.9849 5.97585 22.75 6.25146 22.7361C6.30318 22.7336 6.35575 22.7313 6.45459 22.7283C6.55657 22.7252 6.70002 22.7215 7.17334 22.7205C7.64618 22.7194 8.43062 22.721 8.84814 22.7215C9.30661 22.722 9.39749 22.7138 9.60205 22.6814C9.6983 22.6662 9.79406 22.6541 9.88428 22.6404C9.8637 22.5438 9.83974 22.4303 9.80908 22.2976C9.69831 21.8185 9.45271 21.026 9.28369 20.4793V20.4783C9.09983 19.9499 8.98973 19.6412 8.92334 19.4529C8.8613 19.277 8.82746 19.1817 8.80908 19.1092L8.81006 19.1082C8.80418 19.0877 8.79537 19.0649 8.77197 18.9949C8.68475 18.7333 8.82688 18.4498 9.08838 18.3621Z" fill="black"/>
<path d="M18.6465 8.39571L18.7471 8.42891L18.8604 8.49532C18.8908 8.51779 18.9142 8.53906 18.9297 8.55391C18.9638 8.58668 18.9935 8.62132 19.0146 8.64668C19.0365 8.67285 19.061 8.70337 19.082 8.72969C19.1044 8.75767 19.1273 8.7872 19.1533 8.81856C19.3702 9.07954 19.6366 9.40664 19.8115 9.66035C19.9116 9.8055 20.0335 9.97254 20.1738 10.1672C20.3122 10.3591 20.4646 10.5734 20.6182 10.801C20.7758 11.0346 20.9337 11.2914 21.0811 11.5217C21.231 11.7561 21.3841 11.985 21.6328 12.3244C21.8651 12.6414 22.2453 13.1287 22.4463 13.4123C22.7455 13.8347 22.8307 13.9604 22.874 14.0129C23.05 14.2255 23.02 14.5409 22.8076 14.717C22.5949 14.8929 22.2795 14.8632 22.1035 14.6506C22.0283 14.5596 21.9016 14.3727 21.6309 13.9904C21.4226 13.6964 21.1056 13.2975 20.8262 12.9162C20.5633 12.5576 20.3985 12.3103 20.2383 12.0598C20.0754 11.8051 19.9381 11.5805 19.7891 11.3596C19.6893 11.2117 19.5867 11.0705 19.4893 10.9338C19.5074 11.0018 19.527 11.0662 19.542 11.1252C19.667 11.6176 19.6869 12.0484 19.7158 12.4572C19.7323 12.6904 19.7502 12.8663 19.7656 13.0148C19.7807 13.1599 19.7955 13.2954 19.8018 13.4279C19.8222 13.8635 19.8818 14.3437 19.9033 14.4797C19.936 14.6857 19.9603 14.7731 19.9971 14.967C20.014 15.0368 20.0332 15.109 20.0518 15.1818C20.0719 15.261 20.0924 15.3428 20.1104 15.4172L20.1143 15.4299H20.1133C20.1198 15.4601 20.1243 15.4939 20.1309 15.5373C20.1529 15.557 20.1777 15.5783 20.2041 15.6037C20.4028 15.7951 20.409 16.1118 20.2178 16.3107C20.0265 16.5093 19.7097 16.5154 19.5107 16.3244C19.4723 16.2875 19.4536 16.2713 19.4443 16.2639C19.4383 16.2591 19.4336 16.2557 19.417 16.2453V16.2443C19.3141 16.1829 19.2042 16.1215 19.1084 16.0686C18.925 15.9896 18.6973 15.8903 18.5186 15.8166C18.4027 15.7689 18.305 15.7206 18.2236 15.6789C18.139 15.6355 18.0791 15.6035 18.0117 15.5734C17.8634 15.5074 17.5399 15.362 16.667 15.0324C16.2459 14.8735 15.6329 14.6504 15.1094 14.4543C15.1448 14.5057 15.182 14.5608 15.2217 14.6184C15.3251 14.7683 15.3562 14.8044 15.8311 15.4094C16.2903 15.9946 17.1853 17.1085 17.625 17.7199C17.8625 18.0503 17.9939 18.2413 18.0664 18.3537C18.1018 18.4087 18.1288 18.4534 18.1484 18.4904C18.158 18.5085 18.1701 18.5348 18.1816 18.5647C18.1895 18.5849 18.2178 18.6573 18.2178 18.7522C18.2174 19.0279 17.9936 19.252 17.7178 19.2522C17.5101 19.2521 17.3314 19.1248 17.2559 18.9445C17.2499 18.9346 17.2403 18.9186 17.2256 18.8957C17.1671 18.805 17.0481 18.6302 16.8135 18.3039C16.3902 17.7152 15.5217 16.6353 15.0439 16.0266C14.5826 15.4387 14.5245 15.3686 14.3984 15.1857C13.8802 14.434 13.7173 14.2068 13.6133 14.0422C13.5462 13.936 13.4945 13.8198 13.46 13.7395C13.451 13.7186 13.4421 13.6978 13.4346 13.6799C13.4269 13.6617 13.4201 13.6461 13.4141 13.632C13.4023 13.6048 13.3966 13.5933 13.3955 13.591C13.3911 13.5828 13.3516 13.5128 13.3369 13.4182C13.3294 13.3692 13.3177 13.2464 13.3857 13.1125C13.4682 12.9509 13.6132 12.8735 13.7305 12.8488C13.8278 12.8284 13.9067 12.8425 13.9375 12.8488C13.9745 12.8565 14.0034 12.8671 14.0195 12.8732C14.0515 12.8855 14.078 12.8982 14.0898 12.9045C14.1247 12.9229 14.1983 12.9679 14.2373 12.9904C14.3484 13.0547 14.5352 13.1562 14.8145 13.2697C15.35 13.4875 16.3568 13.8463 17.0205 14.0969C17.9123 14.4335 18.2537 14.5867 18.4189 14.6604C18.5174 14.7042 18.6078 14.7514 18.6797 14.7883C18.7552 14.827 18.8229 14.8603 18.8994 14.8918L18.9697 14.9221C18.9528 14.8372 18.9328 14.7417 18.916 14.6359C18.8894 14.4678 18.8251 13.9509 18.8027 13.4748C18.7981 13.377 18.7877 13.2736 18.7715 13.1184C18.7557 12.9666 18.7354 12.7781 18.7178 12.5285C18.6869 12.0921 18.6708 11.7593 18.5723 11.3713C18.4952 11.0678 18.362 10.596 18.2686 10.2941C18.1655 9.96094 18.0548 9.59799 17.999 9.32832C17.9744 9.20913 17.9447 9.03927 17.9629 8.88887C17.9704 8.82703 18 8.63023 18.1787 8.49141C18.3467 8.36121 18.5248 8.36608 18.6465 8.39571ZM17.249 18.924C17.2499 18.9263 17.2511 18.9288 17.252 18.9309C17.2435 18.9088 17.2358 18.8859 17.2305 18.8625C17.2381 18.8957 17.2467 18.9181 17.249 18.924ZM14.2949 13.1584V13.1555L14.2744 13.1135C14.2821 13.1277 14.288 13.144 14.2949 13.1584Z" fill="black"/>
<path d="M24.8987 5.17969C24.9892 5.17971 25.0569 5.2044 25.0833 5.21484C25.1153 5.22761 25.1402 5.24114 25.1536 5.24902C25.1801 5.26475 25.1997 5.28022 25.2073 5.28613C25.2237 5.29899 25.2363 5.3106 25.2405 5.31445C25.2501 5.32336 25.2592 5.33214 25.2629 5.33594C25.2717 5.34478 25.2842 5.3578 25.2952 5.36914C25.3194 5.39409 25.3563 5.4319 25.4084 5.48438C25.5137 5.5904 25.6855 5.76046 25.9495 6.00977C26.2765 6.3185 26.8363 6.72567 27.4612 7.17578C28.0679 7.6128 28.697 8.03435 29.0608 8.2793C29.4671 8.55289 29.6827 8.70024 29.9866 8.9502L30.3303 9.24316L30.3313 9.24414C30.4305 9.33114 30.4556 9.34933 30.5032 9.38965C30.5452 9.42526 30.5744 9.45215 30.6438 9.50098C30.8694 9.65987 30.9236 9.97151 30.7649 10.1973C30.6061 10.4228 30.2944 10.4777 30.0686 10.3193C29.9572 10.241 29.8948 10.1857 29.8567 10.1533C29.8241 10.1257 29.7798 10.0906 29.6731 9.99707L29.3596 9.72949C29.0838 9.50211 28.8926 9.37126 28.5022 9.1084C28.301 8.9729 28.0124 8.77681 27.6877 8.55371C27.659 8.68319 27.5811 8.80163 27.4583 8.875C27.4054 8.90655 27.3737 8.92574 27.3538 8.93848C27.3346 8.95074 27.3244 8.95757 27.3079 8.96875L27.304 8.97168C27.232 9.01928 27.113 9.10155 26.7795 9.25293L26.7551 9.26465L26.7297 9.27246C26.1942 9.44992 25.7308 9.60603 25.5032 9.72754C25.4404 9.76106 25.4066 9.78022 25.3918 9.78906C25.371 9.80411 25.3484 9.81724 25.3254 9.8291C25.3307 9.88661 25.3345 9.94392 25.3401 10C25.4452 11.0593 25.6151 11.8033 25.6956 12.2773C25.7423 12.5526 25.7684 12.7209 25.7825 12.8223C25.7942 12.9072 25.802 12.971 25.802 13.0146C25.8018 13.2906 25.5779 13.5145 25.302 13.5146C25.026 13.5146 24.8022 13.2906 24.802 13.0146C24.802 13.0441 24.8044 13.0631 24.802 13.041C24.8007 13.0287 24.7983 13.0027 24.7922 12.959C24.7801 12.8712 24.7559 12.7138 24.7102 12.4443C24.6391 12.0256 24.4546 11.2035 24.345 10.0986C24.2355 8.99559 24.1924 7.62258 24.179 6.83691C24.1654 6.0438 24.1831 5.85633 24.2043 5.64551C24.2321 5.37087 24.4776 5.1707 24.7522 5.19824C24.7558 5.19861 24.7594 5.19976 24.7629 5.2002C24.8062 5.18796 24.8515 5.17969 24.8987 5.17969ZM25.3958 9.78613C25.3979 9.78464 25.4009 9.78322 25.4036 9.78125C25.4081 9.77786 25.4162 9.77105 25.426 9.7627C25.4276 9.76126 25.4292 9.75827 25.4319 9.75586C25.4202 9.76632 25.4084 9.77679 25.3958 9.78613ZM25.469 9.71973C25.4718 9.71669 25.4759 9.71428 25.4788 9.71094C25.4816 9.70752 25.4834 9.70137 25.4875 9.69629C25.4813 9.70404 25.4757 9.71236 25.469 9.71973ZM25.5305 9.63672C25.5317 9.63476 25.5333 9.63289 25.5344 9.63086C25.5362 9.62768 25.5368 9.62277 25.5393 9.61816C25.5361 9.62419 25.5339 9.63083 25.5305 9.63672ZM25.5989 9.38184L25.5999 9.37891C25.5995 9.35083 25.596 9.323 25.5911 9.2959C25.5961 9.32383 25.5987 9.3525 25.5989 9.38184ZM25.5217 9.11816C25.55 9.16274 25.5712 9.212 25.5842 9.26465C25.5713 9.21253 25.5501 9.16312 25.5217 9.11816ZM25.3674 8.96387C25.3622 8.96056 25.3571 8.95629 25.3518 8.95312C25.3435 8.94827 25.3337 8.94459 25.3254 8.94043C25.3397 8.94767 25.354 8.95533 25.3674 8.96387ZM25.179 6.82031C25.1873 7.30914 25.2095 8.01987 25.2493 8.74414C25.5675 8.60607 25.9967 8.4623 26.384 8.33398C26.5151 8.27401 26.597 8.23183 26.6477 8.20312C26.698 8.17464 26.7208 8.15846 26.7522 8.1377V8.13867C26.7851 8.1164 26.8234 8.08895 26.9309 8.02441C26.9132 8.01173 26.8949 8.00002 26.8772 7.9873C26.2734 7.55242 25.6494 7.10118 25.2629 6.73633C25.2329 6.70792 25.2049 6.67883 25.177 6.65234C25.1777 6.70468 25.1779 6.7608 25.179 6.82031Z" fill="black"/>
<path d="M33.4817 1.62617C34.0321 1.66691 34.4201 1.76541 34.7004 1.89278C34.9932 2.02581 35.1492 2.18152 35.2424 2.29512C35.4383 2.53384 35.4967 2.82489 35.5149 3.05C35.5336 3.28184 35.5142 3.51773 35.4963 3.69746C35.4621 4.04214 35.345 4.3119 35.1487 4.54903C34.9735 4.76032 34.7366 4.9401 34.5129 5.1125C34.4598 5.15342 34.3998 5.19238 34.3362 5.22969C34.7178 5.32388 35.1296 5.42405 35.4241 5.50117C36.3043 5.73171 36.6692 5.95498 36.9817 6.15352C37.1023 6.23016 37.1971 6.32821 37.262 6.39864L37.4524 6.60762L37.4573 6.6125C37.6823 6.84886 37.7572 6.9091 38.0198 7.07051C38.0674 7.09687 38.089 7.10717 38.1917 7.15254C38.444 7.2642 38.5579 7.55927 38.4465 7.81172C38.3349 8.06426 38.0399 8.17819 37.7874 8.0666C37.6823 8.02019 37.6238 7.99517 37.5276 7.9416L37.5188 7.93672L37.51 7.93086C37.1625 7.71783 37.0209 7.60471 36.7327 7.30196V7.30098C36.6529 7.21904 36.5665 7.12071 36.5256 7.07637C36.4996 7.04807 36.481 7.0286 36.4661 7.01485C36.4538 7.00354 36.4468 6.99914 36.4456 6.99825C36.2011 6.84293 35.9307 6.66812 35.1702 6.46895C34.6626 6.33602 33.8054 6.12768 33.3479 6.01387C33.1949 5.9758 33.0859 5.94609 33.0061 5.925C33.0347 6.00275 33.0621 6.08174 33.0911 6.16035C33.2539 6.60226 33.4192 7.0512 33.5403 7.39961C33.7753 8.07618 33.8724 8.41552 33.8928 8.71504C33.9062 8.91058 33.9124 9.0523 33.9153 9.14766C33.9167 9.19529 33.917 9.23155 33.9172 9.25703C33.9174 9.27491 33.9173 9.29076 33.9172 9.29512C33.9172 9.57126 33.6934 9.79512 33.4172 9.79512C33.1413 9.7949 32.9172 9.57113 32.9172 9.29512C32.9173 9.29106 32.9176 9.25627 32.9153 9.17793C32.9128 9.09633 32.9073 8.96659 32.8948 8.78242C32.8848 8.63724 32.837 8.4215 32.5959 7.72774C32.4788 7.39041 32.3168 6.95257 32.1526 6.50703C31.9896 6.06469 31.8232 5.6137 31.7014 5.25996C31.4555 4.54547 31.3954 4.24002 31.3635 4.01582L31.3596 3.98457L31.3586 3.95332C31.3545 3.68602 31.363 3.44618 31.3723 3.2541C31.377 3.15649 31.3805 3.07862 31.384 3.01582C31.2344 2.79164 31.2888 2.48825 31.51 2.33125C31.5251 2.32053 31.5455 2.30713 31.5735 2.28828C31.5887 2.27685 31.6048 2.26674 31.6213 2.25703C31.7332 2.18384 31.9335 2.05734 32.3127 1.83516C32.7109 1.60192 33.1075 1.59851 33.4817 1.62617ZM33.4084 2.62325C33.0866 2.59942 32.9462 2.62372 32.8186 2.69844C32.6314 2.80812 32.4918 2.89323 32.387 2.95723C32.3829 3.0556 32.3772 3.18116 32.3713 3.30293C32.363 3.47575 32.3561 3.68048 32.3586 3.90547C32.3801 4.04718 32.4279 4.2877 32.6272 4.87325C32.6444 4.86342 32.6607 4.85452 32.676 4.84785L33.3606 4.58321C33.6245 4.47853 33.8161 4.38704 33.9026 4.32051C34.154 4.12673 34.2891 4.01873 34.3782 3.91133C34.4456 3.83 34.4863 3.74866 34.5012 3.59883C34.5185 3.42505 34.5288 3.26561 34.5178 3.13008C34.5064 2.98892 34.4761 2.93871 34.469 2.92989C34.4551 2.91294 34.4163 2.86196 34.2864 2.80293C34.1437 2.73817 33.8795 2.65812 33.4084 2.62325Z" fill="black"/>
<path d="M40.7178 0.0217896C40.9819 -0.0586603 41.2613 0.0906337 41.3418 0.354797C41.399 0.542844 41.3381 0.736391 41.2041 0.86261L41.2051 0.864563C41.2078 0.891709 41.2134 0.929705 41.2295 1.01788C41.2597 1.18338 41.3204 1.49464 41.3535 1.71027C41.3705 1.82112 41.3806 1.91181 41.3984 2.05011C41.4168 2.19203 41.445 2.40025 41.498 2.76105C41.6038 3.48093 41.807 4.794 41.9219 5.68292C42.019 6.43465 42.0509 6.88246 42.0674 7.14972C42.265 7.20635 42.4159 7.38011 42.4297 7.59698C42.447 7.87236 42.2382 8.10961 41.9629 8.12726C41.7979 8.13764 41.8007 8.13424 41.748 8.13898C41.7098 8.14243 41.63 8.15473 41.458 8.14972H41.4443C41.2652 8.13948 41.1158 8.12999 41.0088 8.12335C40.9554 8.12004 40.9133 8.11732 40.8828 8.11554C40.8429 8.11321 40.8413 8.11359 40.8525 8.11359C40.5764 8.11359 40.3526 7.88971 40.3525 7.61359C40.3525 7.33744 40.5764 7.11359 40.8525 7.11359C40.8781 7.1136 40.9169 7.11612 40.9404 7.11749C40.9717 7.11932 41.0138 7.12126 41.0635 7.12433C41.0459 6.8663 41.0133 6.45761 40.9297 5.81085C40.8163 4.93333 40.6168 3.64153 40.5088 2.90656C40.455 2.54062 40.4263 2.32696 40.4072 2.17902C40.3877 2.02811 40.3789 1.95789 40.3643 1.86261C40.334 1.66555 40.2792 1.384 40.2451 1.19757C40.2382 1.15969 40.2335 1.12587 40.2285 1.09503C40.1832 1.09592 40.1567 1.09698 40.1494 1.09698C39.8735 1.09698 39.6498 0.872833 39.6494 0.596985C39.6494 0.320842 39.8733 0.0960083 40.1494 0.0960083C40.1542 0.0960083 40.2223 0.0969387 40.3516 0.0930786C40.4767 0.0802094 40.5536 0.0659603 40.5879 0.0579224C40.6025 0.0545032 40.6121 0.0524224 40.6279 0.0481567C40.6452 0.043493 40.672 0.035715 40.7178 0.0217896Z" fill="black"/>
<path d="M46.7905 0.0426025C46.8966 0.0271574 47.0087 0.0444055 47.1099 0.0982666C47.1958 0.144055 47.2494 0.203577 47.2759 0.235962C47.3243 0.295338 47.3587 0.362008 47.3765 0.397095C47.4189 0.481174 47.4841 0.625696 47.5825 0.841431C47.7903 1.29689 48.1645 2.13376 48.4888 2.7887C48.8103 3.43809 49.0691 3.87956 49.2251 4.15686C49.4181 4.50009 49.5533 4.79248 49.6743 5.02307C49.7389 5.14621 49.9097 5.50133 50.1353 5.94104L50.1392 5.94885L50.4077 6.48792L50.4116 6.49475L50.4146 6.50256C50.441 6.55757 50.4685 6.62198 50.5171 6.73596C50.6254 6.98991 50.5073 7.28381 50.2534 7.39221C49.9995 7.50031 49.7055 7.38234 49.5972 7.12854C49.541 6.9968 49.5277 6.96429 49.5142 6.93616H49.5132C49.469 6.85066 49.3898 6.69034 49.2456 6.39807L48.7896 5.48792C48.6311 5.18593 48.5446 4.98604 48.354 4.64709C48.3075 4.56443 48.25 4.46151 48.1812 4.33948C48.1426 4.34678 48.1029 4.35138 48.062 4.34924C47.8352 4.33742 47.0777 4.32046 46.77 4.33167C46.6556 4.34022 46.5741 4.34963 46.5122 4.35706C46.4592 4.36342 46.3872 4.37414 46.3354 4.37854H46.3247L46.3149 4.37952C46.2503 4.38235 46.1753 4.38129 46.1196 4.38049C45.9195 4.37757 45.7499 4.25681 45.6724 4.08557C45.435 4.5761 45.3464 4.74521 45.2593 5.06116C45.1562 5.43519 45.0461 5.96735 44.8101 6.48401C44.6838 6.76032 44.5819 6.9751 44.5093 7.12366C44.4732 7.19755 44.444 7.25795 44.4214 7.30139C44.4105 7.32236 44.399 7.34251 44.3892 7.35999C44.3844 7.3684 44.3774 7.3808 44.3696 7.39319C44.3657 7.39935 44.3591 7.40931 44.3511 7.42053C44.3459 7.42785 44.3265 7.45556 44.2974 7.48499C44.1032 7.68085 43.7865 7.68274 43.5903 7.48889C43.4211 7.32141 43.3971 7.06262 43.5181 6.86877L43.5337 6.8385C43.5508 6.80557 43.5769 6.75467 43.6108 6.68518C43.6789 6.54602 43.7773 6.33929 43.9009 6.06897C44.0929 5.64877 44.1691 5.25363 44.2954 4.79553C44.4129 4.36939 44.5517 4.10692 44.7778 3.63928C44.9836 3.21375 45.3535 2.39488 45.5571 1.93909C45.7031 1.61243 45.7988 1.35428 45.8706 1.15295C45.9331 0.977928 45.9999 0.773969 46.0747 0.639282C46.1568 0.491573 46.2681 0.366677 46.3628 0.278931C46.4112 0.234088 46.4639 0.19082 46.5171 0.154907C46.5435 0.137074 46.5762 0.116378 46.6128 0.0982666C46.6425 0.0835987 46.7072 0.0547978 46.7905 0.0426025ZM43.5366 6.84045C43.5327 6.84598 43.5292 6.85148 43.5269 6.8551C43.5441 6.82942 43.5639 6.80468 43.5864 6.78186C43.5589 6.80975 43.5408 6.83459 43.5366 6.84045ZM46.7964 1.52795C46.7214 1.73681 46.6211 2.00957 46.4702 2.34729C46.3492 2.61822 46.1648 3.02375 45.9917 3.401C46.0368 3.38835 46.0841 3.37983 46.1333 3.38049C46.1905 3.38132 46.2306 3.38125 46.2593 3.38049C46.2856 3.37792 46.314 3.37435 46.3931 3.36487C46.4699 3.35565 46.5706 3.3447 46.7085 3.33459L46.7163 3.33362H46.7251C46.9375 3.32547 47.3231 3.33075 47.645 3.33752C47.6278 3.30321 47.6098 3.26849 47.5923 3.23303C47.3179 2.67874 47.0098 1.99831 46.7964 1.52795Z" fill="black"/>
<path d="M54.4553 0.815582C54.4627 0.816839 54.4704 0.816914 54.4778 0.818512C54.4791 0.818797 54.4804 0.819194 54.4817 0.819489C54.5051 0.824801 54.5276 0.833336 54.55 0.841949C54.5589 0.845314 54.5679 0.847893 54.5764 0.851715C54.6239 0.87301 54.6669 0.902876 54.7063 0.938629C54.7149 0.946406 54.7247 0.952767 54.7327 0.96109L54.7395 0.967926C54.7483 0.977449 54.7548 0.988867 54.7629 0.999176C54.7742 1.0135 54.7855 1.02767 54.7952 1.04312C54.7965 1.04525 54.7987 1.04682 54.8 1.04898C54.843 1.12034 54.8875 1.21555 54.9866 1.41714C55.0705 1.58785 55.2418 1.90403 55.5706 2.4816C55.8971 3.05519 56.3721 3.8663 56.7717 4.52164C57.173 5.1796 57.4777 5.64717 57.7346 6.05777C57.9245 6.36123 58.0718 6.60781 58.1829 6.79996C58.3026 6.26066 58.4452 5.644 58.5276 5.2775C58.6517 4.72574 58.6956 4.51216 58.7747 4.14175C58.8415 3.73866 58.9437 3.29963 59.0696 2.92105L59.0715 2.91324C59.1251 2.75999 59.1581 2.68881 59.1926 2.60367C59.2967 2.34816 59.5883 2.22553 59.844 2.32925C60.0996 2.43322 60.2231 2.7249 60.1194 2.98062C60.0751 3.08977 60.0586 3.12125 60.0159 3.24332C59.9082 3.56886 59.8165 3.96189 59.7571 4.32632L59.7551 4.33902L59.7522 4.35074C59.6741 4.71674 59.6288 4.93862 59.5032 5.49722C59.3839 6.0275 59.1579 6.98031 59.0393 7.56558C58.9593 7.9602 58.9068 8.23423 58.8723 8.41031C58.8558 8.49449 58.8417 8.56645 58.8303 8.61441C58.8269 8.62893 58.8157 8.67806 58.7961 8.72574C58.7905 8.73961 58.777 8.77165 58.7542 8.80777C58.7449 8.82252 58.6717 8.94353 58.5149 9.00601C58.4141 9.04606 58.2872 9.05808 58.1594 9.01187C58.0432 8.96966 57.9713 8.89546 57.9348 8.84879C57.8699 8.76554 57.8494 8.68275 57.845 8.66617C57.8346 8.62689 57.8293 8.59059 57.8274 8.5773C57.8262 8.56879 57.8243 8.55882 57.8235 8.55289C57.8226 8.54632 57.8223 8.5406 57.8215 8.53531C57.8186 8.51522 57.815 8.498 57.8098 8.47964C57.7316 8.20522 57.645 7.97939 57.5159 7.66422C57.5151 7.6625 57.5126 7.65611 57.5071 7.64468C57.5 7.63015 57.4901 7.60954 57.4768 7.58414C57.4501 7.53306 57.4111 7.46351 57.3596 7.3732C57.2566 7.19238 57.1033 6.93386 56.887 6.58804C56.6429 6.19807 56.3218 5.70396 55.9182 5.04214C55.5127 4.37728 55.0323 3.5579 54.7014 2.97672C54.6161 2.82679 54.5418 2.69207 54.4749 2.57242C54.3839 2.83129 54.2748 3.15568 54.179 3.49332C54.1022 3.76364 54.0331 3.91939 53.9114 4.45035C53.8262 4.82177 53.7115 5.39856 53.6331 5.87808C53.5527 6.36912 53.5208 6.70714 53.47 7.0607C53.4282 7.35136 53.3911 7.5777 53.3625 7.73746C53.3372 7.87919 53.3128 8.00151 53.2961 8.05582C53.2147 8.31943 52.9349 8.46711 52.6711 8.38589C52.4074 8.30448 52.2598 8.0247 52.3411 7.76089C52.3357 7.77845 52.3486 7.72687 52.3782 7.56168C52.4046 7.41414 52.4404 7.19871 52.4807 6.91812C52.5218 6.63217 52.5658 6.20452 52.6458 5.71597C52.7276 5.21561 52.847 4.61845 52.9368 4.22672C53.0647 3.66869 53.1628 3.41106 53.217 3.21988C53.366 2.69527 53.5398 2.2056 53.6448 1.92105V1.92007C53.7831 1.54669 53.8263 1.40322 53.8557 1.31168C53.8645 1.28166 53.8731 1.24713 53.8831 1.20132L53.886 1.18668C53.8993 1.1332 53.9232 1.08306 53.9534 1.03629C53.9576 1.02984 53.9597 1.022 53.9641 1.01578C53.9963 0.970677 54.0377 0.93187 54.0852 0.89859C54.0915 0.894187 54.0973 0.889029 54.1038 0.884918C54.1071 0.882806 54.1101 0.880127 54.1135 0.878082C54.1301 0.868117 54.1481 0.861504 54.1653 0.853668C54.1745 0.849452 54.1831 0.84365 54.1926 0.839996C54.2115 0.832759 54.231 0.82822 54.2502 0.823395C54.2626 0.820297 54.2748 0.816764 54.2874 0.814606C54.3101 0.810746 54.3329 0.809429 54.3557 0.808746C54.3629 0.808521 54.37 0.807684 54.3772 0.80777H54.3977C54.4171 0.808821 54.4362 0.812302 54.4553 0.815582Z" fill="black"/>
<path d="M65.7534 5.21463C65.6274 5.14527 65.1422 5.11436 64.5581 5.1966C64.4229 5.21564 64.1912 5.32248 63.7797 5.52281C63.3259 5.74374 63.0631 6.00683 62.9176 6.15445C62.7339 6.34083 62.6154 6.53408 62.4828 6.74457C62.2466 7.11951 62.0502 7.51083 61.931 7.76599C61.8453 7.94949 61.8089 8.08638 61.7811 8.18593C61.7606 8.25947 61.6657 8.74512 61.5505 9.50514C61.4854 9.93527 61.5336 10.1549 61.5972 10.3343C61.7581 10.7882 62.3383 11.1841 62.6683 11.4309C62.7495 11.4916 63.0118 11.5846 63.4621 11.7435C63.6944 11.8254 63.9384 11.8992 64.2633 11.9674C64.9826 12.1185 65.5475 12.1529 65.7961 12.1505C66.0668 12.1479 66.2936 12.0923 66.5185 11.9884C66.8771 11.8228 66.9976 11.5292 67.0881 11.3651C67.1775 11.2029 67.3048 10.9368 67.5474 10.3716C67.6759 10.072 67.7029 9.84924 67.7181 9.67587C67.7436 9.38641 67.7421 8.96113 67.7383 8.50558C67.7327 7.84012 67.6606 7.48609 67.615 7.19706C67.5261 6.6334 67.2069 6.22685 67.1188 6.0737C67.0391 5.93512 66.9189 5.79601 66.7077 5.58433C66.6502 5.53884 66.6027 5.5154 66.4901 5.48352C66.3775 5.45165 66.2013 5.41205 66.0124 5.37125" stroke="black" stroke-linecap="round"/>
<path d="M77.8065 15.5817C77.8065 15.5719 77.8898 15.4504 78.0547 15.2577C78.3514 14.9111 78.9991 15.0446 79.2459 15.0808C79.8073 15.1633 79.829 16.1221 79.8121 16.2492C79.7932 16.3916 79.5941 16.4486 79.463 16.506C79.0164 16.7013 79.3608 17.8775 79.3031 18.047C79.2522 18.1969 78.7484 18.2504 78.1767 18.2848C77.4991 18.3256 77.6608 16.908 77.7082 16.7612C77.8617 16.2854 78.6086 16.1303 79.0178 15.8283C79.1075 15.7622 79.1057 15.6815 79.0744 15.6274C79.0431 15.5734 78.9701 15.5343 78.8959 15.5206C78.5184 15.451 77.9991 15.9455 77.7792 16.2443C77.6723 16.3896 77.7209 16.5905 77.7511 16.7447C77.7828 16.9057 77.9282 17.0371 78.0995 17.1338C78.1776 17.1778 78.2478 17.1924 78.3189 17.1837C78.39 17.1749 78.4625 17.1375 78.5163 17.0709C78.5702 17.0043 78.6031 16.9095 78.6201 16.8266C78.6371 16.7438 78.6371 16.6756 78.6075 16.7604C78.5778 16.8453 78.5186 17.0852 78.5249 17.1632C78.5312 17.2412 78.6047 17.15 78.6529 17.0466C78.7486 16.8407 78.7425 16.6189 78.7473 16.5164C78.7478 16.5072 78.7617 16.5908 78.8241 16.6364C78.8865 16.6821 79.0014 16.6888 79.1206 16.6439C79.3808 16.5458 79.523 16.345 79.5819 16.2197C79.612 16.1559 79.5997 16.0753 79.5569 16.046C79.5141 16.0167 79.4301 16.0369 79.3456 16.0949C78.9785 16.3466 78.9917 16.8072 79.0176 17.1191C79.0241 17.1974 78.9883 17.2797 78.9479 17.3406C78.9076 17.4015 78.854 17.4385 78.7666 17.452C78.5623 17.4834 78.256 17.3739 77.9454 17.247C77.7343 17.1608 77.5889 16.8977 77.4646 16.5657C77.3455 16.2475 77.5151 15.8873 77.5197 15.619C77.5206 15.5672 77.4246 15.5617 77.3602 15.5581C77.2326 15.551 77.1049 15.6265 76.9882 15.7397C76.8721 15.8524 76.8345 16.0007 76.8253 16.1346C76.803 16.4571 77.1444 16.7317 77.4019 16.895C77.6409 17.0465 77.6085 17.3977 77.6368 17.6929C77.6508 17.8393 77.885 17.9148 78.1114 17.9807C78.4947 18.0923 78.7248 17.7978 78.9837 17.6196C79.1947 17.4745 79.4332 17.5582 79.5673 17.5239C79.6864 17.4934 79.6992 17.2537 79.7089 17.0223C79.7121 16.8589 79.6727 16.7394 79.5814 16.6339C79.5294 16.5824 79.4659 16.535 79.2962 16.4267" stroke="black" stroke-linecap="round"/>
<path d="M86.3037 25.9358C86.4403 25.6962 86.7456 25.6122 86.9854 25.7483C87.2771 25.9144 87.5236 26.1446 87.752 26.467L87.8496 26.6106L87.8652 26.635L87.8779 26.6614C87.933 26.7746 87.99 26.8876 88.0459 26.9944L88.208 27.2922L88.2119 27.2981C88.2719 27.4059 88.3142 27.493 88.3848 27.6662C88.4889 27.922 88.3661 28.2135 88.1104 28.3176C87.8546 28.4216 87.5631 28.2989 87.459 28.0432C87.4172 27.9407 87.3913 27.8871 87.3662 27.8391C87.3231 27.881 87.2758 27.9252 87.2236 27.966C87.0981 28.0643 86.9348 28.1692 86.7451 28.2571C86.4711 28.3841 86.129 28.5696 84.9551 29.3293C84.2593 29.7796 83.3514 30.0819 82.7061 30.3362C81.8686 30.666 81.2433 30.6749 80.7354 30.7541C80.4653 30.7963 80.1348 30.922 78.9121 30.9612C78.3004 30.9806 77.8631 30.7712 77.5527 30.466C77.1927 30.1117 77.1657 29.615 77.209 29.2727L77.2236 29.1623L77.2832 29.0676C77.3896 28.8997 77.5223 28.7694 77.6289 28.6721C77.6978 28.6092 77.7653 28.5508 77.9766 28.4055C78.2039 28.2492 78.5153 28.3064 78.6719 28.5334C78.8283 28.761 78.7704 29.0723 78.543 29.2287C78.4494 29.2931 78.3975 29.3322 78.3662 29.3567C78.3387 29.3783 78.3251 29.3908 78.3037 29.4104H78.3027C78.2584 29.4509 78.223 29.4863 78.1943 29.5178C78.1943 29.568 78.1979 29.6125 78.2061 29.6496C78.2197 29.7113 78.2404 29.7397 78.2539 29.7532C78.3704 29.8677 78.5429 29.9728 78.8799 29.9621C80.0209 29.9256 80.2317 29.8204 80.5811 29.7659C81.2203 29.6661 81.6396 29.6813 82.3398 29.4055C83.0687 29.1184 83.8256 28.8684 84.4111 28.4895C85.5857 27.7293 85.98 27.5094 86.3242 27.3498C86.4399 27.2962 86.5385 27.2329 86.6074 27.1789C86.6417 27.152 86.6645 27.13 86.6768 27.1174C86.6783 27.1158 86.6798 27.1145 86.6807 27.1135C86.6787 27.1159 86.6653 27.1331 86.6504 27.1623C86.6989 27.0669 86.7744 26.9941 86.8623 26.9475C86.7326 26.7843 86.6124 26.6865 86.4912 26.6174C86.2516 26.4807 86.1674 26.1756 86.3037 25.9358Z" fill="black"/>
<path d="M87.8525 30.7103C88.0476 30.5154 88.3643 30.5155 88.5596 30.7103C88.6355 30.7862 88.7187 30.8995 88.791 31.0052C88.8703 31.1212 88.9601 31.2631 89.0508 31.4164C89.2307 31.7204 89.4278 32.0928 89.5625 32.4271C89.7033 32.7768 89.7612 33.1398 89.8047 33.4847L89.8457 33.8236L89.8477 33.8334C89.8567 33.9185 89.8644 33.9658 89.874 34.0072C89.886 34.0583 89.8991 34.0999 89.9668 34.3392C90.0419 34.6049 89.8877 34.8812 89.6221 34.9564C89.3564 35.0315 89.0801 34.8773 89.0049 34.6117C88.9451 34.4004 88.9194 34.315 88.9004 34.2337C88.8798 34.1455 88.8655 34.0591 88.8535 33.9486C88.7894 33.4412 88.7619 33.1157 88.6348 32.8002C88.5258 32.5297 88.3559 32.2058 88.1904 31.9261C88.1859 31.9184 88.1803 31.9113 88.1758 31.9037C87.9008 32.007 87.4436 32.147 86.9814 32.2201C86.8168 32.2461 86.6556 32.2939 86.4912 32.3519C86.3501 32.4017 86.1435 32.4834 85.9922 32.5306C85.9661 32.5388 85.9376 32.5461 85.9082 32.555C85.9191 32.5811 85.9331 32.6066 85.9434 32.6341C86 32.7856 86.0542 32.9752 86.0938 33.1849C86.1543 33.506 86.171 33.7005 86.2715 33.9379C86.4149 34.1832 86.5101 34.4296 86.5752 34.6654L86.6338 34.9105L86.6357 34.9203C86.6391 34.9383 86.6422 34.96 86.6445 34.973C86.6473 34.9881 86.6502 34.9997 86.6523 35.0101C86.6567 35.031 86.6598 35.0427 86.6621 35.0492C86.7537 35.3094 86.6165 35.5949 86.3564 35.6869C86.0962 35.7785 85.8106 35.6414 85.7188 35.3812C85.6805 35.2726 85.6627 35.1604 85.6543 35.1127L85.6113 34.932C85.5621 34.7535 85.4927 34.5804 85.3916 34.4144L85.374 34.3851L85.3604 34.3539C85.1945 33.9734 85.1548 33.6008 85.1113 33.3705C85.0822 33.2162 85.0423 33.0821 85.0059 32.9847C84.9878 32.9364 84.9726 32.9014 84.9619 32.8802L84.9844 32.9046C84.9665 32.8855 84.9518 32.8642 84.9375 32.8431C84.7429 32.9007 84.5536 32.9565 84.3936 33.0082C84.273 33.047 84.1334 33.1122 83.9053 33.2093C83.6924 33.2999 83.4331 33.4042 83.1328 33.4886C82.9448 33.5415 82.7569 33.6374 82.5713 33.7582C82.5773 33.7732 82.5828 33.7914 82.5918 33.8109C82.6342 33.9031 82.6905 34.0012 82.7568 34.1166C82.8126 34.2136 82.8944 34.3548 82.9414 34.4828C83.0216 34.7012 83.0895 34.8741 83.1523 35.0316C83.2146 35.1878 83.275 35.3362 83.335 35.4955L83.3398 35.5072L83.3428 35.5189C83.4306 35.7918 83.512 36.0544 83.5664 36.2347L83.5947 36.3187C83.6086 36.3526 83.6338 36.4077 83.6846 36.5072C83.8101 36.7531 83.7126 37.0544 83.4668 37.18C83.2209 37.3055 82.9195 37.2082 82.7939 36.9623C82.6745 36.7283 82.6435 36.6375 82.6094 36.5248V36.5238C82.5576 36.352 82.4802 36.1018 82.3965 35.8412C82.3418 35.6962 82.2876 35.5621 82.2236 35.4017C82.1593 35.2403 82.0876 35.0581 82.0029 34.8275C81.9915 34.7966 81.9595 34.7363 81.8896 34.6146C81.8302 34.5112 81.7488 34.3707 81.6836 34.2289C81.6213 34.0933 81.5471 33.9018 81.543 33.6947C81.5384 33.4549 81.6301 33.1952 81.8799 33.0189L82.0928 32.8773C82.3168 32.7375 82.5759 32.6062 82.8623 32.5257C83.1016 32.4585 83.3151 32.3739 83.5137 32.2894C83.6967 32.2115 83.9083 32.1143 84.0859 32.057C84.5295 31.914 85.4134 31.6642 85.6943 31.5765C85.8309 31.5339 85.9468 31.4845 86.1592 31.4095C86.3483 31.3428 86.5739 31.2715 86.8252 31.2318C87.1659 31.1779 87.4973 31.0805 87.7109 31.0082C87.7232 30.8995 87.7694 30.7937 87.8525 30.7103Z" fill="black"/>
<path d="M89.9883 37.6565C90.2626 37.6269 90.5092 37.8256 90.5391 38.0998C90.5497 38.1982 90.5568 38.2768 90.5625 38.344L90.5791 38.5256L90.5811 38.5373V38.55C90.6151 39.063 90.6377 39.6366 90.6602 40.1125C90.6834 40.6055 90.7059 40.9529 90.7324 41.0901C90.8035 41.3171 90.8552 41.51 90.8867 41.6633C90.9033 41.7439 90.9167 41.8196 90.9238 41.886C90.9293 41.9372 90.9368 42.033 90.9189 42.1291C90.8682 42.4005 90.6073 42.5802 90.3359 42.5295C90.0648 42.4785 89.8858 42.2168 89.9365 41.9455C89.9258 42.0029 89.933 42.0325 89.9287 41.9924C89.926 41.9673 89.9196 41.9247 89.9072 41.8645C89.8825 41.7442 89.8387 41.5708 89.7686 41.3508L89.7607 41.3264L89.7549 41.301C89.7075 41.0721 89.6829 40.6207 89.6611 40.1594C89.6473 39.8662 89.6297 39.5494 89.6143 39.2346C89.5094 39.2397 89.377 39.2462 89.2109 39.2551C88.598 39.288 88.031 39.3198 87.5596 39.3498C87.5716 39.4002 87.5862 39.4592 87.6016 39.5256L87.8174 40.4836L87.8203 40.4973H87.8193C87.856 40.6889 87.8845 40.8453 87.9102 40.9856L87.9844 41.3801V41.384C87.9951 41.442 88.0031 41.4887 88.0127 41.5432C88.0224 41.598 88.0345 41.6652 88.0537 41.7688C88.104 42.04 87.9255 42.3012 87.6543 42.3518C87.3829 42.4022 87.1219 42.2227 87.0713 41.9514C87.0514 41.8442 87.0384 41.774 87.0283 41.717C87.0182 41.6598 87.0108 41.6184 87.001 41.5656L87.002 41.5647C86.9762 41.4308 86.952 41.3031 86.9268 41.1653C86.9018 41.0287 86.8745 40.8798 86.8398 40.6985L86.6279 39.7502C86.6019 39.6376 86.5806 39.551 86.5664 39.4934L86.5527 39.4387C86.5534 39.4402 86.5559 39.4436 86.5576 39.4485C86.5552 39.4419 86.5539 39.4346 86.5518 39.4279C86.5328 39.43 86.5145 39.4318 86.4971 39.4338C85.7863 39.5161 85.1249 39.5941 84.6689 39.6799L84.668 39.6789C84.435 39.7233 84.2387 39.7568 84.0781 39.7785C84.0177 39.7875 83.9595 39.7978 83.7344 39.8381C83.4626 39.8866 83.2029 39.7056 83.1543 39.4338C83.106 39.1622 83.287 38.9024 83.5586 38.8537C83.7836 38.8135 83.8563 38.8003 83.9375 38.7883L83.9434 38.7873L84.4834 38.6965H84.4844C84.9828 38.6027 85.6837 38.5205 86.3818 38.4397C86.8902 38.3808 87.9622 38.3203 89.1572 38.2561C89.3133 38.2477 89.4418 38.2417 89.5469 38.2365C89.5459 38.2272 89.546 38.217 89.5449 38.2072C89.5157 37.9331 89.7142 37.6863 89.9883 37.6565ZM86.582 39.508C86.5843 39.5123 86.5929 39.5272 86.6064 39.5481C86.5928 39.5271 86.5814 39.505 86.5713 39.4826C86.5744 39.4896 86.5773 39.4989 86.582 39.508Z" fill="black"/>
<path d="M83.8376 45.0702C84.1914 45.1302 85.0308 45.2081 86.7996 45.1991C87.3634 45.1962 87.7138 45.2307 88.239 45.2567L88.24 45.2557C88.7656 45.2646 89.2135 45.2726 89.5476 45.2801C89.8665 45.2873 90.1153 45.2952 90.2156 45.3065H90.2195C90.2953 45.3157 90.3808 45.3273 90.5974 45.3397C90.6993 45.3456 90.792 45.3822 90.8679 45.4393C90.9529 45.4759 91.0284 45.5349 91.0828 45.6141L91.1316 45.703L91.1697 45.8192C91.2005 45.9449 91.2112 46.1027 91.2205 46.3241C91.2341 46.6509 91.243 47.2055 91.2439 48.1688V48.1756C91.2388 48.5986 91.2278 48.6827 91.2224 48.7606C91.2188 48.814 91.2195 48.87 91.2195 48.9471C91.2192 49.2229 90.9952 49.4468 90.7195 49.4471C90.4436 49.447 90.2188 49.2229 90.2185 48.9471C90.2185 48.8752 90.2189 48.7847 90.2253 48.6913C90.2301 48.6226 90.2391 48.5599 90.2439 48.1698C90.243 47.2069 90.2342 46.6705 90.2214 46.3661C90.2206 46.347 90.2183 46.3292 90.2175 46.3123C90.1701 46.3075 90.1329 46.3037 90.0994 46.2997C90.0969 46.2994 90.0937 46.299 90.0896 46.2987C90.0801 46.298 90.0673 46.2976 90.0515 46.2967C90.0199 46.295 89.9785 46.2927 89.9275 46.2909C89.8256 46.2872 89.6904 46.2839 89.5251 46.2801C89.1944 46.2726 88.7499 46.2646 88.2234 46.2557H88.2078C87.9915 46.2451 87.8152 46.2339 87.6511 46.2245C87.702 46.4849 87.7493 46.929 87.7693 47.7508L87.781 47.9813C87.7853 48.031 87.7891 48.0494 87.7947 48.1004C87.8045 48.1909 87.8094 48.2862 87.8142 48.368C87.8304 48.6437 87.6201 48.8801 87.3445 48.8963C87.069 48.9124 86.8324 48.7022 86.8162 48.4266C86.811 48.3394 86.8072 48.2701 86.8005 48.2088C86.7922 48.1323 86.7791 48.0479 86.7703 47.785L86.7693 47.7801C86.7418 46.6459 86.6642 46.3704 86.6492 46.327C86.6345 46.2848 86.6279 46.2417 86.6248 46.1991C84.9585 46.2023 84.0955 46.1288 83.6697 46.0565C83.3976 46.0101 83.2143 45.7515 83.2605 45.4793C83.3069 45.2072 83.5655 45.0239 83.8376 45.0702Z" fill="black"/>
<path d="M83.376 51.1457C83.3828 51.1462 83.3887 51.1462 83.3926 51.1466C83.4004 51.1475 83.4083 51.1488 83.4141 51.1496C83.4261 51.1511 83.4407 51.1532 83.4561 51.1554C83.4874 51.16 83.5312 51.1666 83.585 51.175C83.6929 51.1917 83.8486 51.2169 84.0459 51.2482C84.4415 51.3109 85.0088 51.4011 85.7119 51.5109C87.1733 51.7392 88.1852 51.7985 88.5293 51.8341C88.9082 51.8734 89.3603 51.9289 89.749 51.9533C90.1058 51.9756 90.4208 52.0823 90.6299 52.2853L90.7129 52.3781L90.7871 52.4933C90.9294 52.7676 90.8722 53.0622 90.8428 53.2013C90.8229 53.295 90.7942 53.4029 90.7764 53.4738C90.7557 53.5558 90.7423 53.6172 90.7363 53.6681C90.6909 54.0564 90.6408 54.6145 90.5342 54.9679C90.4791 55.1502 90.3671 55.3 90.2686 55.4093C90.1647 55.5244 90.0421 55.6315 89.9209 55.7257C89.678 55.9145 89.3996 56.0849 89.1885 56.2062C88.8996 56.372 88.5734 56.3337 88.3662 56.2882C88.1372 56.238 87.911 56.146 87.7363 56.0666C87.4887 55.9539 87.2821 55.7695 87.1221 55.6027C86.9605 55.4343 86.8083 55.2423 86.6895 55.0978C86.5612 54.9419 86.4922 54.7747 86.458 54.6164C86.2297 54.7523 85.9932 54.8489 85.793 54.9191C85.5716 54.9967 85.3501 55.0581 85.1943 55.1046C85.1121 55.1292 85.0494 55.1489 85.0029 55.1662C84.9493 55.1861 84.9485 55.1912 84.9688 55.1769C84.5752 55.4533 83.9998 55.6812 83.5244 55.8644L83.5176 55.8673C83.3217 55.9397 83.1165 56.031 82.915 56.1408C82.8481 56.1811 82.8212 56.2043 82.6611 56.3185C82.4364 56.4787 82.1242 56.4269 81.9639 56.2023C81.8035 55.9775 81.8563 55.6644 82.0811 55.5041C82.2057 55.4151 82.2911 55.3489 82.4092 55.2785L82.417 55.2736L82.4248 55.2697C82.5489 55.2017 82.6742 55.1389 82.7988 55.0822L83.1709 54.9289C83.6719 54.7357 84.1216 54.5502 84.3945 54.3586C84.4833 54.2964 84.5836 54.2553 84.6553 54.2287C84.7341 54.1995 84.8224 54.172 84.9072 54.1466C85.0864 54.0931 85.2703 54.0422 85.4629 53.9748C85.8686 53.8325 86.1478 53.6682 86.2666 53.4718C86.4118 53.2315 86.4771 52.9421 86.4854 52.88C86.4958 52.8016 86.5252 52.7308 86.5664 52.6691C86.5701 52.6601 86.572 52.6505 86.5762 52.6418C86.2656 52.6027 85.9242 52.5555 85.5576 52.4982C84.853 52.3881 84.2841 52.2982 83.8887 52.2355C83.6908 52.2041 83.5368 52.1797 83.4307 52.1632C83.3775 52.155 83.3375 52.1486 83.3105 52.1447C83.2971 52.1427 83.2887 52.1414 83.2842 52.1408C83.2945 52.1418 83.3137 52.1437 83.334 52.1437C83.058 52.1437 82.8342 51.9196 82.834 51.6437C82.834 51.3676 83.0579 51.1427 83.334 51.1427C83.3547 51.1427 83.3715 51.1453 83.376 51.1457ZM87.5254 52.8332L87.5381 53.1505V53.1564C87.5409 53.401 87.5181 53.6855 87.4736 53.9836V53.9884C87.4477 54.151 87.4279 54.2394 87.4287 54.3361C87.4295 54.4126 87.4453 54.4419 87.4619 54.4621C87.5967 54.6259 87.716 54.7772 87.8438 54.9103C87.9732 55.0452 88.075 55.1221 88.1504 55.1564C88.302 55.2253 88.4539 55.2838 88.5811 55.3117L88.71 55.3273C88.9008 55.217 89.1238 55.0788 89.3066 54.9367C89.4012 54.8632 89.4755 54.7958 89.5264 54.7394C89.5594 54.7028 89.5736 54.6805 89.5781 54.673C89.6502 54.4296 89.6894 54.0114 89.7432 53.5519C89.757 53.4335 89.7839 53.3199 89.8066 53.2296C89.8322 53.1282 89.8506 53.0633 89.8652 52.9943C89.8662 52.9898 89.8655 52.9848 89.8662 52.9806C89.8253 52.9691 89.7669 52.9564 89.6865 52.9513C89.2706 52.9253 88.7773 52.8657 88.4258 52.8293C88.2826 52.8144 87.9652 52.7901 87.5107 52.7453C87.5173 52.7737 87.5239 52.803 87.5254 52.8332Z" fill="black"/>
<path d="M80.9744 58.4779C81.0624 58.2164 81.3456 58.0757 81.6072 58.1634C81.8252 58.2367 81.9572 58.4455 81.9451 58.6644C82.028 58.6935 82.1232 58.7284 82.2312 58.765C82.6238 58.898 83.1755 59.0762 83.8582 59.2825C84.6002 59.5068 85.1904 59.6895 85.6189 59.8275C86.025 59.9583 86.3336 60.0641 86.4695 60.1331C86.688 60.2444 86.8543 60.3317 86.9939 60.4075L87.3611 60.6107L87.3669 60.6146C87.4342 60.6535 87.4969 60.693 87.5574 60.7318C87.6234 60.774 87.6951 60.821 87.9138 60.97C87.9149 60.9708 87.9157 60.9722 87.9167 60.973C87.9628 61.005 88.002 61.0449 88.0349 61.0902C88.0408 61.0982 88.0481 61.1052 88.0535 61.1136C88.0826 61.1592 88.1028 61.2101 88.116 61.264C88.1182 61.2732 88.122 61.282 88.1238 61.2913C88.127 61.3086 88.1273 61.3263 88.1287 61.3441C88.1299 61.3593 88.1318 61.3746 88.1316 61.39C88.1316 61.3931 88.1327 61.3966 88.1326 61.3997C88.1273 61.5583 88.0855 61.7481 88.0398 61.9368C87.9935 62.1281 87.9215 62.4012 87.8474 62.7005C87.7213 63.2098 87.6115 63.6404 87.446 64.0433L87.4402 64.0579L87.4333 64.0716C87.3544 64.2342 87.2887 64.3739 87.238 64.4993L87.239 64.5003C87.2126 64.5665 87.1803 64.6502 87.1287 64.7523C87.0039 64.998 86.7028 65.0961 86.4568 64.972C86.2107 64.8472 86.1117 64.5463 86.2361 64.3001C86.2647 64.2436 86.2819 64.2004 86.3103 64.1292L86.3113 64.1283C86.3718 63.9781 86.4442 63.8209 86.5242 63.6556C86.6557 63.3333 86.7492 62.9749 86.8767 62.4603C86.959 62.1281 87.0198 61.9009 87.0681 61.7015C87.0752 61.6721 87.08 61.6444 87.0857 61.6195C87.0581 61.6015 87.038 61.5871 87.0183 61.5745C86.9565 61.535 86.9115 61.5062 86.866 61.4798H86.865C86.6415 61.3548 86.43 61.2343 86.0164 61.0238C86.0152 61.0234 86.0103 61.0216 86.0017 61.0179C85.9915 61.0135 85.9776 61.0073 85.9597 61.0003C85.923 60.9859 85.8738 60.9674 85.8123 60.9456C85.6889 60.902 85.522 60.8462 85.3123 60.7786C85.2358 60.754 85.1535 60.7281 85.0662 60.7005C85.015 60.882 84.9423 61.132 84.8533 61.3763C84.7764 61.5871 84.6834 61.79 84.6101 61.9534C84.5336 62.1241 84.4805 62.2478 84.4519 62.348C84.4106 62.5463 84.3828 62.7204 84.3611 62.849L84.3572 62.8685L84.3533 62.887C84.3199 63.0194 84.2643 63.1381 84.1687 63.3109C84.035 63.5523 83.7305 63.6407 83.489 63.5072C83.2477 63.3735 83.1605 63.069 83.2937 62.8275C83.3674 62.6943 83.3789 62.6561 83.3816 62.6458C83.4034 62.5164 83.434 62.3303 83.4783 62.1204L83.4861 62.0911C83.5376 61.9043 83.6226 61.7101 83.697 61.5443C83.7769 61.3663 83.8523 61.2032 83.9138 61.0345C83.9973 60.8054 84.0623 60.5766 84.1101 60.4046C83.9403 60.3528 83.7599 60.2972 83.5691 60.2396C82.8766 60.0303 82.3145 59.849 81.9109 59.7122C81.775 59.6662 81.6535 59.6225 81.5486 59.5853C81.4683 59.7582 81.378 59.9593 81.2839 60.1878C81.217 60.3504 81.168 60.5376 81.1189 60.7581C81.0728 60.9652 81.0222 61.2218 80.9568 61.4583L80.9529 61.472L80.949 61.4847C80.8844 61.6768 80.8307 61.8265 80.7869 61.9447C80.7429 62.0632 80.7138 62.1344 80.6931 62.1937C80.6779 62.2401 80.6638 62.2897 80.6316 62.4476C80.5764 62.718 80.3122 62.8922 80.0417 62.8372C79.7714 62.7819 79.5959 62.5178 79.6511 62.2474C79.6891 62.0612 79.7142 61.974 79.7439 61.8831L79.7458 61.8753C79.7718 61.8 79.8103 61.7023 79.8494 61.597C79.8897 61.4883 79.9384 61.3525 79.9968 61.179C80.0513 60.9792 80.09 60.7795 80.1433 60.5404C80.1947 60.3096 80.2579 60.0528 80.3591 59.807C80.5249 59.4045 80.6777 59.0805 80.7927 58.845C80.8486 58.7307 80.8988 58.6298 80.9314 58.5638C80.973 58.4795 80.9786 58.4654 80.9744 58.4779Z" fill="black"/>
<path d="M77.1777 65.9191C77.3011 65.6722 77.6017 65.5722 77.8486 65.6954C77.8964 65.7194 77.9539 65.756 77.9922 65.7804C78.0448 65.814 78.0948 65.8466 78.1689 65.8937C78.3089 65.9825 78.4985 66.099 78.7344 66.2316C79.1812 66.4827 79.5439 66.6487 79.8291 66.7706C80.0871 66.881 80.3577 66.9849 80.5244 67.0802C80.5719 67.1073 80.6456 67.1315 80.7842 67.1447C80.9339 67.1588 81.0919 67.1564 81.3301 67.1622C81.4928 67.1662 81.6481 67.1583 81.8672 67.1534C82.0726 67.1489 82.3077 67.1493 82.583 67.172L83.0176 67.1837C83.4598 67.1878 83.9104 67.1706 84.2598 67.1505C84.3534 67.1427 84.4593 67.1366 84.5557 67.132C84.8314 67.1187 85.0657 67.3318 85.0791 67.6075C85.0923 67.8831 84.88 68.1174 84.6045 68.131C84.4971 68.1362 84.4058 68.1411 84.332 68.1476H84.3242L84.3174 68.1486C83.8379 68.1761 83.1519 68.1999 82.5342 68.17H82.5254L82.5156 68.1691C82.2825 68.1491 82.0806 68.1492 81.8887 68.1534C81.7061 68.1575 81.4991 68.1669 81.3057 68.1622C81.1926 68.1595 81.0658 68.1566 80.9404 68.1525C81.0282 68.3334 81.1155 68.5332 81.1875 68.7277C81.3479 69.161 81.7754 69.9885 82.0098 70.424L82.0186 70.4415L82.0264 70.4581C82.1636 70.7677 82.2627 71.0019 82.3789 71.2325L82.4404 71.3517C82.4653 71.3992 82.4958 71.4561 82.5332 71.5284C82.6599 71.7737 82.5635 72.0754 82.3184 72.2023C82.0733 72.3288 81.7715 72.2332 81.6445 71.9884C81.608 71.9178 81.5792 71.8615 81.5547 71.8146C81.5304 71.768 81.5092 71.7282 81.4902 71.6915L81.4883 71.6866C81.3572 71.4271 81.2414 71.1572 81.1143 70.8702C80.8815 70.4364 80.4348 69.5745 80.25 69.0753C80.1817 68.8908 80.0972 68.6979 80.0146 68.5333C79.928 68.3605 79.8579 68.2489 79.8213 68.2042C79.7263 68.0889 79.693 67.9437 79.7148 67.8068C79.6387 67.7751 79.5472 67.7379 79.4365 67.6906C79.1287 67.5589 78.7313 67.3774 78.2441 67.1036C77.9882 66.9598 77.7833 66.8333 77.6338 66.7384C77.5639 66.694 77.4947 66.6494 77.4551 66.6241L77.3154 66.5353C77.1328 66.3917 77.07 66.135 77.1777 65.9191Z" fill="black"/>
<path d="M73.2427 72.2328C73.2888 72.353 73.534 72.6592 73.9241 73.072C74.6712 73.8627 75.1393 74.3247 75.4527 74.7064C75.9546 75.3178 76.5486 76.0492 76.775 76.4201C76.8751 76.5841 76.9366 76.7382 76.9464 76.8445C76.9791 77.199 76.1314 76.662 75.701 76.4722C75.2787 76.2861 74.8352 76.1944 74.4896 76.1278C74.1818 76.0685 73.1672 75.7321 72.3413 75.4306C72.1322 75.3543 71.9096 75.1837 71.6638 75.0832C71.5799 75.0489 71.5543 75.1431 71.5515 75.211C71.5397 75.4962 71.6317 75.7958 71.9971 77.6283C72.2726 79.0102 72.4249 79.8393 72.5081 80.2183C72.6124 80.6931 72.7403 81.1072 72.7829 81.3388C72.8856 81.8971 71.8453 80.6071 71.5144 80.2514C70.9234 79.616 70.3972 79.0408 70.1425 78.7447C69.7238 78.2578 68.9513 77.5141 68.632 77.2098C68.5597 77.1326 68.5059 77.0641 68.4438 76.9945C68.3817 76.9249 68.313 76.8563 68.1677 76.7558" stroke="black" stroke-linecap="round"/>
<path d="M66.1243 77.438C66.3982 77.4707 66.5939 77.7188 66.5618 77.9927C66.5425 78.1549 66.5677 78.5908 66.6321 79.189C66.6938 79.7618 66.7841 80.4225 66.8704 80.9908C67.014 81.9373 67.1225 82.5545 67.2004 82.9927C67.2767 83.4218 67.3297 83.7081 67.3528 83.9644C67.3823 84.2928 67.3963 84.617 67.3977 84.8755C67.3984 85.0041 67.3957 85.1217 67.3899 85.2183C67.3856 85.2897 67.3774 85.4188 67.3411 85.523C67.2446 85.7986 66.9972 85.887 66.8459 85.9019C66.7059 85.9156 66.5756 85.8824 66.4817 85.8502C65.6269 85.5561 65.0665 84.9033 64.7112 84.6021C64.0739 84.0621 63.6269 83.6341 63.2854 83.2955C62.933 82.9461 62.7267 82.7284 62.5305 82.564C62.2676 82.3437 62.0446 82.2567 61.7219 82.0797L61.7083 82.0718L61.6936 82.063C61.4288 81.8941 61.1759 81.705 60.9211 81.5328L60.9133 81.5269C60.8284 81.4671 60.765 81.4158 60.6272 81.3023C60.4144 81.1267 60.3844 80.8112 60.5598 80.5982C60.7355 80.3857 61.051 80.3555 61.2639 80.5308C61.3972 80.6406 61.4358 80.6711 61.4817 80.7037L61.8792 80.981C61.9898 81.0591 62.094 81.1302 62.2209 81.2115C62.4493 81.3349 62.8193 81.501 63.1731 81.7974C63.3262 81.9258 63.4871 82.0851 63.6672 82.2652C63.6733 82.2615 63.6796 82.2581 63.6858 82.2545C63.8356 82.1648 64.0311 82.0526 64.2249 81.9634L64.261 81.9468L64.2991 81.9361C64.53 81.8714 64.7604 81.7663 64.9241 81.6871C64.951 81.6732 64.9677 81.6636 64.9856 81.6519C65.0062 81.6385 65.0364 81.6165 65.0872 81.5757C65.3024 81.403 65.6173 81.4369 65.7903 81.6519C65.9629 81.8671 65.929 82.1821 65.7141 82.355C65.5717 82.4694 65.4846 82.5232 65.3762 82.5787L65.3665 82.5836C65.2037 82.6625 64.9261 82.7906 64.6223 82.8814C64.5536 82.9138 64.4816 82.9504 64.4104 82.9898C64.669 83.2341 64.9767 83.5165 65.3577 83.8394C65.7482 84.1704 66.0203 84.4845 66.3928 84.7105C66.3877 84.5131 66.3774 84.2851 66.3567 84.0543C66.3385 83.8519 66.2962 83.6185 66.2161 83.1675C66.1374 82.725 66.0275 82.0991 65.8821 81.1412C65.7944 80.5638 65.7016 79.8879 65.6379 79.2964C65.577 78.7305 65.5344 78.1728 65.5696 77.8755C65.6022 77.6016 65.8502 77.4057 66.1243 77.438Z" fill="black"/>
<path d="M57.4126 81.6549C57.4223 81.6549 57.4929 81.7334 57.8376 82.5532C58.1445 83.2834 58.6069 84.6964 58.9114 85.6365C59.5355 87.5626 59.5293 88.0065 59.5318 88.3634C59.5329 88.5114 59.3766 88.597 59.2396 88.6693C58.8636 88.8676 58.2004 88.8491 57.7411 88.7906C57.4558 88.7543 57.2476 88.593 57.1372 88.4978C56.8922 88.2865 56.7894 87.8632 56.7136 87.4687C56.6548 87.162 56.9098 86.658 57.1018 86.3022C57.2563 86.0158 57.608 85.7756 57.8502 85.6147C57.9066 85.5772 57.9599 85.5429 57.9409 85.517C57.7748 85.2897 57.1868 85.3872 56.7829 85.2328C56.2986 85.0478 55.9519 84.7563 55.5862 84.5582C55.2295 84.365 54.746 84.1021 54.3855 83.8939C53.9712 83.6813 53.7497 83.5381 53.5456 83.4023C53.4536 83.34 53.3849 83.2909 53.2102 83.1662" stroke="black" stroke-linecap="round"/>
<path d="M50.252 83.1088C50.525 83.068 50.7793 83.2558 50.8203 83.5288C50.8496 83.7243 50.7601 83.9083 50.6074 84.0131C50.6102 84.0302 50.6138 84.0491 50.6172 84.0698C50.6368 84.1886 50.6659 84.3626 50.7051 84.5883C50.7834 85.0398 50.9004 85.6978 51.0527 86.5395C51.2865 87.8306 51.4703 88.7601 51.5254 89.3393H51.5244C51.5633 89.6366 51.5842 89.8211 51.5918 89.9682H51.5928C51.5947 89.9908 51.5991 90.0482 51.6074 90.1469C51.6163 90.1456 51.6265 90.1456 51.6367 90.144C51.909 90.1002 52.1667 90.2848 52.2109 90.5571C52.255 90.8295 52.0692 91.086 51.7969 91.1303C51.6782 91.1495 51.5632 91.1625 51.5078 91.1704C51.3966 91.1863 51.3334 91.1991 51.1523 91.226L51.1475 91.227C50.8352 91.2701 50.5685 91.2988 50.375 91.3129C50.0997 91.3329 49.86 91.1262 49.8398 90.851C49.8199 90.5757 50.0274 90.3359 50.3027 90.3159C50.3876 90.3097 50.493 90.2985 50.6162 90.2846C50.6078 90.1648 50.6036 90.1339 50.5967 90.0532L50.5957 90.0434L50.5947 90.0327C50.5903 89.9301 50.5744 89.7812 50.5312 89.4516L50.5293 89.434C50.4795 88.9104 50.3098 88.0512 50.0684 86.7172C49.9157 85.8739 49.7996 85.2136 49.7207 84.7592C49.6813 84.5323 49.6511 84.3556 49.6309 84.2329C49.6276 84.2131 49.6249 84.1944 49.6221 84.1772C49.4474 84.1881 49.3055 84.1957 49.2148 84.1957C48.9387 84.1957 48.7149 83.9719 48.7148 83.6957C48.715 83.4197 48.9388 83.1957 49.2148 83.1957C49.2985 83.1957 49.484 83.1887 49.7402 83.1694C49.8521 83.159 49.8889 83.1506 49.9902 83.1391C50.0827 83.1286 50.13 83.1271 50.252 83.1088Z" fill="black"/>
<path d="M40.429 83.3167C40.651 83.1529 40.9641 83.2003 41.1282 83.4222C41.1577 83.4622 41.1845 83.4995 41.2092 83.5364L41.2795 83.6497L41.2834 83.6566L41.2874 83.6624C41.3625 83.8017 41.4587 84.0094 41.678 84.5335C41.8528 84.9296 41.9484 85.2587 42.4377 86.0325C42.4547 86.0594 42.4703 86.0893 42.4885 86.1194C42.6774 86.1474 42.965 86.1843 43.3665 86.2191C43.7295 86.2505 44.1518 86.2802 44.4758 86.3294L44.4768 86.3284C44.5281 86.3332 44.5621 86.3332 44.6545 86.3362C44.7407 86.3391 44.8333 86.3449 45.0793 86.3646C45.1223 86.368 45.1634 86.3775 45.2024 86.3909C45.3331 86.0563 45.4812 85.6839 45.6809 85.1058C45.7894 84.7917 45.9055 84.4703 45.9963 84.2191C46.042 84.0929 46.0807 83.9854 46.1096 83.9036C46.1377 83.8242 46.1495 83.7895 46.1516 83.7835C46.2181 83.5156 46.4892 83.352 46.7571 83.4183C47.0251 83.4847 47.1887 83.7557 47.1223 84.0237C47.1091 84.0769 47.0789 84.1633 47.053 84.2366C47.0226 84.3228 46.982 84.4347 46.9368 84.5599C46.8455 84.8122 46.7319 85.126 46.6262 85.4319C46.3558 86.2147 46.1543 86.6883 46.01 87.0755C45.8613 87.4745 45.6333 87.9465 45.5032 88.2103C45.3638 88.4926 45.0663 88.9048 44.7659 89.348C44.5943 89.601 44.4204 89.8833 44.2805 90.1429C44.2683 90.1656 44.282 90.1402 44.26 90.1819C44.2515 90.1981 44.227 90.2449 44.1897 90.2923C44.1582 90.3323 44.0606 90.4488 43.884 90.4886C43.6768 90.5351 43.5146 90.4471 43.4319 90.3802C43.0984 90.1102 42.9351 89.6899 42.8215 89.3558C42.6909 88.9713 42.6078 88.6442 42.4583 88.2982C42.1045 87.4797 41.7807 86.865 41.592 86.5667C41.0525 85.7135 40.9208 85.2934 40.7639 84.9378L40.759 84.929V84.928C40.5404 84.4052 40.4583 84.2349 40.4084 84.1419C40.3883 84.1079 40.3641 84.0709 40.3235 84.0159C40.1597 83.7939 40.207 83.4807 40.429 83.3167ZM43.053 87.1917C43.1567 87.4098 43.2665 87.6468 43.3762 87.9007C43.5456 88.2926 43.6686 88.7423 43.7678 89.0345C43.7689 89.0377 43.7697 89.0411 43.7708 89.0443C43.8267 88.9566 43.8816 88.8693 43.9377 88.7864C44.2806 88.2807 44.5067 87.9683 44.6057 87.7679C44.6627 87.6523 44.7326 87.5046 44.8059 87.347C44.7081 87.34 44.6626 87.3366 44.6223 87.3353C44.5681 87.3335 44.4752 87.333 44.384 87.3245L44.3684 87.3226L44.3518 87.3206C44.071 87.2757 43.6943 87.251 43.2795 87.2151C43.2003 87.2083 43.125 87.1986 43.053 87.1917Z" fill="black"/>
<path d="M38.2603 83.2565C38.2504 83.2662 38.2114 83.3812 38.092 83.7132C37.8904 84.2733 37.5753 85.378 37.336 86.5911C37.1962 87.2999 37.1493 87.6821 37.0366 88.2305C36.9327 88.7358 36.7569 88.9992 36.5694 89.2099C36.2755 89.54 35.8199 88.2314 35.6053 87.8065C35.3825 87.3654 35.2428 86.9522 35.0166 86.4407C34.1664 84.5189 33.9266 84.0497 33.6847 83.7266C33.4626 83.4297 33.2707 83.1872 33.087 82.8497C33.0099 82.708 32.9579 82.5799 32.8997 82.5217C32.4675 82.0901 32.4044 84.2516 32.3277 84.8649C32.254 85.4547 31.9521 86.0703 31.7628 86.6013C31.6758 86.9754 31.6031 87.2776 31.5138 87.5392C31.4889 87.6054 31.4643 87.6731 31.439 87.7428" stroke="black" stroke-linecap="round"/>
<path d="M27.7924 79.0561C27.8844 79.1482 28.4024 79.6915 28.8908 80.3908C29.3964 81.1145 29.5071 81.6776 29.628 82.5442C29.7469 83.3971 29.4957 83.7864 29.2815 84.1126C29.0354 84.4875 28.7975 84.694 28.5096 84.8944C28.2064 85.1055 27.941 85.2493 27.6282 85.3854C27.3779 85.4943 27.0853 85.5249 26.5939 85.5299C26.2659 85.5333 26.0127 85.4573 25.7225 85.3948C25.4591 85.338 25.2255 85.1851 24.935 85.0296C24.4557 84.7731 24.1437 84.5837 23.928 84.4348C23.7088 84.2835 23.6002 83.9226 23.4988 83.6012C23.3939 83.2688 23.3747 82.257 23.4417 81.4775C23.4769 81.0677 23.669 80.6671 23.8359 80.1824C23.9587 79.8257 24.212 79.5775 24.4809 79.3394C24.7437 79.1068 25.2514 79.0075 25.6309 78.9624C26.3118 78.9603 26.9439 79.021 27.2892 79.0756C27.4273 79.0958 27.4901 79.1006 27.5549 79.1056" stroke="black" stroke-linecap="round"/>
<path d="M13.416 74.3588C13.4394 74.1552 13.487 73.4592 13.4043 72.6981C13.3483 72.183 12.6965 71.6578 12.2301 71.3821C12.0522 71.2769 11.8359 71.3301 11.6227 71.4376C10.9752 71.7642 10.7945 72.4184 10.7191 72.9096C10.6672 73.2475 11.0102 73.6224 11.3152 74.0372C11.5636 74.375 11.9028 74.5486 12.1009 74.6165C12.1914 74.6475 12.2711 74.6396 12.3512 74.607C12.5254 74.5364 12.6484 74.3572 12.7574 74.1344C12.9084 73.826 12.9151 73.3384 12.8577 72.8379C12.7741 72.1087 12.2309 71.8553 12.0283 71.769C11.9361 71.7298 11.8511 71.7397 11.767 71.7938C11.2323 72.1374 11.1981 73.0799 11.2043 73.7936C11.2074 74.1613 11.4585 74.3993 11.6566 74.5201C11.8064 74.6114 12.0296 74.5902 12.2795 74.5637C12.5138 74.5389 12.705 74.3279 12.8731 74.1254C13.0165 73.9527 13.0382 73.6375 13.04 73.2942C13.0413 73.0499 12.9313 72.9022 12.8255 72.7911C12.6886 72.6473 12.4143 72.6181 12.1357 72.6524C11.8868 72.6831 11.6681 72.973 11.4406 73.2456C11.2712 73.4486 11.2577 73.6891 11.2791 73.8886C11.2956 74.042 11.4521 74.1245 11.5866 74.1849C11.7209 74.2452 11.9549 74.1272 12.2138 73.9696C12.6036 73.7322 12.6154 73.3252 12.6162 73.1083C12.6166 73.014 12.5993 72.9522 12.5311 72.9917C12.3026 73.1243 12.1438 73.5451 12.0742 73.9034C12.0485 74.0356 12.1454 74.077 12.2268 74.0579C12.4181 74.0131 12.5326 73.8144 12.6049 73.6668C12.6432 73.5888 12.6483 73.4888 12.5965 73.44C12.5448 73.3911 12.4268 73.3924 12.3019 73.4575C11.7572 73.7416 11.6626 74.2038 11.611 74.4585C11.59 74.5622 11.6627 74.6223 11.727 74.6489C11.8574 74.7028 12.0616 74.5793 12.2743 74.4003C12.4739 74.2324 12.5211 73.9945 12.5379 73.8199C12.552 73.6738 12.5031 73.5375 12.3948 73.4138C12.2709 73.2722 12.0606 73.2649 11.9106 73.2506C11.6356 73.2244 11.3691 73.4497 11.0934 73.6309C10.9815 73.7044 10.9282 73.8891 10.8861 74.1218C10.845 74.3489 10.9051 74.5408 10.999 74.7045C11.1241 74.9226 11.3099 75.0786 11.4505 75.1771C11.5678 75.2593 11.7319 75.2882 11.9267 75.2946C12.2792 75.2055 12.6676 74.9886 13.0064 74.7388C13.0607 74.6808 13.0945 74.6219 13.144 74.5165" stroke="black" stroke-linecap="round"/>
</svg>
