<svg width="92" height="92" viewBox="0 0 92 92" fill="none" xmlns="http://www.w3.org/2000/svg">
<path d="M12.3331 59.9621C12.5297 59.9764 12.7081 60.0104 12.8146 60.0344C13.0346 60.0841 13.2686 60.1765 13.5294 60.3059C13.8431 60.4616 13.9986 60.7558 14.0675 60.926C14.1607 61.1566 14.1304 61.3636 14.0899 61.5031C14.0715 61.5666 14.0483 61.6246 14.0362 61.6555C14.0234 61.6882 14.0196 61.7004 14.0196 61.7004C13.969 61.8959 13.8294 62.0571 13.7579 62.1379C13.6704 62.2368 13.5595 62.3473 13.4806 62.4279L13.4737 62.4338L13.4679 62.4397C13.4306 62.4751 13.3735 62.5242 13.3653 62.5315C13.357 62.539 13.3515 62.5443 13.3478 62.5481C13.3443 62.5516 13.3411 62.5558 13.338 62.5598C13.1653 62.775 12.8502 62.8095 12.6349 62.6369C12.4195 62.4642 12.385 62.1492 12.5577 61.9338C12.6079 61.8713 12.6564 61.8242 12.6974 61.7873C12.7473 61.7424 12.7491 61.743 12.7784 61.7151C12.8724 61.6193 12.9465 61.5463 13.0089 61.4758C13.0396 61.4411 13.0584 61.417 13.0675 61.4035C13.0823 61.3561 13.0957 61.3139 13.1046 61.2912C13.11 61.2774 13.113 61.2658 13.1163 61.257C13.1082 61.2419 13.103 61.2268 13.0948 61.216C13.0791 61.1954 13.0737 61.1967 13.0851 61.2024C12.8625 61.092 12.7081 61.0356 12.5948 61.01C12.5166 60.9923 12.3905 60.9686 12.2608 60.9592C12.1208 60.9491 12.0279 60.9605 11.9864 60.9748C11.804 61.039 11.6686 61.0945 11.545 61.1457C11.4241 61.1959 11.2973 61.2488 11.1563 61.2922C10.8303 61.3925 10.6803 61.3983 10.1417 61.591C9.84165 61.6984 9.64948 61.7606 9.53718 61.8225C9.27845 61.9653 8.98232 62.0896 8.41609 62.2707C8.0049 62.4023 7.2988 62.6165 6.89459 62.7492C6.25162 62.9605 6.12584 62.9855 5.92682 63.0695C5.79707 63.1244 5.65612 63.1974 5.4776 63.2893C5.30458 63.3783 5.10372 63.4812 4.87897 63.5803C4.80442 63.6132 4.74101 63.6433 4.68756 63.6682C4.72112 63.7675 4.74932 63.8568 4.76764 63.926C4.82274 64.1344 4.85545 64.2559 4.8985 64.384L4.90045 64.3908L4.90338 64.3977C4.91958 64.4509 4.93506 64.5094 4.9483 64.5647C4.96304 64.6261 4.9741 64.6833 4.99908 64.8205C5.04841 65.092 4.86811 65.3529 4.59674 65.4026C4.3253 65.4518 4.06534 65.2715 4.01568 65.0002C3.9916 64.8679 3.9838 64.8321 3.97565 64.7981C3.96743 64.7638 3.95826 64.7308 3.95026 64.7033L3.87506 64.4563C3.85134 64.372 3.82752 64.2828 3.80084 64.1819C3.74572 63.9735 3.57523 63.5158 3.46295 63.3225C3.27926 63.0068 3.14148 62.7852 3.09479 62.7151C2.94168 62.4853 3.00373 62.1748 3.23346 62.0217C3.4632 61.8688 3.77374 61.9307 3.92682 62.1604C3.98602 62.2492 4.11843 62.4648 4.28619 62.7512C4.3414 62.7256 4.4057 62.6957 4.47467 62.6653C4.66879 62.5796 4.84564 62.4892 5.01959 62.3996C5.18798 62.3129 5.36626 62.2213 5.53815 62.1487C5.78613 62.0439 6.0205 61.9845 6.58209 61.8C6.98141 61.6688 7.73464 61.4391 8.11139 61.3186C8.64801 61.1469 8.87546 61.045 9.05377 60.9465C9.259 60.8334 9.57641 60.7314 9.80476 60.6496C10.3312 60.4613 10.7036 60.3859 10.8624 60.3371C10.9504 60.31 11.0338 60.2761 11.1622 60.2229C11.2881 60.1706 11.4446 60.1053 11.6544 60.0315C11.8903 59.9486 12.1475 59.9487 12.3331 59.9621Z" fill="black"/>
<path d="M7.2027 53.8039C7.32939 53.5985 7.58118 53.5174 7.79938 53.5968L7.89117 53.6408L8.00152 53.7218C8.04034 53.7534 8.08039 53.7887 8.11871 53.8234C8.20597 53.9025 8.31731 54.0104 8.44977 54.1476C8.74441 54.4529 8.99148 54.9551 9.19684 55.3654C9.62877 56.2285 9.64725 56.6752 9.70758 56.9279L9.76227 57.1623C9.7753 57.229 9.78628 57.3154 9.79352 57.3605C9.81039 57.4659 9.792 57.5682 9.7486 57.6574C9.73468 57.7087 9.71444 57.7592 9.68317 57.8058C9.56698 57.9787 9.36171 58.0554 9.16949 58.0168C9.15712 58.0165 9.13775 58.0161 9.10992 58.0168C9.01892 58.0191 8.86992 58.0286 8.64606 58.049C8.38962 58.0723 8.02309 58.1396 7.74957 58.1935C7.39347 58.2637 6.98108 58.431 6.42242 58.6613C6.15695 58.7707 6.00336 58.8394 5.84527 58.9054C5.69974 58.9662 5.56986 59.0161 5.42535 59.0529C5.34864 59.0724 5.10236 59.1406 4.71735 59.2658C4.13311 59.4558 3.77438 59.5964 3.41852 59.7785C3.30448 59.8368 3.2095 59.8755 3.1734 59.8918C3.1734 59.8918 3.11269 59.9214 3.04352 59.9377C2.95511 59.9583 2.83318 59.9647 2.70367 59.9123C2.58618 59.8646 2.50934 59.7868 2.46344 59.7306C2.41728 59.6741 2.38177 59.6139 2.35504 59.5617C2.25616 59.3683 2.1375 59.0164 2.02887 58.631C1.91692 58.2339 1.80924 57.7728 1.7486 57.4738L1.74567 57.4601L1.74371 57.4474C1.65439 56.8434 1.60847 56.5642 1.56207 56.3439C1.55294 56.3093 1.54345 56.2812 1.52106 56.2043C1.44401 55.9392 1.59679 55.6613 1.86188 55.5841C2.12695 55.5071 2.40485 55.6599 2.48199 55.925L2.53473 56.1134L2.53766 56.1222L2.53961 56.132C2.59324 56.3856 2.64193 56.691 2.73004 57.2863C2.78677 57.5643 2.88776 57.994 2.99078 58.3595C3.04011 58.5345 3.08807 58.6853 3.12945 58.8068C3.49729 58.6306 3.87872 58.4866 4.40777 58.3146C4.7762 58.1948 5.03178 58.1221 5.14996 58.091C5.1462 57.8849 5.11533 57.5175 5.00836 57.2082C4.85271 56.7583 4.77824 56.5068 4.70856 56.2531L4.60602 55.9494L4.60211 55.9396C4.58465 55.8875 4.56968 55.8326 4.55524 55.7609C4.50077 55.4902 4.67615 55.2265 4.94684 55.172C5.2175 55.1176 5.48121 55.293 5.5357 55.5636C5.53889 55.5794 5.54145 55.5901 5.54352 55.5978C5.54472 55.6023 5.54594 55.6067 5.54742 55.6115L5.66168 55.9513L5.66461 55.9611L5.66754 55.9699C5.73274 56.2082 5.80105 56.4399 5.95367 56.881C6.04984 57.159 6.09939 57.4532 6.12555 57.7023C6.62346 57.4971 7.10773 57.3004 7.55621 57.2121C7.82631 57.1589 8.2404 57.0816 8.55524 57.0529C8.61028 57.0479 8.66203 57.0441 8.71051 57.0402C8.65067 56.7381 8.62569 56.4569 8.30328 55.8127C8.06991 55.3464 7.89446 55.0115 7.73102 54.8419C7.6112 54.7178 7.51567 54.6262 7.44781 54.5646C7.41405 54.534 7.38804 54.5114 7.37067 54.4972C7.36088 54.4893 7.35406 54.4845 7.35406 54.4845L7.36578 54.4923C7.13117 54.3473 7.058 54.0387 7.2027 53.8039ZM9.10895 58.0002C9.12611 58.0057 9.14072 58.0087 9.15094 58.0109C9.12822 58.0054 9.10564 57.9992 9.08356 57.9904C9.0942 57.9945 9.10286 57.9982 9.10895 58.0002Z" fill="black"/>
<path d="M0.422394 48.2558C0.694192 48.2073 0.953901 48.3883 1.00247 48.6601C1.11246 49.2767 1.18479 49.726 1.24564 50.1386C1.28925 50.4344 1.32464 50.9542 1.35501 51.5273L1.37552 51.7578C1.41598 51.7527 1.45965 51.7456 1.50638 51.7402C1.85845 51.6993 2.4451 51.6831 2.75149 51.6679C3.06396 51.6524 3.13908 51.6497 3.57669 51.5761C3.6342 51.5665 3.69524 51.555 3.75931 51.5439L3.64505 50.7744C3.60906 50.5467 3.55988 50.3534 3.51224 50.1748C3.46848 50.0107 3.41306 49.8155 3.39212 49.6396L3.39017 49.623L3.38919 49.6054C3.3784 49.3883 3.36942 49.2124 3.35403 49.0625L3.33353 48.8173C3.31798 48.5418 3.52868 48.3058 3.80423 48.29C4.07956 48.2746 4.31571 48.4853 4.33157 48.7607L4.34915 48.957C4.36711 49.1312 4.37629 49.3278 4.38626 49.5283C4.3973 49.6141 4.42687 49.7223 4.47903 49.9179C4.52864 50.104 4.58896 50.3375 4.63333 50.6181C4.68303 50.9327 4.71931 51.1869 4.74466 51.371C4.95154 51.3344 5.15013 51.2992 5.31985 51.2705C5.66073 51.2127 5.8772 51.1853 6.03274 51.1679C6.20356 51.1489 6.25406 51.1468 6.32864 51.1347C6.60055 51.0908 6.74528 51.0513 6.98587 51.0039L7.00931 50.999L7.03274 50.997C7.12836 50.9876 7.19584 50.9809 7.25149 50.9736L7.26224 50.9726C7.31205 50.9672 7.32684 50.967 7.3804 50.9589C7.65324 50.9184 7.90782 51.106 7.94876 51.3789C7.98948 51.6517 7.80066 51.9062 7.52786 51.9472C7.44914 51.959 7.39058 51.9647 7.37161 51.9668L7.37064 51.9658C7.30691 51.9739 7.23609 51.981 7.16263 51.9882C6.98582 52.0237 6.76798 52.0768 6.48782 52.122C6.38228 52.139 6.26216 52.1478 6.1431 52.1611C6.00773 52.1762 5.81046 52.202 5.48685 52.2568C5.06186 52.3288 4.17248 52.49 3.74173 52.5625C3.26219 52.6431 3.1484 52.6497 2.8013 52.6669C2.44759 52.6845 1.93088 52.6976 1.62259 52.7334C1.55979 52.7407 1.50427 52.7495 1.4556 52.7558C1.43237 52.9706 1.27368 53.1538 1.05032 53.1943C0.778762 53.2434 0.518635 53.0634 0.469269 52.7919C0.460255 52.7422 0.446634 52.6733 0.437043 52.5625L0.436066 52.5507C0.413978 52.1978 0.398774 52.0576 0.358918 51.6171L0.357941 51.6074L0.356965 51.5986C0.325883 51.0089 0.292366 50.5294 0.256379 50.2851C0.197116 49.8833 0.126485 49.4434 0.0180973 48.8359C-0.0303464 48.5641 0.15063 48.3044 0.422394 48.2558Z" fill="black"/>
<path d="M0.635293 41.4631C0.907527 41.508 1.09206 41.7649 1.0474 42.0373C1.0374 42.0983 1.03404 42.1259 1.03178 42.1467C1.02638 42.209 1.02502 42.2568 1.01908 42.3547L1.01811 42.3703L1.01615 42.3859C0.994387 42.5635 0.979108 42.8673 1.06498 43.5763C1.10612 43.9161 1.11863 44.1965 1.12065 44.4152C1.28622 44.4028 1.51913 44.3907 1.89701 44.381H1.91557C2.27437 44.3852 2.83685 44.3981 3.36576 44.4123C3.36766 44.3348 3.37272 44.2574 3.38139 44.1857C3.39969 44.0345 3.4276 43.8279 3.44779 43.6144C3.45135 43.3136 3.45269 43.0383 3.48588 42.8508L3.48783 42.8371C3.49719 42.7917 3.50922 42.7417 3.52104 42.6896C3.53339 42.6351 3.54839 42.5681 3.56693 42.4797C3.62379 42.2097 3.88871 42.0365 4.15873 42.0929C4.42864 42.1498 4.60182 42.4148 4.54545 42.6847C4.5254 42.7803 4.50964 42.8529 4.49662 42.9103C4.48496 42.9618 4.47656 42.996 4.47025 43.0256L4.45463 43.2375C4.45122 43.3379 4.44902 43.4726 4.44682 43.6535V43.674L4.44486 43.6935C4.42288 43.93 4.39004 44.1698 4.37358 44.3058C4.36875 44.3458 4.36566 44.3947 4.36479 44.4474C4.87715 44.472 5.11893 44.4967 5.41068 44.5226C5.57246 44.537 5.75196 44.5511 5.93217 44.5646C6.11088 44.5781 6.29195 44.5917 6.44877 44.6056C6.70912 44.6288 6.9167 44.6518 7.06693 44.672C7.14148 44.6821 7.20606 44.6919 7.25736 44.7013C7.28262 44.706 7.30946 44.7109 7.33451 44.717C7.34941 44.7206 7.40047 44.7334 7.45365 44.758C7.70377 44.874 7.81229 45.1707 7.69682 45.4211C7.5809 45.6716 7.28427 45.7809 7.03373 45.6652C7.06051 45.6776 7.08116 45.6841 7.08647 45.6857C7.08782 45.6861 7.08925 45.6864 7.09037 45.6867C7.0868 45.686 7.0821 45.6857 7.0767 45.6847C7.04676 45.6792 6.99922 45.6722 6.93315 45.6633C6.80183 45.6456 6.60988 45.6239 6.3599 45.6017C6.21137 45.5885 6.03866 45.5753 5.85795 45.5617C5.6788 45.5482 5.4918 45.5338 5.32182 45.5187C4.98637 45.4889 4.74758 45.4604 4.11674 45.4347C3.48287 45.409 2.46723 45.3876 1.91654 45.381C1.25971 45.3979 1.08743 45.4193 0.937051 45.4386H0.934121C0.85819 45.4481 0.811066 45.4536 0.691934 45.4748C0.420193 45.5232 0.160444 45.3421 0.111855 45.0705C0.102491 45.0177 0.102982 44.9656 0.109902 44.9152C0.10411 44.8717 0.102685 44.827 0.108926 44.7814C0.118011 44.7156 0.15176 44.3487 0.0727932 43.6965C-0.0155857 42.9667 -0.0109064 42.5773 0.0210354 42.2941C0.0247132 42.2334 0.0289738 42.1382 0.0356838 42.0607L0.0366604 42.0529C0.0417132 42.0034 0.0479133 41.9555 0.0610745 41.8752C0.105824 41.6028 0.362853 41.4184 0.635293 41.4631Z" fill="black"/>
<path d="M8.3597 33.9846C8.56555 33.801 8.88084 33.819 9.06478 34.0247C9.24871 34.2306 9.23156 34.5467 9.02571 34.7307C8.97461 34.7764 8.95151 34.7999 8.91243 34.8382C8.87376 34.876 8.82388 34.9228 8.77767 34.9632L8.76302 34.9768L8.74642 34.9886C8.65208 35.0584 8.54502 35.129 8.4515 35.1907C8.35279 35.2558 8.2606 35.3174 8.17513 35.3811C7.90431 35.5831 7.69665 35.6934 7.42415 35.8733C6.99349 36.1576 6.51055 36.4948 6.18099 36.6614C5.9435 36.7815 5.72536 36.875 5.3763 36.928C5.08502 36.9722 4.84569 37.0123 4.67025 37.0442C4.66205 37.3704 4.67312 37.819 4.68099 38.0872C4.79987 38.1164 4.89701 38.1393 5.02376 38.1682C5.1653 38.2005 5.33628 38.2402 5.59896 38.3059C6.0742 38.425 6.98475 38.6499 7.45931 38.7835C7.71185 38.8546 7.85678 38.8981 7.94271 38.9261C8.01149 38.9485 8.0913 38.9748 8.16439 39.0237C8.39368 39.1774 8.45465 39.4887 8.30111 39.718C8.14729 39.947 7.83697 40.0083 7.60775 39.8548C7.66616 39.8939 7.71576 39.9042 7.63314 39.8772C7.56741 39.8558 7.43837 39.8169 7.18782 39.7464C6.73144 39.6179 5.84268 39.3976 5.35579 39.2757C5.10159 39.212 4.93769 39.174 4.80111 39.1429C4.66468 39.1117 4.54748 39.086 4.39583 39.0481C3.68217 38.8699 3.52028 38.83 3.34505 38.7962C3.19438 38.7671 3.03173 38.7507 2.86361 38.7366C2.70966 38.7237 2.52441 38.711 2.37923 38.6878L2.34798 38.6829L2.31868 38.6751C1.87823 38.5473 1.44432 38.4208 1.347 38.3929L1.20443 38.3626C0.974509 38.3177 0.812807 38.1217 0.801107 37.8977C0.70781 37.8323 0.634282 37.7371 0.602865 37.6184C0.56957 37.4923 0.545565 37.4019 0.535482 37.2747L0.534506 37.2639V37.2532C0.525796 36.9962 0.586699 36.6219 0.726889 36.1458L0.735678 36.1155L0.74935 36.0852C0.836795 35.8872 0.892139 35.746 0.939779 35.6272C0.985037 35.5144 1.03268 35.3955 1.09993 35.2825C1.15965 35.1823 1.24252 35.0489 1.34407 34.9241C1.44411 34.8012 1.58644 34.6566 1.77864 34.5628C1.94312 34.4826 2.3898 34.2803 2.88021 34.3665C3.0708 34.4 3.28336 34.4393 3.47103 34.4964C3.64433 34.5491 3.88128 34.6402 4.05111 34.8274C4.18794 34.9783 4.39884 35.2228 4.50325 35.5081C4.55857 35.6593 4.60715 35.8201 4.639 36.0345C4.81353 36.0045 5.01372 35.9721 5.22689 35.9397C5.43588 35.908 5.54942 35.861 5.72982 35.7698C5.99093 35.6378 6.3878 35.3589 6.87337 35.0384C7.24729 34.7915 7.32525 34.7675 7.57747 34.5794C7.68889 34.4963 7.8031 34.4201 7.90071 34.3557C7.99576 34.2931 8.0718 34.2423 8.13607 34.1956C8.15796 34.1757 8.18468 34.1503 8.21224 34.1233C8.24671 34.0896 8.28811 34.0487 8.3597 33.9846ZM2.45833 35.3704C2.36442 35.3949 2.2793 35.4319 2.21712 35.4622C2.20705 35.4673 2.17284 35.4895 2.11946 35.555C2.06696 35.6195 2.0154 35.7001 1.95931 35.7942C1.93759 35.8308 1.91539 35.88 1.86751 35.9993C1.82484 36.1057 1.76647 36.2508 1.68099 36.4466C1.5614 36.8569 1.53252 37.1021 1.53353 37.2073C1.53462 37.2177 1.53575 37.227 1.53841 37.2395C1.5435 37.2633 1.55184 37.2961 1.56966 37.3636C1.5746 37.3823 1.57573 37.4014 1.57845 37.4202L1.60091 37.4251L1.61068 37.428C1.68399 37.4489 2.11518 37.5755 2.55599 37.7034C2.65005 37.717 2.77214 37.7259 2.94661 37.7405C3.11948 37.755 3.32791 37.7749 3.5345 37.8147C3.58032 37.8236 3.62516 37.8342 3.67513 37.845C3.66841 37.5544 3.66265 37.19 3.67318 36.9212C3.69977 36.2447 3.62621 36.0224 3.5638 35.8518C3.53346 35.769 3.44934 35.6531 3.31575 35.5052C3.32663 35.5163 3.30222 35.4906 3.18001 35.4534C3.05735 35.4161 2.90012 35.3849 2.70638 35.3509C2.63831 35.339 2.55395 35.3455 2.45833 35.3704Z" fill="black"/>
<path d="M4.30839 26.2353C4.45148 25.9992 4.75976 25.9234 4.99589 26.0663C5.23158 26.2095 5.3067 26.5169 5.16386 26.7529C5.14648 26.7815 5.1365 26.7977 5.1287 26.8124C5.12681 26.8174 5.12493 26.8261 5.12089 26.8378C5.11291 26.861 5.10241 26.893 5.08964 26.9364C5.06377 27.0245 5.03054 27.1485 4.9871 27.3193L4.98612 27.3202C4.92461 27.5612 4.87891 27.7863 4.83769 27.9902C4.79832 28.1849 4.75966 28.3819 4.71659 28.5351C4.62841 28.8483 4.45934 29.1956 4.30058 29.4872L4.48515 29.5614L4.49394 29.5654L4.50175 29.5683C4.66228 29.6357 4.88492 29.728 5.60429 30.0185C5.74928 30.077 5.91945 30.1452 6.10429 30.2197C6.20149 29.981 6.30946 29.7025 6.3914 29.4579C6.50883 29.1074 6.61384 28.8172 6.69413 28.6015C6.78008 28.3706 6.82562 28.2564 6.83866 28.2157L6.84355 28.2001L6.84941 28.1845C6.92057 28.0038 6.97477 27.8835 7.03202 27.789C7.04282 27.771 7.06895 27.7264 7.10038 27.6747C7.24398 27.4392 7.55115 27.3644 7.78691 27.5077C8.02242 27.6513 8.09713 27.9585 7.9539 28.1943C7.92148 28.2475 7.91296 28.2634 7.88944 28.3027L7.85624 28.3691C7.8393 28.406 7.8146 28.463 7.78007 28.5507C7.75175 28.632 7.69464 28.7808 7.63163 28.9501C7.55389 29.159 7.45257 29.4382 7.33964 29.7753C7.25207 30.0367 7.13807 30.3326 7.033 30.5907C7.3191 30.7045 7.60504 30.8187 7.86601 30.9198C8.46563 31.1522 8.97488 31.3343 9.28495 31.453C9.31236 31.3376 9.35004 31.1769 9.39726 30.9794C9.45921 30.7203 9.53842 30.4121 9.62675 30.1738C9.78757 29.7401 9.84146 29.5939 9.95194 29.2812C10.0213 29.0848 10.1013 28.8311 10.1638 28.6171C10.195 28.5105 10.2214 28.4164 10.239 28.3476C10.2479 28.3131 10.2533 28.2878 10.2566 28.2724C10.264 28.2375 10.2537 28.2723 10.2537 28.3251C10.2538 28.0491 10.4786 27.8251 10.7546 27.8251C11.0305 27.8255 11.2537 28.0493 11.2537 28.3251C11.2536 28.3951 11.2384 28.465 11.2351 28.4804C11.2278 28.5147 11.2173 28.5547 11.2068 28.5956C11.1854 28.6789 11.1568 28.7845 11.1238 28.8974C11.0579 29.1228 10.9726 29.3952 10.8953 29.6142C10.782 29.9348 10.7251 30.0875 10.5642 30.5214C10.499 30.6975 10.4319 30.9535 10.3699 31.2128C10.3133 31.4495 10.2551 31.7165 10.2195 31.8447L10.2166 31.8525L10.2146 31.8613C10.1872 31.9477 10.1474 32.0668 10.1179 32.1581C10.1041 32.2013 10.0947 32.2317 10.0847 32.2636L10.0818 32.2675C10.026 32.4827 9.83296 32.6423 9.60038 32.6425C9.48889 32.6425 9.38664 32.6046 9.30351 32.5429C9.26807 32.5256 9.19403 32.4923 9.05351 32.4345C8.7704 32.318 8.29151 32.1573 7.50468 31.8525C7.17107 31.7232 6.79734 31.5743 6.43534 31.4296C6.33152 31.4508 6.22061 31.4413 6.11796 31.3915C6.03838 31.3527 5.97466 31.2945 5.92753 31.2265C5.66522 31.1209 5.42462 31.0237 5.23026 30.9452C4.53254 30.6635 4.29684 30.5657 4.13066 30.496C3.79861 30.3701 3.65262 30.3073 3.56425 30.2704C3.46767 30.2725 3.36923 30.2477 3.28202 30.1913C3.1298 30.0926 3.04952 29.9248 3.05448 29.7558C3.05329 29.7112 3.05676 29.6654 3.06816 29.62C3.09129 29.5284 3.13915 29.4496 3.20194 29.3876C3.37684 29.1054 3.65285 28.6228 3.7537 28.2646C3.78404 28.1567 3.8139 28.0062 3.85722 27.7919C3.89874 27.5866 3.94905 27.3397 4.01737 27.0722C4.10082 26.7441 4.16392 26.5161 4.22441 26.3857L4.22831 26.3779L4.23222 26.371C4.26081 26.3143 4.28938 26.2666 4.30839 26.2353Z" fill="black"/>
<path d="M9.08845 18.3621C9.35024 18.2748 9.63377 18.4167 9.72126 18.6785L9.77693 18.8543L9.77888 18.864C9.78298 18.8801 9.79554 18.9189 9.86677 19.1209L10.234 20.1668L10.2369 20.1756L10.2389 20.1834C10.403 20.7144 10.6618 21.5497 10.7828 22.073C10.8542 22.3819 10.9007 22.6043 10.9303 22.7674L10.9479 22.7801C10.9847 22.8033 11.0333 22.8331 11.0992 22.8728C11.2108 22.9401 11.3658 23.0349 11.5035 23.158C11.6089 23.2521 11.9197 23.5095 12.4176 23.782C12.7512 23.9646 12.9946 24.1012 13.1676 24.2049C13.3251 24.2993 13.4705 24.3932 13.566 24.489C13.7606 24.6846 13.7605 25.0012 13.565 25.1961C13.3696 25.3905 13.0529 25.3901 12.858 25.1951C12.8547 25.1929 12.8084 25.1559 12.6539 25.0633C12.499 24.9704 12.27 24.8412 11.9371 24.659C11.3617 24.344 10.989 24.0394 10.8365 23.9031C10.7764 23.8494 10.6956 23.7974 10.5826 23.7293C10.5381 23.7024 10.4814 23.6656 10.4205 23.6258C10.3729 23.6205 10.3274 23.6102 10.2848 23.5926C10.1536 23.6072 9.97815 23.634 9.75837 23.6687C9.47766 23.7131 9.32613 23.722 8.84626 23.7215C8.42753 23.721 7.6459 23.7194 7.17536 23.7205C6.7057 23.7215 6.57315 23.7247 6.48493 23.7273C6.39474 23.7301 6.34887 23.7327 6.30036 23.7351C6.02504 23.7484 5.79085 23.5358 5.77693 23.2605C5.76328 22.9849 5.97592 22.75 6.25153 22.7361C6.30325 22.7336 6.35582 22.7313 6.45466 22.7283C6.55664 22.7252 6.70009 22.7215 7.17341 22.7205C7.64625 22.7194 8.43069 22.721 8.84821 22.7215C9.30668 22.722 9.39756 22.7138 9.60212 22.6814C9.69837 22.6662 9.79413 22.6541 9.88435 22.6404C9.86377 22.5438 9.83981 22.4303 9.80915 22.2976C9.69838 21.8185 9.45278 21.026 9.28376 20.4793C9.0999 19.9509 8.9898 19.6412 8.92341 19.4529C8.86137 19.277 8.82753 19.1817 8.80915 19.1092L8.81013 19.1082C8.80425 19.0877 8.79544 19.0649 8.77204 18.9949C8.68482 18.7333 8.82695 18.4498 9.08845 18.3621Z" fill="black"/>
<path d="M18.6465 8.3957L18.7471 8.4289L18.8604 8.49531C18.8908 8.51778 18.9142 8.53905 18.9297 8.5539C18.9638 8.58667 18.9935 8.62131 19.0146 8.64667C19.0365 8.67284 19.061 8.70336 19.082 8.72968C19.1044 8.75766 19.1273 8.78719 19.1533 8.81855C19.3702 9.07953 19.6366 9.40663 19.8115 9.66034C19.9116 9.80549 20.0335 9.97253 20.1738 10.1672C20.3122 10.3591 20.4646 10.5734 20.6182 10.801C20.7758 11.0346 20.9337 11.2914 21.0811 11.5217C21.231 11.7561 21.3841 11.985 21.6328 12.3244C21.8651 12.6414 22.2453 13.1287 22.4463 13.4123C22.7455 13.8347 22.8307 13.9604 22.874 14.0129C23.05 14.2255 23.02 14.5409 22.8076 14.717C22.5949 14.8929 22.2795 14.8632 22.1035 14.6506C22.0283 14.5596 21.9016 14.3727 21.6309 13.9904C21.4226 13.6964 21.1056 13.2975 20.8262 12.9162C20.5633 12.5576 20.3985 12.3103 20.2383 12.0598C20.0754 11.8051 19.9381 11.5805 19.7891 11.3596C19.6893 11.2117 19.5867 11.0705 19.4893 10.9338C19.5074 11.0018 19.527 11.0662 19.542 11.1252C19.667 11.6176 19.6869 12.0484 19.7158 12.4572C19.7323 12.6904 19.7502 12.8663 19.7656 13.0148C19.7807 13.1599 19.7955 13.2954 19.8018 13.4279C19.8222 13.8635 19.8818 14.3437 19.9033 14.4797C19.936 14.6857 19.9603 14.7731 19.9971 14.967C20.014 15.0368 20.0332 15.109 20.0518 15.1818C20.0719 15.261 20.0924 15.3428 20.1104 15.4172L20.1143 15.4299C20.1208 15.4601 20.1243 15.4939 20.1309 15.5373C20.1529 15.557 20.1777 15.5783 20.2041 15.6037C20.4028 15.7951 20.409 16.1118 20.2178 16.3107C20.0265 16.5093 19.7097 16.5154 19.5107 16.3244C19.4723 16.2875 19.4536 16.2713 19.4443 16.2639C19.4383 16.2591 19.4336 16.2557 19.417 16.2453C19.3141 16.1839 19.2042 16.1215 19.1084 16.0686C18.925 15.9896 18.6973 15.8903 18.5186 15.8166C18.4027 15.7689 18.305 15.7206 18.2236 15.6789C18.139 15.6355 18.0791 15.6035 18.0117 15.5734C17.8634 15.5074 17.5399 15.362 16.667 15.0324C16.2459 14.8735 15.6329 14.6504 15.1094 14.4543C15.1448 14.5057 15.182 14.5608 15.2217 14.6184C15.3251 14.7683 15.3562 14.8044 15.8311 15.4094C16.2903 15.9946 17.1853 17.1085 17.625 17.7199C17.8625 18.0503 17.9939 18.2413 18.0664 18.3537C18.1018 18.4087 18.1288 18.4534 18.1484 18.4904C18.158 18.5085 18.1701 18.5348 18.1816 18.5647C18.1895 18.5849 18.2178 18.6573 18.2178 18.7522C18.2174 19.0279 17.9936 19.252 17.7178 19.2522C17.5101 19.2521 17.3314 19.1248 17.2559 18.9445C17.2499 18.9346 17.2403 18.9186 17.2256 18.8957C17.1671 18.805 17.0481 18.6302 16.8135 18.3039C16.3902 17.7152 15.5217 16.6353 15.0439 16.0266C14.5826 15.4387 14.5245 15.3686 14.3984 15.1857C13.8802 14.434 13.7173 14.2068 13.6133 14.0422C13.5462 13.936 13.4945 13.8198 13.46 13.7395C13.451 13.7186 13.4421 13.6978 13.4346 13.6799C13.4269 13.6617 13.4201 13.6461 13.4141 13.632C13.4023 13.6048 13.3966 13.5933 13.3955 13.591C13.3911 13.5828 13.3516 13.5128 13.3369 13.4182C13.3294 13.3692 13.3177 13.2464 13.3857 13.1125C13.4682 12.9509 13.6132 12.8735 13.7305 12.8488C13.8278 12.8284 13.9067 12.8425 13.9375 12.8488C13.9745 12.8565 14.0034 12.8671 14.0195 12.8732C14.0515 12.8855 14.078 12.8982 14.0898 12.9045C14.1247 12.9229 14.1983 12.9679 14.2373 12.9904C14.3484 13.0547 14.5352 13.1562 14.8145 13.2697C15.35 13.4875 16.3568 13.8463 17.0205 14.0969C17.9123 14.4335 18.2537 14.5867 18.4189 14.6604C18.5174 14.7042 18.6078 14.7514 18.6797 14.7883C18.7552 14.827 18.8229 14.8603 18.8994 14.8918L18.9697 14.9221C18.9528 14.8372 18.9328 14.7417 18.916 14.6359C18.8894 14.4678 18.8251 13.9509 18.8027 13.4748C18.7981 13.377 18.7877 13.2736 18.7715 13.1184C18.7557 12.9666 18.7354 12.7781 18.7178 12.5285C18.6869 12.0921 18.6708 11.7593 18.5723 11.3713C18.4952 11.0678 18.362 10.596 18.2686 10.2941C18.1655 9.96093 18.0548 9.59798 17.999 9.32831C17.9744 9.20912 17.9447 9.03926 17.9629 8.88886C17.9704 8.82702 18 8.63022 18.1787 8.4914C18.3467 8.3612 18.5248 8.36607 18.6465 8.3957ZM17.249 18.924C17.2499 18.9263 17.2511 18.9288 17.252 18.9309C17.2435 18.9088 17.2358 18.8859 17.2305 18.8625C17.2381 18.8957 17.2467 18.9181 17.249 18.924ZM14.2949 13.1584V13.1555L14.2744 13.1135C14.2821 13.1277 14.288 13.144 14.2949 13.1584Z" fill="black"/>
<path d="M24.8988 5.17969C24.9893 5.17971 25.057 5.2044 25.0834 5.21484C25.1154 5.22761 25.1403 5.24114 25.1537 5.24902C25.1802 5.26475 25.1998 5.28022 25.2074 5.28613C25.2238 5.29899 25.2364 5.3106 25.2406 5.31445C25.2502 5.32336 25.2593 5.33214 25.263 5.33594C25.2718 5.34478 25.2843 5.3578 25.2953 5.36914C25.3195 5.39409 25.3564 5.4319 25.4085 5.48438C25.5138 5.5904 25.6856 5.76046 25.9496 6.00977C26.2766 6.3185 26.8364 6.72567 27.4613 7.17578C28.068 7.6128 28.6971 8.03435 29.0609 8.2793C29.4672 8.55289 29.6828 8.70024 29.9867 8.9502L30.3304 9.24316L30.3314 9.24414C30.4306 9.33114 30.4557 9.34933 30.5033 9.38965C30.5453 9.42526 30.5745 9.45215 30.6439 9.50098C30.8695 9.65987 30.9237 9.97151 30.765 10.1973C30.6062 10.4228 30.2945 10.4777 30.0687 10.3193C29.9573 10.241 29.8949 10.1857 29.8568 10.1533C29.8242 10.1257 29.7799 10.0906 29.6732 9.99707L29.3597 9.72949C29.0839 9.50211 28.8927 9.37126 28.5023 9.1084C28.3011 8.9729 28.0125 8.77681 27.6878 8.55371C27.6591 8.68319 27.5812 8.80163 27.4584 8.875C27.4055 8.90655 27.3738 8.92574 27.3539 8.93848C27.3347 8.95074 27.3245 8.95757 27.308 8.96875L27.3041 8.97168C27.2321 9.01928 27.1131 9.10155 26.7796 9.25293L26.7552 9.26465L26.7298 9.27246C26.1943 9.44992 25.7309 9.60603 25.5033 9.72754C25.4405 9.76106 25.4067 9.78022 25.3919 9.78906C25.3711 9.80411 25.3485 9.81724 25.3255 9.8291C25.3308 9.88661 25.3346 9.94392 25.3402 10C25.4453 11.0593 25.6152 11.8033 25.6957 12.2773C25.7424 12.5526 25.7685 12.7209 25.7826 12.8223C25.7943 12.9072 25.8021 12.971 25.8021 13.0146C25.8019 13.2906 25.578 13.5145 25.3021 13.5146C25.0261 13.5146 24.8023 13.2906 24.8021 13.0146C24.8021 13.0441 24.8045 13.0631 24.8021 13.041C24.8008 13.0287 24.7984 13.0027 24.7923 12.959C24.7802 12.8712 24.756 12.7138 24.7103 12.4443C24.6392 12.0256 24.4547 11.2035 24.3451 10.0986C24.2356 8.99559 24.1925 7.62258 24.1791 6.83691C24.1655 6.0438 24.1832 5.85633 24.2044 5.64551C24.2322 5.37087 24.4777 5.1707 24.7523 5.19824C24.7559 5.19861 24.7595 5.19976 24.763 5.2002C24.8063 5.18796 24.8516 5.17969 24.8988 5.17969ZM25.3959 9.78613C25.398 9.78464 25.401 9.78322 25.4037 9.78125C25.4082 9.77786 25.4163 9.77105 25.4261 9.7627C25.4277 9.76126 25.4293 9.75827 25.432 9.75586C25.4203 9.76632 25.4085 9.77679 25.3959 9.78613ZM25.4691 9.71973C25.4719 9.71669 25.476 9.71428 25.4789 9.71094C25.4817 9.70752 25.4835 9.70137 25.4876 9.69629C25.4814 9.70404 25.4758 9.71236 25.4691 9.71973ZM25.5306 9.63672C25.5318 9.63476 25.5334 9.63289 25.5345 9.63086C25.5363 9.62768 25.5369 9.62277 25.5394 9.61816C25.5362 9.62419 25.534 9.63083 25.5306 9.63672ZM25.599 9.38184L25.6 9.37891C25.5996 9.35083 25.5961 9.323 25.5912 9.2959C25.5962 9.32383 25.5988 9.3525 25.599 9.38184ZM25.3675 8.96387C25.3623 8.96056 25.3572 8.95629 25.3519 8.95312C25.3436 8.94827 25.3338 8.94459 25.3255 8.94043C25.3398 8.94767 25.3541 8.95533 25.3675 8.96387ZM25.1791 6.82031C25.1874 7.30914 25.2096 8.01987 25.2494 8.74414C25.5676 8.60607 25.9968 8.4623 26.3841 8.33398C26.5152 8.27401 26.5971 8.23183 26.6478 8.20312C26.6981 8.17464 26.7209 8.15846 26.7523 8.1377C26.7852 8.11543 26.8235 8.08895 26.931 8.02441C26.9133 8.01173 26.895 8.00002 26.8773 7.9873C26.2735 7.55242 25.6495 7.10118 25.263 6.73633C25.233 6.70792 25.205 6.67883 25.1771 6.65234C25.1778 6.70468 25.178 6.7608 25.1791 6.82031Z" fill="black"/>
<path d="M33.4818 1.62616C34.0322 1.6669 34.4202 1.7654 34.7005 1.89277C34.9933 2.0258 35.1493 2.18151 35.2425 2.29511C35.4384 2.53383 35.4968 2.82488 35.515 3.04999C35.5337 3.28183 35.5143 3.51772 35.4964 3.69745C35.4622 4.04213 35.3451 4.31189 35.1488 4.54902C34.9736 4.76031 34.7367 4.94009 34.513 5.11249C34.4599 5.15341 34.3999 5.19237 34.3363 5.22968C34.7179 5.32387 35.1297 5.42404 35.4242 5.50116C36.3044 5.7317 36.6693 5.95497 36.9818 6.15351C37.1024 6.23015 37.1972 6.3282 37.2621 6.39863L37.4525 6.60761L37.4574 6.61249C37.6824 6.84885 37.7573 6.90909 38.0199 7.0705C38.0675 7.09686 38.0891 7.10716 38.1918 7.15253C38.4441 7.26419 38.558 7.55926 38.4466 7.81171C38.335 8.06425 38.04 8.17818 37.7875 8.06659C37.6824 8.02018 37.6239 7.99516 37.5277 7.94159L37.5189 7.93671L37.5101 7.93085C37.1626 7.71782 37.021 7.6047 36.7328 7.30195C36.653 7.22001 36.5666 7.1207 36.5257 7.07636C36.4997 7.04806 36.4811 7.02859 36.4662 7.01484C36.4539 7.00353 36.4469 6.99913 36.4457 6.99824C36.2012 6.84292 35.9308 6.66811 35.1703 6.46894C34.6627 6.33601 33.8055 6.12767 33.348 6.01386C33.195 5.97579 33.086 5.94608 33.0062 5.92499C33.0348 6.00274 33.0622 6.08173 33.0912 6.16034C33.254 6.60225 33.4193 7.05119 33.5404 7.3996C33.7754 8.07617 33.8725 8.41551 33.8929 8.71503C33.9063 8.91057 33.9125 9.05229 33.9154 9.14765C33.9168 9.19528 33.9171 9.23154 33.9173 9.25702C33.9175 9.2749 33.9174 9.29075 33.9173 9.29511C33.9173 9.57125 33.6935 9.79511 33.4173 9.79511C33.1414 9.79489 32.9173 9.57112 32.9173 9.29511C32.9174 9.29105 32.9177 9.25626 32.9154 9.17792C32.9129 9.09632 32.9074 8.96658 32.8949 8.78241C32.8849 8.63723 32.8371 8.42149 32.596 7.72773C32.4789 7.3904 32.3169 6.95256 32.1527 6.50702C31.9897 6.06468 31.8233 5.61369 31.7015 5.25995C31.4556 4.54546 31.3955 4.24001 31.3636 4.01581L31.3597 3.98456L31.3587 3.95331C31.3546 3.68601 31.3631 3.44617 31.3724 3.25409C31.3771 3.15648 31.3806 3.07861 31.3841 3.01581C31.2345 2.79163 31.2889 2.48824 31.5101 2.33124C31.5252 2.32052 31.5456 2.30712 31.5736 2.28827C31.5888 2.27684 31.6049 2.26673 31.6214 2.25702C31.7333 2.18383 31.9336 2.05733 32.3128 1.83515C32.711 1.60191 33.1076 1.5985 33.4818 1.62616ZM33.4085 2.62324C33.0867 2.59941 32.9463 2.62371 32.8187 2.69843C32.6315 2.80811 32.4919 2.89322 32.3871 2.95722C32.383 3.05559 32.3773 3.18115 32.3714 3.30292C32.3631 3.47574 32.3562 3.68047 32.3587 3.90546C32.3802 4.04717 32.428 4.28769 32.6273 4.87324C32.6445 4.86341 32.6608 4.85451 32.6761 4.84784L33.3607 4.5832C33.6246 4.47852 33.8162 4.38703 33.9027 4.3205C34.1541 4.12672 34.2892 4.01872 34.3783 3.91132C34.4457 3.82999 34.4864 3.74865 34.5013 3.59882C34.5186 3.42504 34.5289 3.2656 34.5179 3.13007C34.5065 2.98891 34.4762 2.9387 34.4691 2.92988C34.4552 2.91293 34.4164 2.86195 34.2865 2.80292C34.1438 2.73816 33.8796 2.65811 33.4085 2.62324Z" fill="black"/>
<path d="M40.7179 0.0217895C40.982 -0.0586604 41.2614 0.0906336 41.3419 0.354797C41.3991 0.542844 41.3382 0.736391 41.2042 0.86261L41.2052 0.864563C41.2079 0.891709 41.2135 0.929705 41.2296 1.01788C41.2598 1.18338 41.3205 1.49464 41.3536 1.71027C41.3706 1.82112 41.3807 1.91181 41.3985 2.05011C41.4169 2.19203 41.4451 2.40025 41.4981 2.76105C41.6039 3.48093 41.8071 4.794 41.922 5.68292C42.0191 6.43465 42.051 6.88246 42.0675 7.14972C42.2651 7.20635 42.416 7.38011 42.4298 7.59698C42.4471 7.87236 42.2383 8.10961 41.963 8.12726C41.798 8.13764 41.8008 8.13424 41.7481 8.13898C41.7099 8.14243 41.6301 8.15473 41.4581 8.14972H41.4444C41.2653 8.13948 41.1159 8.12999 41.0089 8.12335C40.9555 8.12004 40.9134 8.11732 40.8829 8.11554C40.843 8.11321 40.8414 8.11359 40.8526 8.11359C40.5765 8.11359 40.3527 7.88971 40.3526 7.61359C40.3526 7.33744 40.5765 7.11359 40.8526 7.11359C40.8782 7.1136 40.917 7.11612 40.9405 7.11749C40.9718 7.11932 41.0139 7.12126 41.0636 7.12433C41.046 6.8663 41.0134 6.45761 40.9298 5.81085C40.8164 4.93333 40.6169 3.64153 40.5089 2.90656C40.4551 2.54062 40.4264 2.32696 40.4073 2.17902C40.3878 2.02811 40.379 1.95789 40.3644 1.86261C40.3341 1.66555 40.2793 1.384 40.2452 1.19757C40.2383 1.15969 40.2336 1.12587 40.2286 1.09503C40.1833 1.09592 40.1568 1.09698 40.1495 1.09698C39.8736 1.09698 39.6499 0.872833 39.6495 0.596985C39.6495 0.320842 39.8734 0.0960082 40.1495 0.0960082C40.1543 0.0960082 40.2224 0.0969386 40.3517 0.0930785C40.4768 0.0802093 40.5537 0.0659602 40.588 0.0579223C40.6026 0.0545031 40.6122 0.0524223 40.628 0.0481566C40.6453 0.0434929 40.6721 0.0357149 40.7179 0.0217895Z" fill="black"/>
<path d="M46.7906 0.0426076C46.8967 0.0271625 47.0088 0.0444106 47.11 0.0982717C47.1959 0.14406 47.2495 0.203582 47.276 0.235967C47.3244 0.295343 47.3588 0.362013 47.3766 0.3971C47.419 0.481179 47.4842 0.625701 47.5826 0.841436C47.7904 1.2969 48.1646 2.13377 48.4889 2.78871C48.8104 3.4381 49.0692 3.87957 49.2252 4.15687C49.4182 4.5001 49.5534 4.79249 49.6744 5.02308C49.739 5.14622 49.9098 5.50134 50.1354 5.94105L50.1393 5.94886L50.4078 6.48793L50.4117 6.49476L50.4147 6.50257C50.4411 6.55758 50.4686 6.62199 50.5172 6.73597C50.6255 6.98992 50.5074 7.28382 50.2535 7.39222C49.9996 7.50032 49.7056 7.38235 49.5973 7.12855C49.5411 6.99681 49.5278 6.9643 49.5143 6.93617C49.4701 6.85067 49.3899 6.69035 49.2457 6.39808L48.7897 5.48793C48.6312 5.18594 48.5447 4.98605 48.3541 4.6471C48.3076 4.56444 48.2501 4.46152 48.1813 4.33949C48.1427 4.34679 48.103 4.35139 48.0621 4.34925C47.8353 4.33743 47.0778 4.32047 46.7701 4.33168C46.6557 4.34023 46.5742 4.34964 46.5123 4.35707C46.4593 4.36343 46.3873 4.37415 46.3355 4.37855H46.3248L46.315 4.37953C46.2504 4.38236 46.1754 4.3813 46.1197 4.3805C45.9196 4.37758 45.75 4.25682 45.6725 4.08558C45.4351 4.57611 45.3465 4.74522 45.2594 5.06117C45.1563 5.4352 45.0462 5.96736 44.8102 6.48402C44.6839 6.76033 44.582 6.97511 44.5094 7.12367C44.4733 7.19756 44.4441 7.25796 44.4215 7.3014C44.4106 7.32237 44.3991 7.34252 44.3893 7.36C44.3845 7.36841 44.3775 7.38081 44.3697 7.3932C44.3658 7.39936 44.3592 7.40932 44.3512 7.42054C44.346 7.42786 44.3266 7.45557 44.2975 7.485C44.1033 7.68086 43.7866 7.68275 43.5904 7.4889C43.4212 7.32142 43.3972 7.06263 43.5182 6.86878L43.5338 6.83851C43.5509 6.80558 43.577 6.75468 43.6109 6.68519C43.679 6.54603 43.7774 6.3393 43.901 6.06898C44.093 5.64878 44.1692 5.25364 44.2955 4.79554C44.413 4.3694 44.5518 4.10693 44.7779 3.63929C44.9837 3.21376 45.3536 2.39489 45.5572 1.9391C45.7032 1.61244 45.7989 1.35429 45.8707 1.15296C45.9332 0.977933 46 0.773974 46.0748 0.639287C46.1569 0.491578 46.2682 0.366682 46.3629 0.278936C46.4113 0.234093 46.464 0.190825 46.5172 0.154912C46.5436 0.137079 46.5763 0.116383 46.6129 0.0982717C46.6426 0.0836038 46.7073 0.0548029 46.7906 0.0426076ZM43.5367 6.84046C43.5328 6.84599 43.5293 6.85149 43.527 6.85511C43.5442 6.82943 43.564 6.80469 43.5865 6.78187C43.559 6.80976 43.5409 6.8346 43.5367 6.84046ZM46.7965 1.52796C46.7215 1.73682 46.6212 2.00958 46.4703 2.3473C46.3493 2.61823 46.1649 3.02376 45.9918 3.40101C46.0369 3.38836 46.0842 3.37984 46.1334 3.3805C46.1906 3.38133 46.2307 3.38126 46.2594 3.3805C46.2857 3.37793 46.3141 3.37436 46.3932 3.36488C46.47 3.35566 46.5707 3.3447 46.7086 3.33459L46.7164 3.33363H46.7252C46.9376 3.32548 47.3232 3.33075 47.6451 3.33752C47.6279 3.30321 47.6099 3.2685 47.5924 3.23304C47.318 2.67875 47.0099 1.99832 46.7965 1.52796Z" fill="black"/>
<path d="M54.4554 0.815588C54.4628 0.816845 54.4705 0.81692 54.4779 0.818518C54.4792 0.818803 54.4805 0.8192 54.4818 0.819495C54.5052 0.824807 54.5277 0.833342 54.5501 0.841955C54.559 0.84532 54.568 0.847899 54.5765 0.851721C54.624 0.873016 54.667 0.902882 54.7064 0.938635C54.715 0.946412 54.7248 0.952773 54.7328 0.961096L54.7396 0.967932C54.7484 0.977455 54.7549 0.988873 54.763 0.999182C54.7743 1.01351 54.7856 1.02768 54.7953 1.04313C54.7966 1.04526 54.7988 1.04683 54.8001 1.04899C54.8431 1.12035 54.8876 1.21556 54.9867 1.41715C55.0706 1.58786 55.2419 1.90404 55.5707 2.48161C55.8972 3.0552 56.3722 3.86631 56.7718 4.52165C57.1731 5.17961 57.4778 5.64718 57.7347 6.05778C57.9246 6.36124 58.0719 6.60782 58.183 6.79997C58.3027 6.26067 58.4453 5.64401 58.5277 5.27751C58.6518 4.72575 58.6957 4.51217 58.7748 4.14176C58.8416 3.73867 58.9438 3.29964 59.0697 2.92106L59.0716 2.91325C59.1252 2.76 59.1582 2.68882 59.1927 2.60368C59.2968 2.34817 59.5884 2.22554 59.8441 2.32926C60.0997 2.43323 60.2232 2.72491 60.1195 2.98063C60.0752 3.08978 60.0587 3.12126 60.016 3.24333C59.9083 3.56887 59.8166 3.9619 59.7572 4.32633L59.7552 4.33903L59.7523 4.35075C59.6742 4.71675 59.6289 4.93863 59.5033 5.49723C59.384 6.02751 59.158 6.98032 59.0394 7.56559C58.9594 7.96021 58.9069 8.23424 58.8724 8.41032C58.8559 8.4945 58.8418 8.56646 58.8304 8.61442C58.827 8.62894 58.8158 8.67807 58.7962 8.72575C58.7906 8.73962 58.7771 8.77166 58.7543 8.80778C58.745 8.82253 58.6718 8.94354 58.515 9.00602C58.4142 9.04607 58.2873 9.05809 58.1595 9.01188C58.0433 8.96967 57.9714 8.89547 57.9349 8.8488C57.87 8.76555 57.8495 8.68276 57.8451 8.66618C57.8347 8.6269 57.8294 8.5906 57.8275 8.57731C57.8263 8.5688 57.8244 8.55883 57.8236 8.5529C57.8227 8.54633 57.8224 8.54061 57.8216 8.53532C57.8187 8.51523 57.8151 8.49801 57.8099 8.47965C57.7317 8.20523 57.6451 7.9794 57.516 7.66423C57.5152 7.66251 57.5127 7.65612 57.5072 7.64469C57.5001 7.63016 57.4902 7.60955 57.4769 7.58415C57.4502 7.53307 57.4112 7.46352 57.3597 7.37321C57.2567 7.19239 57.1034 6.93387 56.8871 6.58805C56.643 6.19808 56.3219 5.70397 55.9183 5.04215C55.5128 4.37729 55.0324 3.55791 54.7015 2.97673C54.6162 2.8268 54.5419 2.69208 54.475 2.57243C54.384 2.8313 54.2749 3.15569 54.1791 3.49333C54.1023 3.76365 54.0332 3.9194 53.9115 4.45036C53.8263 4.82178 53.7116 5.39857 53.6332 5.87809C53.5528 6.36913 53.5209 6.70715 53.4701 7.06071C53.4283 7.35137 53.3912 7.57771 53.3626 7.73747C53.3373 7.8792 53.3129 8.00152 53.2962 8.05583C53.2148 8.31944 52.935 8.46712 52.6712 8.3859C52.4075 8.30449 52.2599 8.02471 52.3412 7.7609C52.3358 7.77846 52.3487 7.72688 52.3783 7.56169C52.4047 7.41415 52.4405 7.19872 52.4808 6.91813C52.5219 6.63218 52.5659 6.20453 52.6459 5.71598C52.7277 5.21562 52.8471 4.61846 52.9369 4.22673C53.0648 3.6687 53.1629 3.41107 53.2171 3.21989C53.3661 2.69528 53.5399 2.20561 53.6449 1.92106C53.7832 1.54768 53.8264 1.40323 53.8558 1.31169C53.8646 1.28167 53.8732 1.24714 53.8832 1.20133L53.8861 1.18669C53.8994 1.13321 53.9233 1.08307 53.9535 1.0363C53.9577 1.02985 53.9598 1.02201 53.9642 1.01579C53.9964 0.970683 54.0378 0.931876 54.0853 0.898596C54.0916 0.894193 54.0974 0.889035 54.1039 0.884924C54.1072 0.882812 54.1102 0.880133 54.1136 0.878088C54.1302 0.868123 54.1482 0.86151 54.1654 0.853674C54.1746 0.849458 54.1832 0.843656 54.1927 0.840002C54.2116 0.832765 54.2311 0.828226 54.2503 0.823401C54.2627 0.820303 54.2749 0.81677 54.2875 0.814612C54.3102 0.810752 54.333 0.809435 54.3558 0.808752C54.363 0.808527 54.3701 0.80769 54.3773 0.807776H54.3978C54.4172 0.808827 54.4363 0.812308 54.4554 0.815588Z" fill="black"/>
<path d="M65.7535 5.21463C65.6275 5.14527 65.1423 5.11436 64.5582 5.1966C64.423 5.21564 64.1913 5.32248 63.7798 5.52281C63.326 5.74374 63.0632 6.00683 62.9177 6.15445C62.734 6.34083 62.6155 6.53408 62.4829 6.74457C62.2467 7.11951 62.0503 7.51083 61.9311 7.76599C61.8454 7.94949 61.809 8.08638 61.7812 8.18593C61.7607 8.25947 61.6658 8.74512 61.5506 9.50514C61.4855 9.93527 61.5337 10.1549 61.5973 10.3343C61.7582 10.7882 62.3384 11.1841 62.6684 11.4309C62.7496 11.4916 63.0119 11.5846 63.4622 11.7435C63.6945 11.8254 63.9385 11.8992 64.2634 11.9674C64.9827 12.1185 65.5476 12.1529 65.7962 12.1505C66.0669 12.1479 66.2937 12.0923 66.5186 11.9884C66.8772 11.8228 66.9977 11.5292 67.0882 11.3651C67.1776 11.2029 67.3049 10.9368 67.5475 10.3716C67.676 10.072 67.703 9.84924 67.7182 9.67587C67.7437 9.38641 67.7422 8.96113 67.7384 8.50558C67.7328 7.84012 67.6607 7.48609 67.6151 7.19706C67.5262 6.6334 67.207 6.22685 67.1189 6.0737C67.0392 5.93512 66.919 5.79601 66.7078 5.58433C66.6503 5.53884 66.6028 5.5154 66.4902 5.48352C66.3776 5.45165 66.2014 5.41205 66.0125 5.37125" stroke="black" stroke-linecap="round"/>
<path d="M77.8066 15.5817C77.8066 15.5719 77.8899 15.4504 78.0548 15.2577C78.3515 14.9111 78.9992 15.0446 79.246 15.0808C79.8074 15.1633 79.8291 16.1221 79.8122 16.2492C79.7933 16.3916 79.5942 16.4486 79.4631 16.506C79.0165 16.7013 79.3609 17.8775 79.3032 18.047C79.2523 18.1969 78.7485 18.2504 78.1768 18.2848C77.4992 18.3256 77.6609 16.908 77.7083 16.7612C77.8618 16.2854 78.6087 16.1303 79.0179 15.8283C79.1076 15.7622 79.1058 15.6815 79.0745 15.6274C79.0432 15.5734 78.9702 15.5343 78.896 15.5206C78.5185 15.451 77.9992 15.9455 77.7793 16.2443C77.6724 16.3896 77.721 16.5905 77.7512 16.7447C77.7829 16.9057 77.9283 17.0371 78.0996 17.1338C78.1777 17.1778 78.2479 17.1924 78.319 17.1837C78.3901 17.1749 78.4626 17.1375 78.5164 17.0709C78.5703 17.0043 78.6032 16.9095 78.6202 16.8266C78.6372 16.7438 78.6372 16.6756 78.6076 16.7604C78.5779 16.8453 78.5187 17.0852 78.525 17.1632C78.5313 17.2412 78.6048 17.15 78.653 17.0466C78.7487 16.8407 78.7426 16.6189 78.7474 16.5164C78.7479 16.5072 78.7618 16.5908 78.8242 16.6364C78.8866 16.6821 79.0015 16.6888 79.1207 16.6439C79.3809 16.5458 79.5231 16.345 79.582 16.2197C79.6121 16.1559 79.5998 16.0753 79.557 16.046C79.5142 16.0167 79.4302 16.0369 79.3457 16.0949C78.9786 16.3466 78.9918 16.8072 79.0177 17.1191C79.0242 17.1974 78.9884 17.2797 78.948 17.3406C78.9077 17.4015 78.8541 17.4385 78.7667 17.452C78.5624 17.4834 78.2561 17.3739 77.9455 17.247C77.7344 17.1608 77.589 16.8977 77.4647 16.5657C77.3456 16.2475 77.5152 15.8873 77.5198 15.619C77.5207 15.5672 77.4247 15.5617 77.3603 15.5581C77.2327 15.551 77.105 15.6265 76.9883 15.7397C76.8722 15.8524 76.8346 16.0007 76.8254 16.1346C76.8031 16.4571 77.1445 16.7317 77.402 16.895C77.641 17.0465 77.6086 17.3977 77.6369 17.6929C77.6509 17.8393 77.8851 17.9148 78.1115 17.9807C78.4948 18.0923 78.7249 17.7978 78.9838 17.6196C79.1948 17.4745 79.4333 17.5582 79.5674 17.5239C79.6865 17.4934 79.6993 17.2537 79.709 17.0223C79.7122 16.8589 79.6728 16.7394 79.5815 16.6339C79.5295 16.5824 79.466 16.535 79.2963 16.4267" stroke="black" stroke-linecap="round"/>
<path d="M86.3038 25.9358C86.4404 25.6962 86.7457 25.6122 86.9855 25.7483C87.2772 25.9144 87.5237 26.1446 87.7521 26.467L87.8497 26.6106L87.8653 26.635L87.878 26.6614C87.9331 26.7746 87.9901 26.8876 88.046 26.9944L88.2081 27.2922L88.212 27.2981C88.272 27.4059 88.3143 27.493 88.3849 27.6662C88.489 27.922 88.3662 28.2135 88.1105 28.3176C87.8547 28.4216 87.5632 28.2989 87.4591 28.0432C87.4173 27.9407 87.3914 27.8871 87.3663 27.8391C87.3232 27.881 87.2759 27.9252 87.2237 27.966C87.0982 28.0643 86.9349 28.1692 86.7452 28.2571C86.4712 28.3841 86.1291 28.5696 84.9552 29.3293C84.2594 29.7796 83.3515 30.0819 82.7062 30.3362C81.8687 30.666 81.2434 30.6749 80.7355 30.7541C80.4654 30.7963 80.1349 30.922 78.9122 30.9612C78.3005 30.9806 77.8632 30.7712 77.5528 30.466C77.1928 30.1117 77.1658 29.615 77.2091 29.2727L77.2237 29.1623L77.2833 29.0676C77.3897 28.8997 77.5224 28.7694 77.629 28.6721C77.6979 28.6092 77.7654 28.5508 77.9767 28.4055C78.204 28.2492 78.5154 28.3064 78.672 28.5334C78.8284 28.761 78.7705 29.0723 78.5431 29.2287C78.4495 29.2931 78.3976 29.3322 78.3663 29.3567C78.3388 29.3783 78.3252 29.3908 78.3038 29.4104H78.3028C78.2585 29.4509 78.2231 29.4863 78.1944 29.5178C78.1944 29.568 78.198 29.6125 78.2062 29.6496C78.2198 29.7113 78.2405 29.7397 78.254 29.7532C78.3705 29.8677 78.543 29.9728 78.88 29.9621C80.021 29.9256 80.2318 29.8204 80.5812 29.7659C81.2204 29.6661 81.6397 29.6813 82.3399 29.4055C83.0688 29.1184 83.8257 28.8684 84.4112 28.4895C85.5858 27.7293 85.9801 27.5094 86.3243 27.3498C86.44 27.2962 86.5386 27.2329 86.6075 27.1789C86.6418 27.152 86.6646 27.13 86.6769 27.1174C86.6784 27.1158 86.6808 27.1135 86.6808 27.1135C86.6788 27.1159 86.6654 27.1331 86.6505 27.1623C86.699 27.0669 86.7745 26.9941 86.8624 26.9475C86.7327 26.7843 86.6125 26.6865 86.4913 26.6174C86.2517 26.4807 86.1675 26.1756 86.3038 25.9358Z" fill="black"/>
<path d="M87.8526 30.7103C88.0477 30.5154 88.3644 30.5155 88.5597 30.7103C88.6356 30.7862 88.7188 30.8995 88.7911 31.0052C88.8704 31.1212 88.9602 31.2631 89.0509 31.4164C89.2308 31.7204 89.4279 32.0928 89.5626 32.4271C89.7034 32.7768 89.7613 33.1398 89.8048 33.4847L89.8458 33.8236L89.8478 33.8334C89.8568 33.9185 89.8645 33.9658 89.8741 34.0072C89.8861 34.0583 89.8992 34.0999 89.9669 34.3392C90.042 34.6049 89.8878 34.8812 89.6222 34.9564C89.3565 35.0315 89.0802 34.8773 89.005 34.6117C88.9452 34.4004 88.9195 34.315 88.9005 34.2337C88.8799 34.1455 88.8656 34.0591 88.8536 33.9486C88.7895 33.4412 88.762 33.1157 88.6349 32.8002C88.5259 32.5297 88.356 32.2058 88.1905 31.9261C88.186 31.9184 88.1804 31.9113 88.1759 31.9037C87.9009 32.007 87.4437 32.147 86.9815 32.2201C86.8169 32.2461 86.6557 32.2939 86.4913 32.3519C86.3502 32.4017 86.1436 32.4834 85.9923 32.5306C85.9662 32.5388 85.9377 32.5461 85.9083 32.555C85.9192 32.5811 85.9332 32.6066 85.9435 32.6341C86.0001 32.7856 86.0543 32.9752 86.0939 33.1849C86.1544 33.506 86.1711 33.7005 86.2716 33.9379C86.415 34.1832 86.5102 34.4296 86.5753 34.6654L86.6339 34.9105L86.6358 34.9203C86.6392 34.9383 86.6423 34.96 86.6446 34.973C86.6474 34.9881 86.6503 34.9997 86.6524 35.0101C86.6568 35.031 86.6599 35.0427 86.6622 35.0492C86.7538 35.3094 86.6166 35.5949 86.3565 35.6869C86.0963 35.7785 85.8107 35.6414 85.7189 35.3812C85.6806 35.2726 85.6628 35.1604 85.6544 35.1127L85.6114 34.932C85.5622 34.7535 85.4928 34.5804 85.3917 34.4144L85.3741 34.3851L85.3605 34.3539C85.1946 33.9734 85.1549 33.6008 85.1114 33.3705C85.0823 33.2162 85.0424 33.0821 85.006 32.9847C84.9879 32.9364 84.9727 32.9014 84.962 32.8802L84.9845 32.9046C84.9666 32.8855 84.9519 32.8642 84.9376 32.8431C84.743 32.9007 84.5537 32.9565 84.3937 33.0082C84.2731 33.047 84.1335 33.1122 83.9054 33.2093C83.6925 33.2999 83.4332 33.4042 83.1329 33.4886C82.9449 33.5415 82.757 33.6374 82.5714 33.7582C82.5774 33.7732 82.5829 33.7914 82.5919 33.8109C82.6343 33.9031 82.6906 34.0012 82.7569 34.1166C82.8127 34.2136 82.8945 34.3548 82.9415 34.4828C83.0217 34.7012 83.0896 34.8741 83.1524 35.0316C83.2147 35.1878 83.2751 35.3362 83.3351 35.4955L83.3399 35.5072L83.3429 35.5189C83.4307 35.7918 83.5121 36.0544 83.5665 36.2347L83.5948 36.3187C83.6087 36.3526 83.6339 36.4077 83.6847 36.5072C83.8102 36.7531 83.7127 37.0544 83.4669 37.18C83.221 37.3055 82.9196 37.2082 82.794 36.9623C82.6746 36.7283 82.6436 36.6375 82.6095 36.5248C82.5577 36.353 82.4803 36.1018 82.3966 35.8412C82.3419 35.6962 82.2877 35.5621 82.2237 35.4017C82.1594 35.2403 82.0877 35.0581 82.003 34.8275C81.9916 34.7966 81.9596 34.7363 81.8897 34.6146C81.8303 34.5112 81.7489 34.3707 81.6837 34.2289C81.6214 34.0933 81.5472 33.9018 81.5431 33.6947C81.5385 33.4549 81.6302 33.1952 81.88 33.0189L82.0929 32.8773C82.3169 32.7375 82.576 32.6062 82.8624 32.5257C83.1017 32.4585 83.3152 32.3739 83.5138 32.2894C83.6968 32.2115 83.9084 32.1143 84.086 32.057C84.5296 31.914 85.4135 31.6642 85.6944 31.5765C85.831 31.5339 85.9469 31.4845 86.1593 31.4095C86.3484 31.3428 86.574 31.2715 86.8253 31.2318C87.166 31.1779 87.4974 31.0805 87.711 31.0082C87.7233 30.8995 87.7695 30.7937 87.8526 30.7103Z" fill="black"/>
<path d="M89.9883 37.6565C90.2626 37.6269 90.5092 37.8256 90.5391 38.0998C90.5497 38.1982 90.5568 38.2768 90.5625 38.344L90.5792 38.5256L90.5811 38.5373V38.55C90.6151 39.063 90.6378 39.6366 90.6603 40.1125C90.6835 40.6055 90.7059 40.9529 90.7324 41.0901C90.8035 41.3171 90.8553 41.51 90.8868 41.6633C90.9034 41.7439 90.9167 41.8196 90.9238 41.886C90.9293 41.9372 90.9368 42.033 90.9189 42.1291C90.8682 42.4005 90.6073 42.5802 90.3359 42.5295C90.0648 42.4785 89.8858 42.2168 89.9365 41.9455C89.9258 42.0029 89.9331 42.0325 89.9288 41.9924C89.9261 41.9673 89.9197 41.9247 89.9073 41.8645C89.8826 41.7442 89.8387 41.5708 89.7686 41.3508L89.7607 41.3264L89.7549 41.301C89.7075 41.0721 89.683 40.6207 89.6612 40.1594C89.6474 39.8662 89.6298 39.5494 89.6144 39.2346C89.5095 39.2397 89.377 39.2462 89.2109 39.2551C88.598 39.288 88.031 39.3198 87.5596 39.3498C87.5716 39.4002 87.5862 39.4592 87.6016 39.5256L87.8174 40.4836L87.8203 40.4973C87.857 40.6889 87.8846 40.8453 87.9103 40.9856L87.9844 41.3801V41.384C87.9951 41.442 88.0032 41.4887 88.0128 41.5432C88.0225 41.598 88.0346 41.6652 88.0538 41.7688C88.1041 42.04 87.9255 42.3012 87.6543 42.3518C87.3829 42.4022 87.1219 42.2227 87.0713 41.9514C87.0514 41.8442 87.0384 41.774 87.0283 41.717C87.0182 41.6598 87.0108 41.6184 87.001 41.5656L87.002 41.5647C86.9762 41.4308 86.9521 41.3031 86.9269 41.1653C86.9019 41.0287 86.8745 40.8798 86.8398 40.6985L86.6279 39.7502C86.6019 39.6376 86.5806 39.551 86.5664 39.4934L86.5527 39.4387C86.5534 39.4402 86.556 39.4436 86.5577 39.4485C86.5553 39.4419 86.554 39.4346 86.5519 39.4279C86.5329 39.43 86.5145 39.4318 86.4971 39.4338C85.7863 39.5161 85.1249 39.5941 84.6689 39.6799L84.668 39.6789C84.435 39.7233 84.2388 39.7568 84.0782 39.7785C84.0178 39.7875 83.9595 39.7978 83.7344 39.8381C83.4626 39.8866 83.2029 39.7056 83.1543 39.4338C83.106 39.1622 83.2871 38.9024 83.5587 38.8537C83.7837 38.8135 83.8563 38.8003 83.9375 38.7883L83.9434 38.7873L84.4834 38.6965C84.9818 38.6027 85.6837 38.5205 86.3818 38.4397C86.8902 38.3808 87.9623 38.3203 89.1573 38.2561C89.3134 38.2477 89.4418 38.2417 89.5469 38.2365C89.5459 38.2272 89.546 38.217 89.5449 38.2072C89.5157 37.9331 89.7142 37.6863 89.9883 37.6565ZM86.582 39.508C86.5843 39.5123 86.5929 39.5272 86.6064 39.5481C86.5928 39.5271 86.5814 39.505 86.5713 39.4826C86.5744 39.4896 86.5773 39.4989 86.582 39.508Z" fill="black"/>
<path d="M83.8376 45.0702C84.1914 45.1302 85.0308 45.2081 86.7996 45.1991C87.3634 45.1962 87.7138 45.2307 88.239 45.2567L88.24 45.2557C88.7656 45.2646 89.2135 45.2726 89.5476 45.2801C89.8665 45.2873 90.1153 45.2952 90.2156 45.3065H90.2195C90.2953 45.3157 90.3808 45.3273 90.5974 45.3397C90.6993 45.3456 90.792 45.3822 90.8679 45.4393C90.9529 45.4759 91.0284 45.5349 91.0828 45.6141L91.1316 45.703L91.1697 45.8192C91.2005 45.9449 91.2112 46.1027 91.2205 46.3241C91.2341 46.6509 91.243 47.2055 91.2439 48.1688V48.1756C91.2388 48.5986 91.2278 48.6827 91.2224 48.7606C91.2188 48.814 91.2195 48.87 91.2195 48.9471C91.2192 49.2229 90.9952 49.4468 90.7195 49.4471C90.4436 49.447 90.2188 49.2229 90.2185 48.9471C90.2185 48.8752 90.2189 48.7847 90.2253 48.6913C90.2301 48.6226 90.2391 48.5599 90.2439 48.1698C90.243 47.2069 90.2342 46.6705 90.2214 46.3661C90.2206 46.347 90.2183 46.3292 90.2175 46.3123C90.1701 46.3075 90.1329 46.3037 90.0994 46.2997C90.0969 46.2994 90.0937 46.299 90.0896 46.2987C90.0801 46.298 90.0673 46.2976 90.0515 46.2967C90.0199 46.295 89.9785 46.2927 89.9275 46.2909C89.8256 46.2872 89.6904 46.2839 89.5251 46.2801C89.1944 46.2726 88.7499 46.2646 88.2234 46.2557H88.2078C87.9915 46.2451 87.8152 46.2339 87.6511 46.2245C87.702 46.4849 87.7493 46.929 87.7693 47.7508L87.781 47.9813C87.7853 48.031 87.7891 48.0494 87.7947 48.1004C87.8045 48.1909 87.8094 48.2862 87.8142 48.368C87.8304 48.6437 87.6201 48.8801 87.3445 48.8963C87.069 48.9124 86.8324 48.7022 86.8162 48.4266C86.811 48.3394 86.8072 48.2701 86.8005 48.2088C86.7922 48.1323 86.7791 48.0479 86.7703 47.785L86.7693 47.7801C86.7418 46.6459 86.6642 46.3704 86.6492 46.327C86.6345 46.2848 86.6279 46.2417 86.6248 46.1991C84.9585 46.2023 84.0955 46.1288 83.6697 46.0565C83.3976 46.0101 83.2143 45.7515 83.2605 45.4793C83.3069 45.2072 83.5655 45.0239 83.8376 45.0702Z" fill="black"/>
<path d="M83.3761 51.1457C83.3829 51.1462 83.3888 51.1462 83.3927 51.1466C83.4005 51.1475 83.4084 51.1488 83.4142 51.1496C83.4262 51.1511 83.4408 51.1532 83.4562 51.1554C83.4875 51.16 83.5313 51.1666 83.5851 51.175C83.693 51.1917 83.8487 51.2169 84.046 51.2482C84.4416 51.3109 85.0089 51.4011 85.712 51.5109C87.1734 51.7392 88.1853 51.7985 88.5294 51.8341C88.9083 51.8734 89.3604 51.9289 89.7491 51.9533C90.1059 51.9756 90.4209 52.0823 90.63 52.2853L90.713 52.3781L90.7872 52.4933C90.9295 52.7676 90.8723 53.0622 90.8429 53.2013C90.823 53.295 90.7943 53.4029 90.7765 53.4738C90.7558 53.5558 90.7424 53.6172 90.7364 53.6681C90.691 54.0564 90.6409 54.6145 90.5343 54.9679C90.4792 55.1502 90.3672 55.3 90.2687 55.4093C90.1648 55.5244 90.0422 55.6315 89.921 55.7257C89.6781 55.9145 89.3997 56.0849 89.1886 56.2062C88.8997 56.372 88.5735 56.3337 88.3663 56.2882C88.1373 56.238 87.9111 56.146 87.7364 56.0666C87.4888 55.9539 87.2822 55.7695 87.1222 55.6027C86.9606 55.4343 86.8084 55.2423 86.6896 55.0978C86.5613 54.9419 86.4923 54.7747 86.4581 54.6164C86.2298 54.7523 85.9933 54.8489 85.7931 54.9191C85.5717 54.9967 85.3502 55.0581 85.1944 55.1046C85.1122 55.1292 85.0495 55.1489 85.003 55.1662C84.9494 55.1861 84.9486 55.1912 84.9689 55.1769C84.5753 55.4533 83.9999 55.6812 83.5245 55.8644L83.5177 55.8673C83.3218 55.9397 83.1166 56.031 82.9151 56.1408C82.8482 56.1811 82.8213 56.2043 82.6612 56.3185C82.4365 56.4787 82.1243 56.4269 81.964 56.2023C81.8036 55.9775 81.8564 55.6644 82.0812 55.5041C82.2058 55.4151 82.2912 55.3489 82.4093 55.2785L82.4171 55.2736L82.4249 55.2697C82.549 55.2017 82.6743 55.1389 82.7989 55.0822L83.171 54.9289C83.672 54.7357 84.1217 54.5502 84.3946 54.3586C84.4834 54.2964 84.5837 54.2553 84.6554 54.2287C84.7342 54.1995 84.8225 54.172 84.9073 54.1466C85.0865 54.0931 85.2704 54.0422 85.463 53.9748C85.8687 53.8325 86.1479 53.6682 86.2667 53.4718C86.4119 53.2315 86.4772 52.9421 86.4855 52.88C86.4959 52.8016 86.5253 52.7308 86.5665 52.6691C86.5702 52.6601 86.5721 52.6505 86.5763 52.6418C86.2657 52.6027 85.9243 52.5555 85.5577 52.4982C84.8531 52.3881 84.2842 52.2982 83.8888 52.2355C83.6909 52.2041 83.5369 52.1797 83.4308 52.1632C83.3776 52.155 83.3376 52.1486 83.3106 52.1447C83.2972 52.1427 83.2888 52.1414 83.2843 52.1408C83.2946 52.1418 83.3138 52.1437 83.3341 52.1437C83.0581 52.1437 82.8343 51.9196 82.8341 51.6437C82.8341 51.3676 83.058 51.1427 83.3341 51.1427C83.3548 51.1427 83.3716 51.1453 83.3761 51.1457ZM87.5255 52.8332L87.5382 53.1505V53.1564C87.541 53.401 87.5182 53.6855 87.4737 53.9836V53.9884C87.4478 54.151 87.428 54.2394 87.4288 54.3361C87.4296 54.4126 87.4454 54.4419 87.462 54.4621C87.5968 54.6259 87.7161 54.7772 87.8439 54.9103C87.9733 55.0452 88.0751 55.1221 88.1505 55.1564C88.3021 55.2253 88.454 55.2838 88.5812 55.3117L88.7101 55.3273C88.9009 55.217 89.1239 55.0788 89.3067 54.9367C89.4013 54.8632 89.4756 54.7958 89.5265 54.7394C89.5595 54.7028 89.5737 54.6805 89.5782 54.673C89.6503 54.4296 89.6895 54.0114 89.7433 53.5519C89.7571 53.4335 89.784 53.3199 89.8067 53.2296C89.8323 53.1282 89.8507 53.0633 89.8653 52.9943C89.8663 52.9898 89.8656 52.9848 89.8663 52.9806C89.8254 52.9691 89.767 52.9564 89.6866 52.9513C89.2707 52.9253 88.7774 52.8657 88.4259 52.8293C88.2827 52.8144 87.9653 52.7901 87.5108 52.7453C87.5174 52.7737 87.524 52.803 87.5255 52.8332Z" fill="black"/>
<path d="M80.9744 58.4779C81.0624 58.2164 81.3456 58.0757 81.6072 58.1634C81.8252 58.2367 81.9572 58.4455 81.9451 58.6644C82.028 58.6935 82.1232 58.7284 82.2312 58.765C82.6238 58.898 83.1755 59.0762 83.8582 59.2825C84.6002 59.5068 85.1904 59.6895 85.6189 59.8275C86.025 59.9583 86.3336 60.0641 86.4695 60.1331C86.688 60.2444 86.8543 60.3317 86.9939 60.4075L87.3611 60.6107L87.3669 60.6146C87.4342 60.6535 87.4969 60.693 87.5574 60.7318C87.6234 60.774 87.6951 60.821 87.9138 60.97C87.9149 60.9708 87.9157 60.9722 87.9167 60.973C87.9628 61.005 88.002 61.0449 88.0349 61.0902C88.0408 61.0982 88.0481 61.1052 88.0535 61.1136C88.0826 61.1592 88.1028 61.2101 88.116 61.264C88.1182 61.2732 88.122 61.282 88.1238 61.2913C88.127 61.3086 88.1273 61.3263 88.1287 61.3441C88.1299 61.3593 88.1318 61.3746 88.1316 61.39C88.1316 61.3931 88.1327 61.3966 88.1326 61.3997C88.1273 61.5583 88.0855 61.7481 88.0398 61.9368C87.9935 62.1281 87.9215 62.4012 87.8474 62.7005C87.7213 63.2098 87.6115 63.6404 87.446 64.0433L87.4402 64.0579L87.4333 64.0716C87.3544 64.2342 87.2887 64.3739 87.238 64.4993L87.239 64.5003C87.2126 64.5665 87.1803 64.6502 87.1287 64.7523C87.0039 64.998 86.7028 65.0961 86.4568 64.972C86.2107 64.8472 86.1117 64.5463 86.2361 64.3001C86.2647 64.2436 86.2819 64.2004 86.3103 64.1292L86.3113 64.1283C86.3718 63.9781 86.4442 63.8209 86.5242 63.6556C86.6557 63.3333 86.7492 62.9749 86.8767 62.4603C86.959 62.1281 87.0198 61.9009 87.0681 61.7015C87.0752 61.6721 87.08 61.6444 87.0857 61.6195C87.0581 61.6015 87.038 61.5871 87.0183 61.5745C86.9565 61.535 86.9115 61.5062 86.866 61.4798C86.6425 61.3548 86.43 61.2343 86.0164 61.0238C86.0152 61.0234 86.0103 61.0216 86.0017 61.0179C85.9915 61.0135 85.9776 61.0073 85.9597 61.0003C85.923 60.9859 85.8738 60.9674 85.8123 60.9456C85.6889 60.902 85.522 60.8462 85.3123 60.7786C85.2358 60.754 85.1535 60.7281 85.0662 60.7005C85.015 60.882 84.9423 61.132 84.8533 61.3763C84.7764 61.5871 84.6834 61.79 84.6101 61.9534C84.5336 62.1241 84.4805 62.2478 84.4519 62.348C84.4106 62.5463 84.3828 62.7204 84.3611 62.849L84.3572 62.8685L84.3533 62.887C84.3199 63.0194 84.2643 63.1381 84.1687 63.3109C84.035 63.5523 83.7305 63.6407 83.489 63.5072C83.2477 63.3735 83.1605 63.069 83.2937 62.8275C83.3674 62.6943 83.3789 62.6561 83.3816 62.6458C83.4034 62.5164 83.434 62.3303 83.4783 62.1204L83.4861 62.0911C83.5376 61.9043 83.6226 61.7101 83.697 61.5443C83.7769 61.3663 83.8523 61.2032 83.9138 61.0345C83.9973 60.8054 84.0623 60.5766 84.1101 60.4046C83.9403 60.3528 83.7599 60.2972 83.5691 60.2396C82.8766 60.0303 82.3145 59.849 81.9109 59.7122C81.775 59.6662 81.6535 59.6225 81.5486 59.5853C81.4683 59.7582 81.378 59.9593 81.2839 60.1878C81.217 60.3504 81.168 60.5376 81.1189 60.7581C81.0728 60.9652 81.0222 61.2218 80.9568 61.4583L80.9529 61.472L80.949 61.4847C80.8844 61.6768 80.8307 61.8265 80.7869 61.9447C80.7429 62.0632 80.7138 62.1344 80.6931 62.1937C80.6779 62.2401 80.6638 62.2897 80.6316 62.4476C80.5764 62.718 80.3122 62.8922 80.0417 62.8372C79.7714 62.7819 79.5959 62.5178 79.6511 62.2474C79.6891 62.0612 79.7142 61.974 79.7439 61.8831L79.7458 61.8753C79.7718 61.8 79.8103 61.7023 79.8494 61.597C79.8897 61.4883 79.9384 61.3525 79.9968 61.179C80.0513 60.9792 80.09 60.7795 80.1433 60.5404C80.1947 60.3096 80.2579 60.0528 80.3591 59.807C80.5249 59.4045 80.6777 59.0805 80.7927 58.845C80.8486 58.7307 80.8988 58.6298 80.9314 58.5638C80.973 58.4795 80.9786 58.4654 80.9744 58.4779Z" fill="black"/>
<path d="M77.1777 65.9191C77.3011 65.6722 77.6018 65.5722 77.8487 65.6954C77.8965 65.7194 77.954 65.756 77.9923 65.7804C78.0449 65.814 78.0948 65.8466 78.1689 65.8937C78.3089 65.9825 78.4985 66.099 78.7344 66.2316C79.1812 66.4827 79.5439 66.6487 79.8291 66.7706C80.0871 66.881 80.3577 66.9849 80.5244 67.0802C80.5719 67.1073 80.6457 67.1315 80.7843 67.1447C80.934 67.1588 81.0919 67.1564 81.3301 67.1622C81.4928 67.1662 81.6482 67.1583 81.8673 67.1534C82.0727 67.1489 82.3077 67.1493 82.583 67.172L83.0176 67.1837C83.4598 67.1878 83.9105 67.1706 84.2599 67.1505C84.3535 67.1427 84.4594 67.1366 84.5558 67.132C84.8315 67.1187 85.0657 67.3318 85.0791 67.6075C85.0923 67.8831 84.88 68.1174 84.6045 68.131C84.4971 68.1362 84.4058 68.1411 84.332 68.1476H84.3243L84.3174 68.1486C83.8379 68.1761 83.152 68.1999 82.5343 68.17H82.5254L82.5157 68.1691C82.2826 68.1491 82.0807 68.1492 81.8888 68.1534C81.7062 68.1575 81.4992 68.1669 81.3058 68.1622C81.1927 68.1595 81.0658 68.1566 80.9404 68.1525C81.0282 68.3334 81.1155 68.5332 81.1875 68.7277C81.3479 69.161 81.7755 69.9885 82.0099 70.424L82.0186 70.4415L82.0264 70.4581C82.1636 70.7677 82.2627 71.0019 82.3789 71.2325L82.4404 71.3517C82.4653 71.3992 82.4959 71.4561 82.5333 71.5284C82.66 71.7737 82.5635 72.0754 82.3184 72.2023C82.0733 72.3288 81.7715 72.2332 81.6445 71.9884C81.608 71.9178 81.5793 71.8615 81.5548 71.8146C81.5305 71.768 81.5092 71.7282 81.4902 71.6915L81.4883 71.6866C81.3572 71.4271 81.2415 71.1572 81.1144 70.8702C80.8816 70.4364 80.4348 69.5745 80.25 69.0753C80.1817 68.8908 80.0973 68.6979 80.0147 68.5333C79.9281 68.3605 79.8579 68.2489 79.8213 68.2042C79.7263 68.0889 79.693 67.9437 79.7148 67.8068C79.6387 67.7751 79.5472 67.7379 79.4365 67.6906C79.1287 67.5589 78.7314 67.3774 78.2442 67.1036C77.9883 66.9598 77.7833 66.8333 77.6338 66.7384C77.5639 66.694 77.4947 66.6494 77.4551 66.6241L77.3154 66.5353C77.1328 66.3917 77.07 66.135 77.1777 65.9191Z" fill="black"/>
<path d="M73.2428 72.2328C73.2889 72.353 73.5341 72.6592 73.9242 73.072C74.6713 73.8627 75.1394 74.3247 75.4528 74.7064C75.9547 75.3178 76.5487 76.0492 76.7751 76.4201C76.8752 76.5841 76.9367 76.7382 76.9465 76.8445C76.9792 77.199 76.1315 76.662 75.7011 76.4722C75.2788 76.2861 74.8353 76.1944 74.4897 76.1278C74.1819 76.0685 73.1673 75.7321 72.3414 75.4306C72.1323 75.3543 71.9097 75.1837 71.6639 75.0832C71.58 75.0489 71.5544 75.1431 71.5516 75.211C71.5398 75.4962 71.6318 75.7958 71.9972 77.6283C72.2727 79.0102 72.425 79.8393 72.5082 80.2183C72.6125 80.6931 72.7404 81.1072 72.783 81.3388C72.8857 81.8971 71.8454 80.6071 71.5145 80.2514C70.9235 79.616 70.3973 79.0408 70.1426 78.7447C69.7239 78.2578 68.9514 77.5141 68.6321 77.2098C68.5598 77.1326 68.506 77.0641 68.4439 76.9945C68.3818 76.9249 68.3131 76.8563 68.1678 76.7558" stroke="black" stroke-linecap="round"/>
<path d="M66.1243 77.438C66.3982 77.4707 66.5939 77.7188 66.5618 77.9927C66.5425 78.1549 66.5677 78.5908 66.6321 79.189C66.6938 79.7618 66.7841 80.4225 66.8704 80.9908C67.014 81.9373 67.1225 82.5545 67.2004 82.9927C67.2767 83.4218 67.3297 83.7081 67.3528 83.9644C67.3823 84.2928 67.3963 84.617 67.3977 84.8755C67.3984 85.0041 67.3957 85.1217 67.3899 85.2183C67.3856 85.2897 67.3774 85.4188 67.3411 85.523C67.2446 85.7986 66.9972 85.887 66.8459 85.9019C66.7059 85.9156 66.5756 85.8824 66.4817 85.8502C65.6269 85.5561 65.0665 84.9033 64.7112 84.6021C64.0739 84.0621 63.6269 83.6341 63.2854 83.2955C62.933 82.9461 62.7267 82.7284 62.5305 82.564C62.2676 82.3437 62.0446 82.2567 61.7219 82.0797L61.7083 82.0718L61.6936 82.063C61.4288 81.8941 61.1759 81.705 60.9211 81.5328L60.9133 81.5269C60.8284 81.4671 60.765 81.4158 60.6272 81.3023C60.4144 81.1267 60.3844 80.8112 60.5598 80.5982C60.7355 80.3857 61.051 80.3555 61.2639 80.5308C61.3972 80.6406 61.4358 80.6711 61.4817 80.7037L61.8792 80.981C61.9898 81.0591 62.094 81.1302 62.2209 81.2115C62.4493 81.3349 62.8193 81.501 63.1731 81.7974C63.3262 81.9258 63.4871 82.0851 63.6672 82.2652C63.6733 82.2615 63.6796 82.2581 63.6858 82.2545C63.8356 82.1648 64.0311 82.0526 64.2249 81.9634L64.261 81.9468L64.2991 81.9361C64.53 81.8714 64.7604 81.7663 64.9241 81.6871C64.951 81.6732 64.9677 81.6636 64.9856 81.6519C65.0062 81.6385 65.0364 81.6165 65.0872 81.5757C65.3024 81.403 65.6173 81.4369 65.7903 81.6519C65.9629 81.8671 65.929 82.1821 65.7141 82.355C65.5717 82.4694 65.4846 82.5232 65.3762 82.5787L65.3665 82.5836C65.2037 82.6625 64.9261 82.7906 64.6223 82.8814C64.5536 82.9138 64.4816 82.9504 64.4104 82.9898C64.669 83.2341 64.9767 83.5165 65.3577 83.8394C65.7482 84.1704 66.0203 84.4845 66.3928 84.7105C66.3877 84.5131 66.3774 84.2851 66.3567 84.0543C66.3385 83.8519 66.2962 83.6185 66.2161 83.1675C66.1374 82.725 66.0275 82.0991 65.8821 81.1412C65.7944 80.5638 65.7016 79.8879 65.6379 79.2964C65.577 78.7305 65.5344 78.1728 65.5696 77.8755C65.6022 77.6016 65.8502 77.4057 66.1243 77.438Z" fill="black"/>
<path d="M57.4127 81.6549C57.4224 81.6549 57.493 81.7334 57.8377 82.5532C58.1446 83.2834 58.607 84.6964 58.9115 85.6365C59.5356 87.5626 59.5294 88.0065 59.5319 88.3634C59.533 88.5114 59.3767 88.597 59.2397 88.6693C58.8637 88.8676 58.2005 88.8491 57.7412 88.7906C57.4559 88.7543 57.2477 88.593 57.1373 88.4978C56.8923 88.2865 56.7895 87.8632 56.7137 87.4687C56.6549 87.162 56.9099 86.658 57.1019 86.3022C57.2564 86.0158 57.6081 85.7756 57.8503 85.6147C57.9067 85.5772 57.96 85.5429 57.941 85.517C57.7749 85.2897 57.1869 85.3872 56.783 85.2328C56.2987 85.0478 55.952 84.7563 55.5863 84.5582C55.2296 84.365 54.7461 84.1021 54.3856 83.8939C53.9713 83.6813 53.7498 83.5381 53.5457 83.4023C53.4537 83.34 53.385 83.2909 53.2103 83.1662" stroke="black" stroke-linecap="round"/>
<path d="M50.252 83.1088C50.525 83.068 50.7793 83.2558 50.8203 83.5288C50.8496 83.7243 50.7601 83.9083 50.6074 84.0131C50.6102 84.0302 50.6138 84.0491 50.6172 84.0698C50.6368 84.1886 50.6659 84.3626 50.7051 84.5883C50.7834 85.0398 50.9004 85.6978 51.0527 86.5395C51.2865 87.8306 51.4703 88.7601 51.5254 89.3393C51.5643 89.6366 51.5842 89.8211 51.5918 89.9682C51.5937 89.9908 51.5991 90.0482 51.6074 90.1469C51.6163 90.1456 51.6265 90.1456 51.6367 90.144C51.909 90.1002 52.1667 90.2848 52.2109 90.5571C52.255 90.8295 52.0692 91.086 51.7969 91.1303C51.6782 91.1495 51.5632 91.1625 51.5078 91.1704C51.3966 91.1863 51.3334 91.1991 51.1523 91.226L51.1475 91.227C50.8352 91.2701 50.5685 91.2988 50.375 91.3129C50.0997 91.3329 49.86 91.1262 49.8398 90.851C49.8199 90.5757 50.0274 90.3359 50.3027 90.3159C50.3876 90.3097 50.493 90.2985 50.6162 90.2846C50.6078 90.1648 50.6036 90.1339 50.5967 90.0532L50.5957 90.0434L50.5947 90.0327C50.5903 89.9301 50.5744 89.7812 50.5312 89.4516L50.5293 89.434C50.4795 88.9104 50.3098 88.0512 50.0684 86.7172C49.9157 85.8739 49.7996 85.2136 49.7207 84.7592C49.6813 84.5323 49.6511 84.3556 49.6309 84.2329C49.6276 84.2131 49.6249 84.1944 49.6221 84.1772C49.4474 84.1881 49.3055 84.1957 49.2148 84.1957C48.9387 84.1957 48.7149 83.9719 48.7148 83.6957C48.715 83.4197 48.9388 83.1957 49.2148 83.1957C49.2985 83.1957 49.484 83.1887 49.7402 83.1694C49.8521 83.159 49.8889 83.1506 49.9902 83.1391C50.0827 83.1286 50.13 83.1271 50.252 83.1088Z" fill="black"/>
<path d="M40.4291 83.3167C40.6511 83.1529 40.9642 83.2003 41.1283 83.4222C41.1578 83.4622 41.1846 83.4995 41.2093 83.5364L41.2796 83.6497L41.2835 83.6566L41.2875 83.6624C41.3626 83.8017 41.4588 84.0094 41.6781 84.5335C41.8529 84.9296 41.9485 85.2587 42.4378 86.0325C42.4548 86.0594 42.4704 86.0893 42.4886 86.1194C42.6775 86.1474 42.9651 86.1843 43.3666 86.2191C43.7296 86.2505 44.1519 86.2802 44.4759 86.3294L44.4769 86.3284C44.5282 86.3332 44.5622 86.3332 44.6546 86.3362C44.7408 86.3391 44.8334 86.3449 45.0794 86.3646C45.1224 86.368 45.1635 86.3775 45.2025 86.3909C45.3332 86.0563 45.4813 85.6839 45.681 85.1058C45.7895 84.7917 45.9056 84.4703 45.9964 84.2191C46.0421 84.0929 46.0808 83.9854 46.1097 83.9036C46.1378 83.8242 46.1496 83.7895 46.1517 83.7835C46.2182 83.5156 46.4893 83.352 46.7572 83.4183C47.0252 83.4847 47.1888 83.7557 47.1224 84.0237C47.1092 84.0769 47.079 84.1633 47.0531 84.2366C47.0227 84.3228 46.9821 84.4347 46.9369 84.5599C46.8456 84.8122 46.732 85.126 46.6263 85.4319C46.3559 86.2147 46.1544 86.6883 46.0101 87.0755C45.8614 87.4745 45.6334 87.9465 45.5033 88.2103C45.3639 88.4926 45.0664 88.9048 44.766 89.348C44.5944 89.601 44.4205 89.8833 44.2806 90.1429C44.2684 90.1656 44.2821 90.1402 44.2601 90.1819C44.2516 90.1981 44.2271 90.2449 44.1898 90.2923C44.1583 90.3323 44.0607 90.4488 43.8841 90.4886C43.6769 90.5351 43.5147 90.4471 43.432 90.3802C43.0985 90.1102 42.9352 89.6899 42.8216 89.3558C42.691 88.9713 42.6079 88.6442 42.4584 88.2982C42.1046 87.4797 41.7808 86.865 41.5921 86.5667C41.0526 85.7135 40.9209 85.2934 40.764 84.9378L40.7591 84.929C40.5405 84.4062 40.4584 84.2349 40.4085 84.1419C40.3884 84.1079 40.3642 84.0709 40.3236 84.0159C40.1598 83.7939 40.2071 83.4807 40.4291 83.3167ZM43.0531 87.1917C43.1568 87.4098 43.2666 87.6468 43.3763 87.9007C43.5457 88.2926 43.6687 88.7423 43.7679 89.0345C43.769 89.0377 43.7698 89.0411 43.7709 89.0443C43.8268 88.9566 43.8817 88.8693 43.9378 88.7864C44.2807 88.2807 44.5068 87.9683 44.6058 87.7679C44.6628 87.6523 44.7327 87.5046 44.806 87.347C44.7082 87.34 44.6627 87.3366 44.6224 87.3353C44.5682 87.3335 44.4753 87.333 44.3841 87.3245L44.3685 87.3226L44.3519 87.3206C44.0711 87.2757 43.6944 87.251 43.2796 87.2151C43.2004 87.2083 43.1251 87.1986 43.0531 87.1917Z" fill="black"/>
<path d="M38.2604 83.2565C38.2505 83.2662 38.2115 83.3812 38.0921 83.7132C37.8905 84.2733 37.5754 85.378 37.3361 86.5911C37.1963 87.2999 37.1494 87.6821 37.0367 88.2305C36.9328 88.7358 36.757 88.9992 36.5695 89.2099C36.2756 89.54 35.82 88.2314 35.6054 87.8065C35.3826 87.3654 35.2429 86.9522 35.0167 86.4407C34.1665 84.5189 33.9267 84.0497 33.6848 83.7266C33.4627 83.4297 33.2708 83.1872 33.0871 82.8497C33.01 82.708 32.958 82.5799 32.8998 82.5217C32.4676 82.0901 32.4045 84.2516 32.3278 84.8649C32.2541 85.4547 31.9522 86.0703 31.7629 86.6013C31.6759 86.9754 31.6032 87.2776 31.5139 87.5392C31.489 87.6054 31.4644 87.6731 31.4391 87.7428" stroke="black" stroke-linecap="round"/>
<path d="M27.7924 79.0561C27.8844 79.1482 28.4024 79.6915 28.8908 80.3908C29.3964 81.1145 29.5071 81.6776 29.628 82.5442C29.7469 83.3971 29.4957 83.7864 29.2815 84.1126C29.0354 84.4875 28.7975 84.694 28.5096 84.8944C28.2064 85.1055 27.941 85.2493 27.6282 85.3854C27.3779 85.4943 27.0853 85.5249 26.5939 85.5299C26.2659 85.5333 26.0127 85.4573 25.7225 85.3948C25.4591 85.338 25.2255 85.1851 24.935 85.0296C24.4557 84.7731 24.1437 84.5837 23.928 84.4348C23.7088 84.2835 23.6002 83.9226 23.4988 83.6012C23.3939 83.2688 23.3747 82.257 23.4417 81.4775C23.4769 81.0677 23.669 80.6671 23.8359 80.1824C23.9587 79.8257 24.212 79.5775 24.4809 79.3394C24.7437 79.1068 25.2514 79.0075 25.6309 78.9624C26.3118 78.9603 26.9439 79.021 27.2892 79.0756C27.4273 79.0958 27.4901 79.1006 27.5549 79.1056" stroke="black" stroke-linecap="round"/>
<path d="M13.4161 74.3588C13.4395 74.1552 13.4871 73.4592 13.4044 72.6981C13.3484 72.183 12.6966 71.6578 12.2302 71.3821C12.0523 71.2769 11.836 71.3301 11.6228 71.4376C10.9753 71.7642 10.7946 72.4184 10.7192 72.9096C10.6673 73.2475 11.0103 73.6224 11.3153 74.0372C11.5637 74.375 11.9029 74.5486 12.101 74.6165C12.1915 74.6475 12.2712 74.6396 12.3513 74.607C12.5255 74.5364 12.6485 74.3572 12.7575 74.1344C12.9085 73.826 12.9152 73.3384 12.8578 72.8379C12.7742 72.1087 12.231 71.8553 12.0284 71.769C11.9362 71.7298 11.8512 71.7397 11.7671 71.7938C11.2324 72.1374 11.1982 73.0799 11.2044 73.7936C11.2075 74.1613 11.4586 74.3993 11.6567 74.5201C11.8065 74.6114 12.0297 74.5902 12.2796 74.5637C12.5139 74.5389 12.7051 74.3279 12.8732 74.1254C13.0166 73.9527 13.0383 73.6375 13.0401 73.2942C13.0414 73.0499 12.9314 72.9022 12.8256 72.7911C12.6887 72.6473 12.4144 72.6181 12.1358 72.6524C11.8869 72.6831 11.6682 72.973 11.4407 73.2456C11.2713 73.4486 11.2578 73.6891 11.2792 73.8886C11.2957 74.042 11.4522 74.1245 11.5867 74.1849C11.721 74.2452 11.955 74.1272 12.2139 73.9696C12.6037 73.7322 12.6155 73.3252 12.6163 73.1083C12.6167 73.014 12.5994 72.9522 12.5312 72.9917C12.3027 73.1243 12.1439 73.5451 12.0743 73.9034C12.0486 74.0356 12.1455 74.077 12.2269 74.0579C12.4182 74.0131 12.5327 73.8144 12.605 73.6668C12.6433 73.5888 12.6484 73.4888 12.5966 73.44C12.5449 73.3911 12.4269 73.3924 12.302 73.4575C11.7573 73.7416 11.6627 74.2038 11.6111 74.4585C11.5901 74.5622 11.6628 74.6223 11.7271 74.6489C11.8575 74.7028 12.0617 74.5793 12.2744 74.4003C12.474 74.2324 12.5212 73.9945 12.538 73.8199C12.5521 73.6738 12.5032 73.5375 12.3949 73.4138C12.271 73.2722 12.0607 73.2649 11.9107 73.2506C11.6357 73.2244 11.3692 73.4497 11.0935 73.6309C10.9816 73.7044 10.9283 73.8891 10.8862 74.1218C10.8451 74.3489 10.9052 74.5408 10.9991 74.7045C11.1242 74.9226 11.31 75.0786 11.4506 75.1771C11.5679 75.2593 11.732 75.2882 11.9268 75.2946C12.2793 75.2055 12.6677 74.9886 13.0065 74.7388C13.0608 74.6808 13.0946 74.6219 13.1441 74.5165" stroke="black" stroke-linecap="round"/>
</svg>
