<svg width="31" height="31" viewBox="0 0 31 31" fill="none" xmlns="http://www.w3.org/2000/svg">
<path d="M18.0096 0.0405955C18.7371 -0.0491045 19.3596 0.0366941 19.6766 0.0444941C20.1045 0.0549941 20.5826 0.184695 20.8485 0.239795C21.1175 0.295495 21.3779 0.350095 21.702 0.401895C22.1164 0.468095 22.6587 0.634795 22.9764 0.735895C23.2712 0.829695 23.587 0.918394 24.0936 1.09719C24.4837 1.23489 24.885 1.4497 25.1893 1.6548C25.4262 1.8145 25.8064 2.0737 26.1551 2.2779C26.6259 2.5535 26.9464 2.8841 27.1531 3.0611C27.6341 3.4728 28.0867 4.13249 28.2928 4.43119C28.388 4.56919 28.4656 4.7137 28.5321 4.8414C28.6031 4.9778 28.6568 5.0859 28.7196 5.1968C28.8711 5.4648 29.0559 5.8307 29.1824 6.1636C29.3088 6.4958 29.4049 6.8835 29.4803 7.2681C29.5357 7.5506 29.5913 7.77309 29.7098 8.01029C29.8938 8.37889 29.942 8.75259 29.9715 9.10989C29.9985 9.43629 30.0465 9.71019 30.0916 10.0738C30.1323 10.4018 30.1922 11.1581 30.1629 11.7046C30.1517 11.9142 30.0768 12.1469 30.0145 12.3287C29.9422 12.5391 29.8715 12.7208 29.8094 12.9234C29.7094 13.2494 29.6807 13.5727 29.6346 13.9341C29.5913 14.2732 29.5348 14.578 29.4246 14.9888C29.326 15.3567 29.1664 15.7248 28.9764 16.1412C28.8247 16.4737 28.5415 16.9803 28.2899 17.3423C28.1161 17.5923 27.9171 17.8419 27.7615 18.0386C27.5588 18.295 27.274 18.6367 26.6922 18.9068C26.3448 19.0679 26.0718 19.245 25.8319 19.4087C25.5534 19.5988 25.3152 19.778 25.0457 20.0054C24.8256 20.1912 24.5679 20.2578 24.3924 20.2935C24.3079 20.3107 24.2082 20.326 24.1492 20.3365C24.0783 20.3491 24.0332 20.3595 24.0018 20.3697C23.9285 20.3934 23.8473 20.434 23.7225 20.5044C23.6067 20.5698 23.4462 20.6651 23.2645 20.7564L23.2362 20.771L23.2049 20.7818C22.8813 20.8946 22.5961 20.9783 22.3133 21.0689L22.2938 21.0757L22.2733 21.0796C22.1677 21.1042 22.066 21.1103 21.9237 21.1148C21.8818 21.1622 21.837 21.2114 21.7908 21.2574C21.6751 21.3728 21.5247 21.5074 21.3543 21.6353C21.0115 21.8925 20.7549 22.0871 20.491 22.3081C19.8146 22.8749 19.4516 23.4272 19.1073 23.8189C18.9579 23.9887 18.7681 24.1333 18.5828 24.2632C18.4878 24.3299 18.3841 24.399 18.2801 24.4693C18.1746 24.5406 18.0648 24.6148 17.95 24.6958C17.7032 24.8702 17.427 25.0854 17.1903 25.2857C16.9424 25.4954 16.7728 25.6596 16.7117 25.7388C16.5027 26.0102 16.1756 26.5968 15.9334 27.0738C15.5446 27.8399 15.0265 28.2414 14.6795 28.5308C14.5243 28.6603 14.3752 28.8116 14.2127 28.9761C14.0698 29.1208 13.9067 29.284 13.741 29.4175C13.5788 29.5884 13.4257 29.7603 13.3133 29.8687L13.3094 29.8726C13.2497 29.9288 13.1912 29.9808 13.1365 30.0298C12.931 30.2142 12.6149 30.1973 12.4305 29.9917C12.2464 29.7862 12.2631 29.47 12.4686 29.2857C12.5248 29.2353 12.5743 29.1907 12.6239 29.1441C12.7227 29.0482 12.8281 28.9265 13.0379 28.7066L13.0643 28.6792L13.0936 28.6568C13.2095 28.5668 13.3373 28.4396 13.5018 28.273C13.6567 28.1162 13.8398 27.9283 14.0389 27.7622C14.3955 27.4648 14.7575 27.1816 15.0418 26.6216C15.2824 26.1477 15.6467 25.4829 15.9198 25.1285C16.053 24.9557 16.2975 24.7304 16.5438 24.522C16.8016 24.3039 17.1011 24.0715 17.3729 23.8794C17.4965 23.7921 17.6134 23.7129 17.7196 23.6412C17.8273 23.5683 17.9216 23.5043 18.0076 23.4439C18.1844 23.3199 18.2909 23.2331 18.3563 23.1587C18.6033 22.8778 19.0969 22.172 19.8494 21.5415C20.0545 21.3698 20.2542 21.2143 20.4764 21.0455C20.074 21.04 19.6517 21.0356 19.2508 21.0289C18.5145 21.0164 18.2192 20.9505 17.9207 20.9019C17.4401 20.8238 16.9433 20.861 16.6502 20.9126C16.5131 20.9368 16.4283 20.9515 16.3602 20.9712C16.3422 20.9765 16.3297 20.9809 16.3221 20.9839C16.2391 21.073 16.1302 21.2144 15.992 21.4009C15.8546 21.5864 15.6932 21.8086 15.533 22.0015C15.3194 22.2588 15.0602 22.4976 14.8367 22.6988C14.5989 22.9128 14.4142 23.0734 14.2899 23.2115C13.7674 23.7923 13.4082 24.114 13.1571 24.3521C12.6753 24.8088 12.2799 25.1954 11.825 25.6138C11.5589 25.8586 11.2883 26.111 10.9832 26.3042C10.6976 26.4851 10.2578 26.7205 9.92456 26.8912C9.73116 26.9903 9.56365 27.1367 9.30345 27.3472C9.09885 27.5128 8.85766 27.7034 8.62286 27.8882C8.41496 28.0519 8.21166 28.2113 8.03886 28.3501C7.97806 28.4505 7.92606 28.5408 7.88066 28.6236C7.82956 28.7168 7.77255 28.8228 7.72045 28.9058L7.71165 28.9205L7.70195 28.9341C7.63345 29.0283 7.54775 29.1138 7.39915 29.273C7.21085 29.4742 6.89486 29.4853 6.69316 29.2974C6.49136 29.1091 6.48065 28.7923 6.66875 28.5904C6.75785 28.4949 6.80705 28.4437 6.84455 28.4029C6.86725 28.3781 6.87776 28.3635 6.88456 28.355C6.91356 28.3067 6.94845 28.2429 7.00365 28.1421C7.06245 28.035 7.13605 27.9032 7.23025 27.7525L7.27515 27.6812L7.33966 27.6294C7.53276 27.4731 7.76895 27.2869 8.00365 27.1021C8.23985 26.9161 8.47616 26.7304 8.67456 26.5699C8.88606 26.3987 9.15715 26.161 9.46855 26.0015C9.79835 25.8326 10.2035 25.6134 10.4481 25.4585C10.6621 25.323 10.8637 25.1392 11.1483 24.8775C11.5966 24.4651 11.9714 24.0968 12.4686 23.6255C12.7308 23.3769 13.0571 23.0878 13.5467 22.5435C13.7167 22.3545 13.9588 22.1437 14.1678 21.9556C14.3914 21.7544 14.6011 21.5584 14.7635 21.3628C14.9014 21.1967 15.042 21.0028 15.1883 20.8052C15.2473 20.7255 15.3092 20.6416 15.3719 20.5611C15.3138 20.5297 15.2542 20.4999 15.1981 20.4654C14.9283 20.2996 14.6053 20.1052 14.3153 19.9214C14.0494 19.753 13.7339 19.5798 13.1961 19.3101L13.1824 19.3033L13.1698 19.2955C12.9499 19.1678 12.7897 19.0589 12.6512 18.9497L12.6444 18.9449L12.6385 18.94C12.5749 18.8865 12.509 18.8246 12.4295 18.7496C12.3453 18.8804 12.2548 18.9951 12.1922 19.0738C11.8808 19.4656 11.4715 19.9171 10.9432 20.5113C10.6945 20.7909 10.3141 21.2156 9.90015 21.6206C9.76195 21.7559 9.61326 21.888 9.46466 22.021C9.31386 22.156 9.15815 22.2963 8.99095 22.4566C8.87395 22.5687 8.62196 22.8026 8.33966 23.066C8.05456 23.3319 7.73365 23.6327 7.47145 23.8833C6.92485 24.4057 6.58145 24.711 5.75365 25.4654C5.11645 26.0461 4.12716 26.6642 3.75856 26.9195C3.64496 26.9982 3.53335 27.1196 3.40995 27.2808C3.31305 27.4073 3.14885 27.6452 3.03105 27.7857L3.01055 27.8091L2.98806 27.8306C2.85286 27.9561 2.70946 28.0926 2.57006 28.2251C2.43456 28.3541 2.30076 28.4807 2.18636 28.5874C2.14576 28.6275 2.11735 28.6594 2.08865 28.6988C1.92616 28.9217 1.61355 28.9714 1.39045 28.8091C1.16735 28.6467 1.11796 28.3341 1.28006 28.1109C1.35156 28.0127 1.42096 27.9377 1.48806 27.8716L1.49786 27.8619C1.60886 27.7584 1.74075 27.6336 1.88065 27.5005C2.00945 27.378 2.14526 27.2484 2.27616 27.1265C2.38086 26.9993 2.45335 26.8847 2.61595 26.6724C2.75855 26.4863 2.94605 26.2658 3.18925 26.0972C3.63025 25.7918 4.50836 25.2469 5.07986 24.7261C5.91476 23.9652 6.24456 23.6715 6.78006 23.1597C7.04716 22.9044 7.37305 22.6003 7.65795 22.3345C7.94515 22.0667 8.18806 21.8409 8.29866 21.7349C8.47986 21.5612 8.64836 21.4103 8.79866 21.2759C8.95086 21.1397 9.08175 21.0225 9.20095 20.9058C9.58805 20.527 9.94846 20.1247 10.1961 19.8462C10.7378 19.237 11.1199 18.8154 11.409 18.4517C11.513 18.3208 11.5911 18.2195 11.6375 18.1265C11.6506 18.1003 11.6547 18.0811 11.658 18.0699C11.6451 18.0441 11.6267 18.0072 11.5936 17.9556C11.5722 17.9223 11.5486 17.8872 11.5213 17.8462C11.4948 17.8065 11.4655 17.7614 11.4354 17.7144C11.2591 17.4391 11.1004 17.2123 10.868 16.8716C10.666 16.5755 10.4598 16.3051 10.2674 15.9058C10.1752 15.7145 10.1038 15.5384 10.0418 15.3912C10.006 15.306 9.97185 15.228 9.93635 15.1529C9.88365 15.266 9.82905 15.3749 9.77125 15.4751C9.66215 15.6643 9.49995 15.8432 9.31135 16.063C9.10755 16.3005 8.81436 16.6469 8.38166 17.2203C7.87086 17.8969 7.50236 18.2655 7.16576 18.6255C6.95496 18.851 6.66945 19.0554 6.42845 19.2183C6.16085 19.3993 5.96195 19.5208 5.82305 19.6275C5.62395 19.7803 5.44795 19.9372 5.22145 20.1246C5.00515 20.3034 4.76275 20.4926 4.48025 20.6626C4.25955 20.7955 4.07496 20.9938 3.85326 21.2632C3.67926 21.4748 3.45175 21.6461 3.27325 21.7749C3.07015 21.9215 2.93795 22.0097 2.84455 22.0972C2.73495 22.2001 2.65826 22.3147 2.57796 22.4615C2.50836 22.5886 2.40046 22.8147 2.27616 23.0015L2.25956 23.0259L2.24095 23.0484C2.00655 23.3236 1.78205 23.5218 1.59545 23.6685C1.54245 23.7125 1.44956 23.7938 1.35726 23.8658C1.13956 24.0353 0.824855 23.9962 0.655055 23.7789C0.485355 23.5611 0.524256 23.2464 0.741956 23.0767C0.835556 23.0038 0.865654 22.9734 0.969554 22.8882L0.977355 22.8824C1.11796 22.7718 1.28246 22.6253 1.45686 22.4244C1.54136 22.2933 1.59256 22.1801 1.70096 21.982C1.80476 21.7924 1.94076 21.5745 2.15996 21.3687C2.31546 21.2228 2.53625 21.0741 2.68825 20.9644C2.86515 20.8367 2.99686 20.7305 3.08086 20.6285C3.30906 20.351 3.58556 20.0343 3.96466 19.8062C4.18446 19.6739 4.38275 19.5211 4.58475 19.354C4.77665 19.1954 4.99786 19.0009 5.21466 18.8345C5.38396 18.7046 5.65756 18.5331 5.86896 18.3902C6.10706 18.2292 6.30846 18.0777 6.43536 17.9419C6.78356 17.5695 7.11156 17.2433 7.58376 16.6177C8.03216 16.0237 8.33885 15.6606 8.55255 15.4117C8.78095 15.1455 8.85576 15.0606 8.90506 14.9751C9.06946 14.69 9.15446 14.4652 9.16286 14.2925C9.18446 13.848 9.18656 13.2317 9.12186 12.7281C9.09546 12.5224 9.07606 12.3308 9.05836 12.1617C9.04036 11.9897 9.02425 11.8433 9.00465 11.7124C8.95155 11.358 8.89686 10.7485 8.93536 10.2671C8.67726 10.5923 8.39315 10.8907 8.11595 11.1382C7.34945 11.8228 6.96546 12.1629 6.74396 12.4576C6.36266 12.9647 5.77026 13.5643 5.40306 13.8355C5.12616 14.04 4.59585 14.4641 4.21165 14.7945C4.13505 14.8604 4.05136 14.9597 3.94706 15.0972C3.85586 15.2173 3.73015 15.3945 3.61595 15.5337C3.40185 15.7949 3.12136 15.9944 2.89526 16.1431C2.63536 16.3141 2.47936 16.4018 2.37086 16.4937C2.28336 16.5678 2.18976 16.6615 2.06136 16.7876C1.94506 16.9018 1.80635 17.0329 1.65215 17.1597C1.41475 17.3742 1.30365 17.4992 1.22535 17.5943L1.21955 17.6021L1.06135 17.7603C0.998155 17.817 0.917655 17.8839 0.806455 17.9703C0.588555 18.1393 0.274655 18.099 0.105255 17.8814C-0.0641455 17.6633 -0.0249453 17.3496 0.193155 17.1802C0.389555 17.0276 0.438155 16.9758 0.467555 16.9429C0.579855 16.808 0.724655 16.6513 0.982255 16.4185L0.991956 16.4097L1.00276 16.4009C1.12576 16.3012 1.24105 16.1907 1.36015 16.0738C1.47215 15.9638 1.60096 15.8346 1.72436 15.73C1.89426 15.5863 2.16595 15.4252 2.34545 15.3072C2.55875 15.1669 2.73036 15.0367 2.84256 14.8999C2.94306 14.7774 3.02615 14.6561 3.15015 14.4927C3.26115 14.3465 3.39876 14.1756 3.56036 14.0367C3.95906 13.6938 4.50866 13.2539 4.80936 13.0318C5.08206 12.8303 5.60726 12.3049 5.94416 11.857C6.24146 11.4614 6.72845 11.0365 7.44995 10.3921C7.92605 9.96689 8.40395 9.3929 8.66975 8.8423C8.90815 8.3482 9.04616 8.018 9.18436 7.6665C9.51286 6.8312 9.87956 5.9804 10.1551 5.3843C10.5769 4.4715 10.7681 4.0577 11.0311 3.7193C11.2808 3.398 11.5834 2.95489 12.1082 2.58939C12.7003 2.17709 13.0063 1.97169 13.1053 1.89989C13.1367 1.87719 13.1697 1.8587 13.2039 1.8443C13.3363 1.7511 13.5636 1.59779 13.7957 1.48199C14.1788 1.29089 14.5898 1.16649 14.949 1.02299C15.2973 0.883895 15.6072 0.788796 15.825 0.711496C16.112 0.609496 16.4167 0.472196 16.7537 0.333496C17.1802 0.158096 17.6192 0.0887955 18.0096 0.0405955ZM19.6522 1.04349C19.1887 1.03219 18.7645 0.955595 18.1317 1.03369C17.7575 1.07989 17.43 1.1365 17.1336 1.2583C16.8362 1.3807 16.4765 1.5401 16.159 1.6529C15.8882 1.749 15.6475 1.82099 15.3201 1.95169C14.8345 2.14559 14.5856 2.20509 14.242 2.37649C14.0238 2.48539 13.7895 2.65249 13.7049 2.71439C13.6745 2.73659 13.6413 2.75269 13.6082 2.76709C13.451 2.87599 13.1398 3.08919 12.6795 3.40969C12.3088 3.66789 12.1097 3.9613 11.8211 4.3326C11.6456 4.5583 11.507 4.84209 11.0623 5.80419C10.7953 6.38209 10.4367 7.21479 10.1151 8.03279C10.0155 8.28589 9.91326 8.53069 9.77906 8.82769C9.90486 8.91539 9.99035 9.05809 9.99485 9.22319C10.0002 9.41649 9.99056 9.91769 9.94506 10.231C9.89416 10.5828 9.93816 11.1917 9.99396 11.564C10.0174 11.7204 10.0348 11.8887 10.0526 12.0581C10.0706 12.2308 10.0894 12.4094 10.1141 12.6011C10.16 12.9583 10.1734 13.3505 10.1737 13.7085C10.3041 13.8552 10.5491 14.1845 10.7215 14.4927C10.8226 14.6734 10.8971 14.8451 10.9637 15.0035C11.0319 15.1656 11.0897 15.3102 11.1678 15.4722C11.3182 15.7844 11.4625 15.9699 11.6932 16.3081C11.9175 16.637 12.0905 16.8838 12.2772 17.1753C12.3019 17.214 12.3277 17.2515 12.3543 17.2915C12.3801 17.3303 12.4077 17.373 12.4344 17.4146C12.4864 17.4955 12.5477 17.5966 12.5936 17.7066C12.6144 17.7566 12.6293 17.8063 12.6405 17.855C12.792 17.8279 12.954 17.8698 13.074 17.9839C13.1698 18.075 13.2278 18.1282 13.2752 18.1685C13.3669 18.2404 13.4838 18.3208 13.6668 18.4273C14.2027 18.6965 14.5472 18.8845 14.8504 19.0767C15.1331 19.2558 15.4399 19.4402 15.7225 19.6138C15.954 19.7559 16.2373 19.8694 16.4119 19.938C16.4344 19.9341 16.4561 19.9309 16.4764 19.9273C16.8512 19.8613 17.465 19.8142 18.0819 19.9146C18.3778 19.9628 18.6107 20.0178 19.2684 20.0289C20.2353 20.0451 21.3073 20.0578 21.9588 20.0679C22.0043 20.0686 22.0479 20.0774 22.0897 20.0894C22.3532 20.0059 22.5761 19.9393 22.8426 19.8472C22.9828 19.7754 23.0978 19.7086 23.2313 19.6333C23.364 19.5585 23.5191 19.4752 23.6942 19.4185C23.7935 19.3864 23.8938 19.3663 23.9735 19.3521C24.0651 19.3358 24.1232 19.3274 24.1942 19.313C24.3291 19.2856 24.3791 19.2594 24.4002 19.2417C24.6984 18.99 24.965 18.7906 25.2684 18.5835C25.5231 18.4097 25.8492 18.1954 26.2713 17.9996C26.6454 17.8259 26.8138 17.6254 26.9774 17.4185C27.1385 17.2146 27.316 16.9914 27.4686 16.772C27.6848 16.4609 27.9384 16.0063 28.0662 15.7261C28.2573 15.3074 28.3842 15.0082 28.4588 14.73C28.5568 14.3646 28.6045 14.1037 28.6424 13.8072C28.6824 13.4938 28.7217 13.0599 28.8533 12.6304C28.9213 12.4089 29.0106 12.1712 29.0682 12.0035C29.1354 11.8075 29.1611 11.7022 29.1639 11.6519C29.1888 11.1879 29.1365 10.4956 29.0994 10.1968C29.0615 9.8915 29.0043 9.54219 28.9754 9.19189C28.9477 8.85629 28.9091 8.6446 28.8153 8.4566C28.6362 8.0979 28.5596 7.77059 28.4989 7.46049C28.4285 7.10149 28.3455 6.7759 28.2479 6.5191C28.1454 6.2495 27.9854 5.93119 27.8485 5.68899C27.7745 5.55809 27.703 5.41409 27.6453 5.30329C27.5831 5.18359 27.5281 5.0844 27.4696 4.9996C27.246 4.6756 26.8664 4.1322 26.5028 3.8208C26.2117 3.5717 26.0182 3.3566 25.6502 3.1412C25.2681 2.9174 24.8585 2.63749 24.6307 2.48389C24.385 2.31829 24.0586 2.1458 23.7606 2.0406C23.2726 1.8684 22.9997 1.79309 22.6727 1.68899C22.3448 1.58459 21.8724 1.44169 21.5438 1.38919C21.1941 1.33339 20.9125 1.2746 20.6453 1.2193C20.2786 1.1433 19.9602 1.05109 19.6522 1.04349ZM19.2977 4.08739C20.1145 4.09009 20.483 4.12899 21.328 4.30329C21.704 4.38079 22.3135 4.4549 22.8826 4.7173C23.1599 4.8452 23.5399 4.9963 23.8397 5.2193C23.8841 5.2524 23.9387 5.28719 24.0174 5.33839C24.0908 5.38619 24.1814 5.4447 24.2723 5.5122C24.4544 5.6476 24.6666 5.83689 24.8192 6.10989C24.925 6.29939 25.0408 6.47629 25.161 6.65779C25.2769 6.83279 25.4029 7.02269 25.5047 7.21049C25.673 7.52109 25.8128 7.88469 25.9139 8.27489C26.0049 8.62629 26.0501 8.94999 26.0809 9.28279C26.1053 9.54669 26.1926 10.2759 26.0809 10.8394C26.045 11.0204 26.0227 11.1852 25.9998 11.3619C25.9773 11.5359 25.954 11.7265 25.9158 11.9351C25.8307 12.4001 25.7274 12.8417 25.616 13.1646C25.4543 13.6333 25.2938 14.0375 25.2703 14.1021C25.2377 14.1919 25.1808 14.2654 25.1112 14.3208C25.0865 14.4272 25.0295 14.5271 24.9373 14.6001C24.7848 14.7208 24.7506 14.7538 24.6824 14.8101L24.6727 14.8179C24.5818 14.889 24.5066 14.954 24.4393 15.0249C24.3968 15.0767 24.3544 15.1321 24.3065 15.1929C24.2556 15.2574 24.1991 15.3286 24.1405 15.398C24.0257 15.5338 23.8797 15.6898 23.7 15.8101C23.3839 16.0216 23.0288 16.1595 22.7274 16.2447C22.3091 16.3629 21.8507 16.4634 21.5184 16.5132C21.4389 16.5252 21.3629 16.5582 21.1707 16.649C20.9898 16.7344 20.75 16.8467 20.4178 16.9331C19.9975 17.0425 19.4759 17.0918 18.9207 17.0122C18.3441 16.9296 17.5009 16.711 17.0828 16.6177C16.4093 16.4673 15.7373 16.1329 15.286 15.7808C14.9595 15.5261 14.5438 15.1458 14.3153 14.7632C14.2311 14.6223 14.1292 14.4749 13.9949 14.2681C13.8673 14.0715 13.7246 13.8424 13.5916 13.5816C13.4102 13.2257 13.3165 12.9043 13.2147 12.6158C13.0759 12.2227 12.9755 11.8908 12.9031 11.6353C12.8079 11.2989 12.6358 10.5889 12.8162 9.92829C12.898 9.62909 13.0091 9.3411 13.0916 9.1138C13.1816 8.8661 13.2333 8.70169 13.2459 8.58259C13.2775 8.28429 13.3056 8.01419 13.3504 7.78569C13.3958 7.55399 13.4649 7.32579 13.5955 7.11969C13.8104 6.78079 14.1886 6.37949 14.6356 6.06399C15.1033 5.73379 15.8941 5.12709 16.6854 4.86869C16.9163 4.79329 17.1329 4.74749 17.2899 4.71049C17.4596 4.67049 17.5598 4.6406 17.6365 4.6011C17.7009 4.5679 17.7582 4.53179 17.8592 4.47219C17.952 4.41749 18.0659 4.35249 18.202 4.29349C18.4833 4.17149 18.8281 4.08599 19.2977 4.08739ZM19.2948 5.08739C18.9588 5.08639 18.7504 5.14599 18.5994 5.21149C18.5196 5.24609 18.4467 5.2865 18.367 5.3335C18.2955 5.3758 18.1934 5.4393 18.0955 5.4898C17.8988 5.5912 17.691 5.6437 17.5194 5.6841C17.3347 5.7276 17.1753 5.7604 16.9959 5.8189C16.3859 6.0181 15.7482 6.50229 15.2127 6.88039C14.8596 7.12969 14.577 7.4392 14.4403 7.6548C14.4036 7.7127 14.3659 7.8047 14.3319 7.9781C14.2972 8.1549 14.273 8.37769 14.2401 8.68799C14.2126 8.94679 14.1166 9.22189 14.0321 9.45459C13.9401 9.70779 13.849 9.94329 13.7811 10.1919C13.6791 10.5654 13.7735 11.0396 13.8651 11.3628C13.9332 11.6034 14.027 11.9143 14.1571 12.2828C14.2799 12.6306 14.3404 12.8492 14.4823 13.1275C14.5924 13.3434 14.7141 13.5388 14.8338 13.7232C14.9469 13.8974 15.077 14.0887 15.1737 14.2505C15.3046 14.4697 15.6003 14.7579 15.9012 14.9927C16.2373 15.2548 16.7747 15.5235 17.3016 15.6412C17.7861 15.7493 18.5362 15.9466 19.0623 16.022C19.4764 16.0814 19.864 16.0439 20.1658 15.9654C20.4038 15.9034 20.5746 15.8246 20.744 15.7447C20.9019 15.6701 21.1171 15.5629 21.3699 15.5249C21.6535 15.4824 22.0705 15.3917 22.4559 15.2828C22.6914 15.2162 22.9413 15.115 23.1444 14.979C23.2075 14.9367 23.2816 14.8651 23.3768 14.7525C23.4231 14.6977 23.4702 14.6387 23.5213 14.5738C23.5708 14.511 23.6255 14.4402 23.6815 14.3726L23.6912 14.3609L23.702 14.3501C23.8179 14.2262 23.9374 14.123 24.0565 14.0298C24.0974 13.9954 24.1695 13.9321 24.3162 13.816C24.3205 13.798 24.3235 13.7791 24.3299 13.7613C24.3746 13.6379 24.5068 13.3134 24.6707 12.8384C24.758 12.5854 24.8499 12.2004 24.9315 11.7544C24.9639 11.5769 24.9843 11.4147 25.0076 11.2339C25.0307 11.0556 25.0574 10.8617 25.1004 10.6451C25.1771 10.2582 25.1161 9.70289 25.0858 9.37459C25.0581 9.07599 25.0185 8.80919 24.9451 8.52589C24.8611 8.20149 24.7496 7.9155 24.6258 7.6871C24.5493 7.546 24.4499 7.39609 24.327 7.21049C24.2085 7.03149 24.0728 6.82499 23.9461 6.59819C23.8903 6.49839 23.8016 6.40859 23.6756 6.31499C23.6125 6.26809 23.5464 6.2244 23.4725 6.1763C23.4038 6.1316 23.3184 6.0771 23.243 6.021C23.0528 5.8795 22.823 5.7898 22.4647 5.6246C22.0333 5.4256 21.6132 5.38329 21.1258 5.28279C20.3429 5.12129 20.0413 5.08989 19.2948 5.08739Z" fill="black"/>
</svg>
