<svg width="40" height="40" viewBox="0 0 40 40" fill="none" xmlns="http://www.w3.org/2000/svg">
<path d="M28.2934 2.66947C28.8215 2.64227 29.7867 2.62564 30.2884 2.68898C32.4643 2.98381 34.4357 4.12617 35.7735 5.86738C36.0691 6.25 36.6511 7.2566 36.7951 7.70086C36.8612 7.90468 36.8616 8.12867 36.9408 8.32875C37.0456 8.59371 37.2276 8.82468 37.2867 9.1082C37.4155 9.72703 37.3976 11.4739 37.3174 12.1343C37.3079 12.2123 37.297 12.2863 37.2734 12.3617C37.2015 12.5921 37.0801 12.813 36.9935 13.0391C36.7665 13.6313 36.6002 14.2137 36.2565 14.7577C35.4145 16.0903 34.1979 17.1909 33.0778 18.2832C32.6823 18.669 32.3077 19.09 31.8838 19.4448C31.4585 19.8009 30.9281 20.187 30.4364 20.44C29.2499 21.0506 27.7281 21.3404 26.4048 21.3397C26.0718 21.3395 25.7306 21.3522 25.4102 21.2452C25.2448 21.1899 25.0388 21.0874 24.966 20.9167C24.9245 20.8193 24.9272 20.7255 24.9656 20.6277C25.075 20.349 26.6535 18.825 26.9581 18.6825C27.3393 18.504 28.001 18.4305 28.4828 18.2355C29.0235 18.0168 29.5323 17.763 30.0049 17.4182C30.8454 16.8048 31.5423 15.9724 32.2644 15.2293C32.5069 14.9798 32.7933 14.7729 33.0161 14.5047C33.4595 13.9709 33.9034 13.3596 34.1726 12.7189C34.778 11.2784 34.8153 10.1184 34.2222 8.67535C33.687 7.34726 32.6376 6.29203 31.3125 5.74949C30.0769 5.23976 28.6892 5.24359 27.4564 5.76003C25.8409 6.43484 24.7284 7.68753 23.5586 8.94171C23.1513 9.32148 22.8062 9.6175 22.4954 10.0882C21.119 12.1727 21.0689 13.6404 22.0048 15.8954C22.7436 15.4441 23.4199 14.6452 24.0274 14.0347C24.2775 13.7832 24.5369 13.5424 24.786 13.2911C25.2056 12.8677 25.584 12.3971 26.1344 12.136C26.3974 12.005 26.9697 12.0141 27.2535 12.0896C27.9518 12.2751 28.078 13.2553 27.9351 13.8553C27.9142 13.9432 27.8674 14.0974 27.8107 14.1536C27.4506 14.5111 27.0672 14.8478 26.7142 15.2117C25.1417 16.8356 23.5504 18.4412 21.9408 20.0283C21.6024 20.3662 21.2351 20.6913 20.9057 21.0244C19.038 22.943 17.1454 24.8373 15.2286 26.7068C14.3091 27.6014 14.1101 28.2456 12.6249 27.8816C12.437 27.6671 12.3047 27.5461 12.0912 27.3553C12.0022 26.7041 12.0261 26.4963 12.1699 25.851C13.3608 24.7637 14.534 23.5671 15.6168 22.37C15.6791 22.3012 15.7679 22.0613 15.8035 21.9652C15.0764 21.6757 14.4977 21.4597 13.72 21.3741C13.2369 21.3213 12.6219 21.4206 12.1563 21.5311C11.6269 21.6833 10.6345 22.048 10.2118 22.4003C8.89329 23.4991 7.16595 25.126 6.237 26.5401C5.58813 27.5279 5.09454 29.2291 5.41829 30.3422C5.72821 31.2377 6.26231 32.4927 6.98712 33.1201C10.522 36.1798 13.6708 34.2413 16.2889 31.2236C16.7282 30.7173 17.3522 30.3056 17.6741 29.6164C17.9109 29.1095 18.2059 28.5976 18.4011 28.0668C18.5409 27.7448 18.5304 27.114 18.754 26.8447C19.2592 26.2359 20.1035 25.4 20.7218 24.8893C20.7533 24.8632 20.9345 24.9085 20.9829 24.9546C21.6362 25.5767 21.3137 27.0381 21.3111 27.8707C21.3095 28.0639 21.0662 28.6778 21.0181 28.8525C20.8144 29.5675 20.5837 30.3425 20.1486 30.9526C19.2072 32.2725 18.0232 33.3552 16.8806 34.5002C15.5215 35.8623 14.0928 36.8482 12.1564 37.2145C10.1948 37.599 8.0379 37.1371 6.35728 36.074C3.0776 33.9994 1.68055 29.6435 3.35196 26.1014C3.52272 25.7395 3.61076 25.4044 3.85173 25.0664C4.60954 24.0034 5.58856 23.1022 6.48645 22.1584C7.10247 21.5728 7.6636 20.9696 8.30767 20.4091C9.39981 19.4587 10.9336 18.9453 12.3407 18.7037C13.591 18.489 14.9484 18.828 16.1412 19.1732C16.5383 19.2882 17.5091 19.8062 17.9611 19.9303C18.5128 19.6607 19.6207 18.4771 19.9466 17.9541C19.7828 17.3616 19.3026 16.6705 19.1609 16.1395C19.0289 15.6443 18.8096 14.7741 18.7193 14.2847C18.4221 12.6752 19.008 10.5398 19.8132 9.14382C20.3445 8.2225 21.1125 7.5423 21.863 6.81097C22.9407 5.75351 24.0351 4.47859 25.3351 3.70482C25.9624 3.33138 27.5293 2.83068 28.2934 2.66947Z" fill="#881C18"/>
</svg>
