<svg width="45" height="45" viewBox="0 0 45 45" fill="none" xmlns="http://www.w3.org/2000/svg">
<path d="M30.1828 5.99365C30.4072 6.07456 30.4708 6.25728 30.6622 6.36811L33.3009 7.87552C34.0642 8.31168 34.9057 8.71061 35.6841 9.12317C36.0694 9.32739 36.4305 9.63263 36.7877 9.82445C37.7827 10.3588 38.9192 10.9735 39.8745 11.5696C39.9773 11.8605 40.1287 12.3008 39.7734 12.4854C37.8934 13.4622 36.1171 14.6041 34.2501 15.5954C34.098 15.676 33.9465 15.7607 33.796 15.8443L31.4073 17.1887C30.9733 17.4343 30.6144 17.6949 30.136 17.9228L30.0866 17.8947C29.8514 17.4237 29.9155 14.2232 29.9458 13.5353C28.555 13.5698 27.021 13.539 25.6145 13.5391L17.2978 13.5388C15.0631 13.5379 12.2484 13.3604 10.1143 13.8454C7.31761 15.0456 6.10393 17.0646 5.94783 20.0642C5.34587 21.0015 5.01764 21.0507 3.98438 21.0003C3.71075 20.7096 3.3556 20.3786 3.05569 20.1197C2.81006 18.6344 3.11302 17.8161 3.57044 16.4108C4.59871 13.2518 7.57324 11.0518 10.7969 10.5057C11.4039 10.4029 12.2637 10.4509 12.9041 10.4512L16.6408 10.4534L29.9833 10.4567C29.962 10.3325 29.9287 10.0066 29.9355 9.79606C29.9731 8.63217 29.8068 7.24183 30.0674 6.11507C30.1159 6.06405 30.1544 6.02354 30.1828 5.99365Z" fill="#881C18"/>
<path d="M39.9877 24.0027C40.8063 23.9568 40.9343 23.9193 41.5573 24.5381C41.7075 24.6873 41.8049 24.773 42.0013 24.8547C42.0393 25.5612 42.0472 26.5852 41.9661 27.2893C41.9361 27.5487 41.6344 28.0157 41.52 28.2886C41.4306 28.502 41.4502 28.816 41.3782 28.9664C40.7768 30.2227 40.1145 31.2233 39.0861 32.1753C38.6601 32.5696 38.4516 32.6538 38.0112 32.9637C36.8636 33.7714 35.6415 34.2165 34.2621 34.4674C33.56 34.5952 32.3826 34.5512 31.6239 34.551L27.3608 34.549L19.3306 34.5495C17.9506 34.5498 16.3951 34.5907 15.0348 34.5385C15.0729 35.0304 15.1775 38.7632 14.9239 38.8957C14.6375 38.8681 13.1112 37.8709 12.6349 37.6662C12.2327 37.4932 11.291 36.8702 10.8445 36.621L8.48144 35.2934C7.96654 35.004 7.54884 34.8088 7.06047 34.4692C6.37989 34.1616 5.67066 33.629 5.09269 33.4053C4.97364 33.0641 4.97878 32.9703 5.00941 32.6189C5.48851 32.4593 5.7963 32.2033 6.22986 31.9747C7.38536 31.3652 8.48035 30.6821 9.59278 30.0015C10.1484 29.6616 10.8275 29.4304 11.3832 29.0648C12.5803 28.2775 13.8361 27.7248 15.0209 26.903C15.0599 27.7813 15.1829 30.7105 15.023 31.4595L28.1019 31.4558L31.3945 31.4582C32.2672 31.459 33.2445 31.5121 34.0825 31.3448C36.4649 30.8696 38.1619 29.1887 38.7802 26.8685C38.9661 26.1708 39.0349 25.5284 39.1187 24.8032C39.3601 24.5263 39.6525 24.1535 39.9877 24.0027Z" fill="#881C18"/>
</svg>
